%TF.GenerationSoftware,KiCad,Pcbnew,8.0.3*%
%TF.CreationDate,2024-07-22T20:15:05+05:30*%
%TF.ProjectId,learn_modbus_v1,6c656172-6e5f-46d6-9f64-6275735f7631,rev?*%
%TF.SameCoordinates,Original*%
%TF.FileFunction,Soldermask,Top*%
%TF.FilePolarity,Negative*%
%FSLAX46Y46*%
G04 Gerber Fmt 4.6, Leading zero omitted, Abs format (unit mm)*
G04 Created by KiCad (PCBNEW 8.0.3) date 2024-07-22 20:15:05*
%MOMM*%
%LPD*%
G01*
G04 APERTURE LIST*
G04 Aperture macros list*
%AMRoundRect*
0 Rectangle with rounded corners*
0 $1 Rounding radius*
0 $2 $3 $4 $5 $6 $7 $8 $9 X,Y pos of 4 corners*
0 Add a 4 corners polygon primitive as box body*
4,1,4,$2,$3,$4,$5,$6,$7,$8,$9,$2,$3,0*
0 Add four circle primitives for the rounded corners*
1,1,$1+$1,$2,$3*
1,1,$1+$1,$4,$5*
1,1,$1+$1,$6,$7*
1,1,$1+$1,$8,$9*
0 Add four rect primitives between the rounded corners*
20,1,$1+$1,$2,$3,$4,$5,0*
20,1,$1+$1,$4,$5,$6,$7,0*
20,1,$1+$1,$6,$7,$8,$9,0*
20,1,$1+$1,$8,$9,$2,$3,0*%
G04 Aperture macros list end*
%ADD10RoundRect,0.250000X0.350000X0.450000X-0.350000X0.450000X-0.350000X-0.450000X0.350000X-0.450000X0*%
%ADD11RoundRect,0.250000X-0.325000X-0.450000X0.325000X-0.450000X0.325000X0.450000X-0.325000X0.450000X0*%
%ADD12O,2.300000X1.700000*%
%ADD13C,1.400000*%
%ADD14R,2.500000X2.500000*%
%ADD15C,2.500000*%
%ADD16RoundRect,0.250000X-0.350000X-0.450000X0.350000X-0.450000X0.350000X0.450000X-0.350000X0.450000X0*%
%ADD17RoundRect,0.450000X-0.950000X-0.450000X0.950000X-0.450000X0.950000X0.450000X-0.950000X0.450000X0*%
%ADD18C,1.500000*%
%ADD19RoundRect,0.450000X0.950000X0.450000X-0.950000X0.450000X-0.950000X-0.450000X0.950000X-0.450000X0*%
%ADD20C,1.143000*%
%ADD21C,1.700000*%
%ADD22RoundRect,0.102000X1.400000X-1.000000X1.400000X1.000000X-1.400000X1.000000X-1.400000X-1.000000X0*%
%ADD23RoundRect,0.102000X1.300000X-1.400000X1.300000X1.400000X-1.300000X1.400000X-1.300000X-1.400000X0*%
%ADD24RoundRect,0.102000X1.400000X-1.100000X1.400000X1.100000X-1.400000X1.100000X-1.400000X-1.100000X0*%
%ADD25R,1.700000X1.700000*%
%ADD26O,1.700000X1.700000*%
G04 APERTURE END LIST*
D10*
%TO.C,R2*%
X169000000Y-67000000D03*
X167000000Y-67000000D03*
%TD*%
D11*
%TO.C,D2*%
X162375000Y-67000000D03*
X164425000Y-67000000D03*
%TD*%
D10*
%TO.C,R1*%
X116000000Y-67000000D03*
X114000000Y-67000000D03*
%TD*%
D11*
%TO.C,D1*%
X108975000Y-67000000D03*
X111025000Y-67000000D03*
%TD*%
D12*
%TO.C,U3*%
X114220000Y-72820000D03*
X114220000Y-75360000D03*
X114220000Y-77900000D03*
X114220000Y-80440000D03*
X114220000Y-82980000D03*
X98980000Y-77900000D03*
X98980000Y-75360000D03*
X98980000Y-72820000D03*
%TD*%
D13*
%TO.C,JP1*%
X92900000Y-74250000D03*
X92900000Y-76790000D03*
%TD*%
D14*
%TO.C,J3*%
X84800000Y-82400000D03*
D15*
X84800000Y-77400000D03*
X84800000Y-72400000D03*
%TD*%
D16*
%TO.C,R3*%
X92100000Y-80900000D03*
X94100000Y-80900000D03*
%TD*%
D17*
%TO.C,U2*%
X141345000Y-70280000D03*
D18*
X141980000Y-70280000D03*
D17*
X141345000Y-72820000D03*
D18*
X141980000Y-72820000D03*
D17*
X141345000Y-75360000D03*
D18*
X141980000Y-75360000D03*
D17*
X141345000Y-77900000D03*
D18*
X141980000Y-77900000D03*
D17*
X141345000Y-80440000D03*
D18*
X141980000Y-80440000D03*
D17*
X141345000Y-82980000D03*
D18*
X141980000Y-82980000D03*
D17*
X141345000Y-85520000D03*
D18*
X141980000Y-85520000D03*
X157220000Y-85520000D03*
D19*
X157855000Y-85520000D03*
D18*
X157220000Y-82980000D03*
D19*
X157855000Y-82980000D03*
D18*
X157220000Y-80440000D03*
D19*
X157855000Y-80440000D03*
D18*
X157220000Y-77900000D03*
D19*
X157855000Y-77900000D03*
D18*
X157220000Y-75360000D03*
D19*
X157855000Y-75360000D03*
D18*
X157220000Y-72820000D03*
D19*
X157855000Y-72820000D03*
D18*
X157220000Y-70280000D03*
D19*
X157855000Y-70280000D03*
D20*
X148330000Y-69645000D03*
X150870000Y-69645000D03*
X148330000Y-72185000D03*
X150870000Y-72185000D03*
%TD*%
D21*
%TO.C,J1*%
X130000000Y-71750000D03*
X130000000Y-78750000D03*
D22*
X126300000Y-67850000D03*
D23*
X126400000Y-80050000D03*
D24*
X133700000Y-72550000D03*
X126300000Y-70650000D03*
%TD*%
D25*
%TO.C,U1*%
X172300000Y-88000000D03*
D26*
X174840000Y-88000000D03*
X177380000Y-88000000D03*
X179920000Y-88000000D03*
X182460000Y-88000000D03*
X185000000Y-88000000D03*
X185000000Y-67700000D03*
X182460000Y-67700000D03*
X179920000Y-67700000D03*
X177380000Y-67700000D03*
X174840000Y-67700000D03*
D25*
X172300000Y-67700000D03*
%TD*%
M02*
