%TF.GenerationSoftware,KiCad,Pcbnew,8.0.3*%
%TF.CreationDate,2024-07-22T20:15:05+05:30*%
%TF.ProjectId,learn_modbus_v1,6c656172-6e5f-46d6-9f64-6275735f7631,rev?*%
%TF.SameCoordinates,Original*%
%TF.FileFunction,Legend,Top*%
%TF.FilePolarity,Positive*%
%FSLAX46Y46*%
G04 Gerber Fmt 4.6, Leading zero omitted, Abs format (unit mm)*
G04 Created by KiCad (PCBNEW 8.0.3) date 2024-07-22 20:15:05*
%MOMM*%
%LPD*%
G01*
G04 APERTURE LIST*
%ADD10C,0.200000*%
%ADD11C,0.125000*%
%ADD12C,0.150000*%
%ADD13C,0.101600*%
%ADD14C,0.120000*%
%ADD15C,0.254000*%
%ADD16C,1.100000*%
%ADD17C,0.127000*%
%ADD18C,0.400000*%
%ADD19C,0.350000*%
G04 APERTURE END LIST*
D10*
X80560149Y-67391028D02*
X80560149Y-67867219D01*
X80226816Y-66867219D02*
X80560149Y-67391028D01*
X80560149Y-67391028D02*
X80893482Y-66867219D01*
X81226816Y-67867219D02*
X81226816Y-66867219D01*
X81226816Y-66867219D02*
X81560149Y-67581504D01*
X81560149Y-67581504D02*
X81893482Y-66867219D01*
X81893482Y-66867219D02*
X81893482Y-67867219D01*
X82369673Y-67867219D02*
X82369673Y-66867219D01*
D11*
X79796521Y-88871119D02*
X79320331Y-88871119D01*
X79320331Y-88871119D02*
X79320331Y-87871119D01*
X80510807Y-88823500D02*
X80415569Y-88871119D01*
X80415569Y-88871119D02*
X80225093Y-88871119D01*
X80225093Y-88871119D02*
X80129855Y-88823500D01*
X80129855Y-88823500D02*
X80082236Y-88728261D01*
X80082236Y-88728261D02*
X80082236Y-88347309D01*
X80082236Y-88347309D02*
X80129855Y-88252071D01*
X80129855Y-88252071D02*
X80225093Y-88204452D01*
X80225093Y-88204452D02*
X80415569Y-88204452D01*
X80415569Y-88204452D02*
X80510807Y-88252071D01*
X80510807Y-88252071D02*
X80558426Y-88347309D01*
X80558426Y-88347309D02*
X80558426Y-88442547D01*
X80558426Y-88442547D02*
X80082236Y-88537785D01*
X81415569Y-88871119D02*
X81415569Y-88347309D01*
X81415569Y-88347309D02*
X81367950Y-88252071D01*
X81367950Y-88252071D02*
X81272712Y-88204452D01*
X81272712Y-88204452D02*
X81082236Y-88204452D01*
X81082236Y-88204452D02*
X80986998Y-88252071D01*
X81415569Y-88823500D02*
X81320331Y-88871119D01*
X81320331Y-88871119D02*
X81082236Y-88871119D01*
X81082236Y-88871119D02*
X80986998Y-88823500D01*
X80986998Y-88823500D02*
X80939379Y-88728261D01*
X80939379Y-88728261D02*
X80939379Y-88633023D01*
X80939379Y-88633023D02*
X80986998Y-88537785D01*
X80986998Y-88537785D02*
X81082236Y-88490166D01*
X81082236Y-88490166D02*
X81320331Y-88490166D01*
X81320331Y-88490166D02*
X81415569Y-88442547D01*
X81891760Y-88871119D02*
X81891760Y-88204452D01*
X81891760Y-88394928D02*
X81939379Y-88299690D01*
X81939379Y-88299690D02*
X81986998Y-88252071D01*
X81986998Y-88252071D02*
X82082236Y-88204452D01*
X82082236Y-88204452D02*
X82177474Y-88204452D01*
X82510808Y-88204452D02*
X82510808Y-88871119D01*
X82510808Y-88299690D02*
X82558427Y-88252071D01*
X82558427Y-88252071D02*
X82653665Y-88204452D01*
X82653665Y-88204452D02*
X82796522Y-88204452D01*
X82796522Y-88204452D02*
X82891760Y-88252071D01*
X82891760Y-88252071D02*
X82939379Y-88347309D01*
X82939379Y-88347309D02*
X82939379Y-88871119D01*
X84177475Y-88871119D02*
X84177475Y-87871119D01*
X84177475Y-87871119D02*
X84510808Y-88585404D01*
X84510808Y-88585404D02*
X84844141Y-87871119D01*
X84844141Y-87871119D02*
X84844141Y-88871119D01*
X85463189Y-88871119D02*
X85367951Y-88823500D01*
X85367951Y-88823500D02*
X85320332Y-88775880D01*
X85320332Y-88775880D02*
X85272713Y-88680642D01*
X85272713Y-88680642D02*
X85272713Y-88394928D01*
X85272713Y-88394928D02*
X85320332Y-88299690D01*
X85320332Y-88299690D02*
X85367951Y-88252071D01*
X85367951Y-88252071D02*
X85463189Y-88204452D01*
X85463189Y-88204452D02*
X85606046Y-88204452D01*
X85606046Y-88204452D02*
X85701284Y-88252071D01*
X85701284Y-88252071D02*
X85748903Y-88299690D01*
X85748903Y-88299690D02*
X85796522Y-88394928D01*
X85796522Y-88394928D02*
X85796522Y-88680642D01*
X85796522Y-88680642D02*
X85748903Y-88775880D01*
X85748903Y-88775880D02*
X85701284Y-88823500D01*
X85701284Y-88823500D02*
X85606046Y-88871119D01*
X85606046Y-88871119D02*
X85463189Y-88871119D01*
X86653665Y-88871119D02*
X86653665Y-87871119D01*
X86653665Y-88823500D02*
X86558427Y-88871119D01*
X86558427Y-88871119D02*
X86367951Y-88871119D01*
X86367951Y-88871119D02*
X86272713Y-88823500D01*
X86272713Y-88823500D02*
X86225094Y-88775880D01*
X86225094Y-88775880D02*
X86177475Y-88680642D01*
X86177475Y-88680642D02*
X86177475Y-88394928D01*
X86177475Y-88394928D02*
X86225094Y-88299690D01*
X86225094Y-88299690D02*
X86272713Y-88252071D01*
X86272713Y-88252071D02*
X86367951Y-88204452D01*
X86367951Y-88204452D02*
X86558427Y-88204452D01*
X86558427Y-88204452D02*
X86653665Y-88252071D01*
X87129856Y-88871119D02*
X87129856Y-87871119D01*
X87129856Y-88252071D02*
X87225094Y-88204452D01*
X87225094Y-88204452D02*
X87415570Y-88204452D01*
X87415570Y-88204452D02*
X87510808Y-88252071D01*
X87510808Y-88252071D02*
X87558427Y-88299690D01*
X87558427Y-88299690D02*
X87606046Y-88394928D01*
X87606046Y-88394928D02*
X87606046Y-88680642D01*
X87606046Y-88680642D02*
X87558427Y-88775880D01*
X87558427Y-88775880D02*
X87510808Y-88823500D01*
X87510808Y-88823500D02*
X87415570Y-88871119D01*
X87415570Y-88871119D02*
X87225094Y-88871119D01*
X87225094Y-88871119D02*
X87129856Y-88823500D01*
X88463189Y-88204452D02*
X88463189Y-88871119D01*
X88034618Y-88204452D02*
X88034618Y-88728261D01*
X88034618Y-88728261D02*
X88082237Y-88823500D01*
X88082237Y-88823500D02*
X88177475Y-88871119D01*
X88177475Y-88871119D02*
X88320332Y-88871119D01*
X88320332Y-88871119D02*
X88415570Y-88823500D01*
X88415570Y-88823500D02*
X88463189Y-88775880D01*
X88891761Y-88823500D02*
X88986999Y-88871119D01*
X88986999Y-88871119D02*
X89177475Y-88871119D01*
X89177475Y-88871119D02*
X89272713Y-88823500D01*
X89272713Y-88823500D02*
X89320332Y-88728261D01*
X89320332Y-88728261D02*
X89320332Y-88680642D01*
X89320332Y-88680642D02*
X89272713Y-88585404D01*
X89272713Y-88585404D02*
X89177475Y-88537785D01*
X89177475Y-88537785D02*
X89034618Y-88537785D01*
X89034618Y-88537785D02*
X88939380Y-88490166D01*
X88939380Y-88490166D02*
X88891761Y-88394928D01*
X88891761Y-88394928D02*
X88891761Y-88347309D01*
X88891761Y-88347309D02*
X88939380Y-88252071D01*
X88939380Y-88252071D02*
X89034618Y-88204452D01*
X89034618Y-88204452D02*
X89177475Y-88204452D01*
X89177475Y-88204452D02*
X89272713Y-88252071D01*
X90510809Y-88871119D02*
X90510809Y-87871119D01*
X90510809Y-87871119D02*
X90891761Y-87871119D01*
X90891761Y-87871119D02*
X90986999Y-87918738D01*
X90986999Y-87918738D02*
X91034618Y-87966357D01*
X91034618Y-87966357D02*
X91082237Y-88061595D01*
X91082237Y-88061595D02*
X91082237Y-88204452D01*
X91082237Y-88204452D02*
X91034618Y-88299690D01*
X91034618Y-88299690D02*
X90986999Y-88347309D01*
X90986999Y-88347309D02*
X90891761Y-88394928D01*
X90891761Y-88394928D02*
X90510809Y-88394928D01*
X91510809Y-88871119D02*
X91510809Y-88204452D01*
X91510809Y-88394928D02*
X91558428Y-88299690D01*
X91558428Y-88299690D02*
X91606047Y-88252071D01*
X91606047Y-88252071D02*
X91701285Y-88204452D01*
X91701285Y-88204452D02*
X91796523Y-88204452D01*
X92272714Y-88871119D02*
X92177476Y-88823500D01*
X92177476Y-88823500D02*
X92129857Y-88775880D01*
X92129857Y-88775880D02*
X92082238Y-88680642D01*
X92082238Y-88680642D02*
X92082238Y-88394928D01*
X92082238Y-88394928D02*
X92129857Y-88299690D01*
X92129857Y-88299690D02*
X92177476Y-88252071D01*
X92177476Y-88252071D02*
X92272714Y-88204452D01*
X92272714Y-88204452D02*
X92415571Y-88204452D01*
X92415571Y-88204452D02*
X92510809Y-88252071D01*
X92510809Y-88252071D02*
X92558428Y-88299690D01*
X92558428Y-88299690D02*
X92606047Y-88394928D01*
X92606047Y-88394928D02*
X92606047Y-88680642D01*
X92606047Y-88680642D02*
X92558428Y-88775880D01*
X92558428Y-88775880D02*
X92510809Y-88823500D01*
X92510809Y-88823500D02*
X92415571Y-88871119D01*
X92415571Y-88871119D02*
X92272714Y-88871119D01*
X92891762Y-88204452D02*
X93272714Y-88204452D01*
X93034619Y-87871119D02*
X93034619Y-88728261D01*
X93034619Y-88728261D02*
X93082238Y-88823500D01*
X93082238Y-88823500D02*
X93177476Y-88871119D01*
X93177476Y-88871119D02*
X93272714Y-88871119D01*
X93748905Y-88871119D02*
X93653667Y-88823500D01*
X93653667Y-88823500D02*
X93606048Y-88775880D01*
X93606048Y-88775880D02*
X93558429Y-88680642D01*
X93558429Y-88680642D02*
X93558429Y-88394928D01*
X93558429Y-88394928D02*
X93606048Y-88299690D01*
X93606048Y-88299690D02*
X93653667Y-88252071D01*
X93653667Y-88252071D02*
X93748905Y-88204452D01*
X93748905Y-88204452D02*
X93891762Y-88204452D01*
X93891762Y-88204452D02*
X93987000Y-88252071D01*
X93987000Y-88252071D02*
X94034619Y-88299690D01*
X94034619Y-88299690D02*
X94082238Y-88394928D01*
X94082238Y-88394928D02*
X94082238Y-88680642D01*
X94082238Y-88680642D02*
X94034619Y-88775880D01*
X94034619Y-88775880D02*
X93987000Y-88823500D01*
X93987000Y-88823500D02*
X93891762Y-88871119D01*
X93891762Y-88871119D02*
X93748905Y-88871119D01*
X94939381Y-88823500D02*
X94844143Y-88871119D01*
X94844143Y-88871119D02*
X94653667Y-88871119D01*
X94653667Y-88871119D02*
X94558429Y-88823500D01*
X94558429Y-88823500D02*
X94510810Y-88775880D01*
X94510810Y-88775880D02*
X94463191Y-88680642D01*
X94463191Y-88680642D02*
X94463191Y-88394928D01*
X94463191Y-88394928D02*
X94510810Y-88299690D01*
X94510810Y-88299690D02*
X94558429Y-88252071D01*
X94558429Y-88252071D02*
X94653667Y-88204452D01*
X94653667Y-88204452D02*
X94844143Y-88204452D01*
X94844143Y-88204452D02*
X94939381Y-88252071D01*
X95510810Y-88871119D02*
X95415572Y-88823500D01*
X95415572Y-88823500D02*
X95367953Y-88775880D01*
X95367953Y-88775880D02*
X95320334Y-88680642D01*
X95320334Y-88680642D02*
X95320334Y-88394928D01*
X95320334Y-88394928D02*
X95367953Y-88299690D01*
X95367953Y-88299690D02*
X95415572Y-88252071D01*
X95415572Y-88252071D02*
X95510810Y-88204452D01*
X95510810Y-88204452D02*
X95653667Y-88204452D01*
X95653667Y-88204452D02*
X95748905Y-88252071D01*
X95748905Y-88252071D02*
X95796524Y-88299690D01*
X95796524Y-88299690D02*
X95844143Y-88394928D01*
X95844143Y-88394928D02*
X95844143Y-88680642D01*
X95844143Y-88680642D02*
X95796524Y-88775880D01*
X95796524Y-88775880D02*
X95748905Y-88823500D01*
X95748905Y-88823500D02*
X95653667Y-88871119D01*
X95653667Y-88871119D02*
X95510810Y-88871119D01*
X96415572Y-88871119D02*
X96320334Y-88823500D01*
X96320334Y-88823500D02*
X96272715Y-88728261D01*
X96272715Y-88728261D02*
X96272715Y-87871119D01*
D12*
X167833333Y-69454819D02*
X167500000Y-68978628D01*
X167261905Y-69454819D02*
X167261905Y-68454819D01*
X167261905Y-68454819D02*
X167642857Y-68454819D01*
X167642857Y-68454819D02*
X167738095Y-68502438D01*
X167738095Y-68502438D02*
X167785714Y-68550057D01*
X167785714Y-68550057D02*
X167833333Y-68645295D01*
X167833333Y-68645295D02*
X167833333Y-68788152D01*
X167833333Y-68788152D02*
X167785714Y-68883390D01*
X167785714Y-68883390D02*
X167738095Y-68931009D01*
X167738095Y-68931009D02*
X167642857Y-68978628D01*
X167642857Y-68978628D02*
X167261905Y-68978628D01*
X168214286Y-68550057D02*
X168261905Y-68502438D01*
X168261905Y-68502438D02*
X168357143Y-68454819D01*
X168357143Y-68454819D02*
X168595238Y-68454819D01*
X168595238Y-68454819D02*
X168690476Y-68502438D01*
X168690476Y-68502438D02*
X168738095Y-68550057D01*
X168738095Y-68550057D02*
X168785714Y-68645295D01*
X168785714Y-68645295D02*
X168785714Y-68740533D01*
X168785714Y-68740533D02*
X168738095Y-68883390D01*
X168738095Y-68883390D02*
X168166667Y-69454819D01*
X168166667Y-69454819D02*
X168785714Y-69454819D01*
X162261905Y-69454819D02*
X162261905Y-68454819D01*
X162261905Y-68454819D02*
X162500000Y-68454819D01*
X162500000Y-68454819D02*
X162642857Y-68502438D01*
X162642857Y-68502438D02*
X162738095Y-68597676D01*
X162738095Y-68597676D02*
X162785714Y-68692914D01*
X162785714Y-68692914D02*
X162833333Y-68883390D01*
X162833333Y-68883390D02*
X162833333Y-69026247D01*
X162833333Y-69026247D02*
X162785714Y-69216723D01*
X162785714Y-69216723D02*
X162738095Y-69311961D01*
X162738095Y-69311961D02*
X162642857Y-69407200D01*
X162642857Y-69407200D02*
X162500000Y-69454819D01*
X162500000Y-69454819D02*
X162261905Y-69454819D01*
X163214286Y-68550057D02*
X163261905Y-68502438D01*
X163261905Y-68502438D02*
X163357143Y-68454819D01*
X163357143Y-68454819D02*
X163595238Y-68454819D01*
X163595238Y-68454819D02*
X163690476Y-68502438D01*
X163690476Y-68502438D02*
X163738095Y-68550057D01*
X163738095Y-68550057D02*
X163785714Y-68645295D01*
X163785714Y-68645295D02*
X163785714Y-68740533D01*
X163785714Y-68740533D02*
X163738095Y-68883390D01*
X163738095Y-68883390D02*
X163166667Y-69454819D01*
X163166667Y-69454819D02*
X163785714Y-69454819D01*
X117833333Y-67454819D02*
X117500000Y-66978628D01*
X117261905Y-67454819D02*
X117261905Y-66454819D01*
X117261905Y-66454819D02*
X117642857Y-66454819D01*
X117642857Y-66454819D02*
X117738095Y-66502438D01*
X117738095Y-66502438D02*
X117785714Y-66550057D01*
X117785714Y-66550057D02*
X117833333Y-66645295D01*
X117833333Y-66645295D02*
X117833333Y-66788152D01*
X117833333Y-66788152D02*
X117785714Y-66883390D01*
X117785714Y-66883390D02*
X117738095Y-66931009D01*
X117738095Y-66931009D02*
X117642857Y-66978628D01*
X117642857Y-66978628D02*
X117261905Y-66978628D01*
X118785714Y-67454819D02*
X118214286Y-67454819D01*
X118500000Y-67454819D02*
X118500000Y-66454819D01*
X118500000Y-66454819D02*
X118404762Y-66597676D01*
X118404762Y-66597676D02*
X118309524Y-66692914D01*
X118309524Y-66692914D02*
X118214286Y-66740533D01*
X105261905Y-67454819D02*
X105261905Y-66454819D01*
X105261905Y-66454819D02*
X105500000Y-66454819D01*
X105500000Y-66454819D02*
X105642857Y-66502438D01*
X105642857Y-66502438D02*
X105738095Y-66597676D01*
X105738095Y-66597676D02*
X105785714Y-66692914D01*
X105785714Y-66692914D02*
X105833333Y-66883390D01*
X105833333Y-66883390D02*
X105833333Y-67026247D01*
X105833333Y-67026247D02*
X105785714Y-67216723D01*
X105785714Y-67216723D02*
X105738095Y-67311961D01*
X105738095Y-67311961D02*
X105642857Y-67407200D01*
X105642857Y-67407200D02*
X105500000Y-67454819D01*
X105500000Y-67454819D02*
X105261905Y-67454819D01*
X106785714Y-67454819D02*
X106214286Y-67454819D01*
X106500000Y-67454819D02*
X106500000Y-66454819D01*
X106500000Y-66454819D02*
X106404762Y-66597676D01*
X106404762Y-66597676D02*
X106309524Y-66692914D01*
X106309524Y-66692914D02*
X106214286Y-66740533D01*
X93838095Y-70354819D02*
X93838095Y-71164342D01*
X93838095Y-71164342D02*
X93885714Y-71259580D01*
X93885714Y-71259580D02*
X93933333Y-71307200D01*
X93933333Y-71307200D02*
X94028571Y-71354819D01*
X94028571Y-71354819D02*
X94219047Y-71354819D01*
X94219047Y-71354819D02*
X94314285Y-71307200D01*
X94314285Y-71307200D02*
X94361904Y-71259580D01*
X94361904Y-71259580D02*
X94409523Y-71164342D01*
X94409523Y-71164342D02*
X94409523Y-70354819D01*
X94790476Y-70354819D02*
X95409523Y-70354819D01*
X95409523Y-70354819D02*
X95076190Y-70735771D01*
X95076190Y-70735771D02*
X95219047Y-70735771D01*
X95219047Y-70735771D02*
X95314285Y-70783390D01*
X95314285Y-70783390D02*
X95361904Y-70831009D01*
X95361904Y-70831009D02*
X95409523Y-70926247D01*
X95409523Y-70926247D02*
X95409523Y-71164342D01*
X95409523Y-71164342D02*
X95361904Y-71259580D01*
X95361904Y-71259580D02*
X95314285Y-71307200D01*
X95314285Y-71307200D02*
X95219047Y-71354819D01*
X95219047Y-71354819D02*
X94933333Y-71354819D01*
X94933333Y-71354819D02*
X94838095Y-71307200D01*
X94838095Y-71307200D02*
X94790476Y-71259580D01*
D13*
X111631300Y-82770109D02*
X111667586Y-82733824D01*
X111667586Y-82733824D02*
X111776443Y-82697538D01*
X111776443Y-82697538D02*
X111849015Y-82697538D01*
X111849015Y-82697538D02*
X111957872Y-82733824D01*
X111957872Y-82733824D02*
X112030443Y-82806395D01*
X112030443Y-82806395D02*
X112066729Y-82878966D01*
X112066729Y-82878966D02*
X112103015Y-83024109D01*
X112103015Y-83024109D02*
X112103015Y-83132966D01*
X112103015Y-83132966D02*
X112066729Y-83278109D01*
X112066729Y-83278109D02*
X112030443Y-83350681D01*
X112030443Y-83350681D02*
X111957872Y-83423252D01*
X111957872Y-83423252D02*
X111849015Y-83459538D01*
X111849015Y-83459538D02*
X111776443Y-83459538D01*
X111776443Y-83459538D02*
X111667586Y-83423252D01*
X111667586Y-83423252D02*
X111631300Y-83386966D01*
X111159586Y-83459538D02*
X111014443Y-83459538D01*
X111014443Y-83459538D02*
X110941872Y-83423252D01*
X110941872Y-83423252D02*
X110869300Y-83350681D01*
X110869300Y-83350681D02*
X110833015Y-83205538D01*
X110833015Y-83205538D02*
X110833015Y-82951538D01*
X110833015Y-82951538D02*
X110869300Y-82806395D01*
X110869300Y-82806395D02*
X110941872Y-82733824D01*
X110941872Y-82733824D02*
X111014443Y-82697538D01*
X111014443Y-82697538D02*
X111159586Y-82697538D01*
X111159586Y-82697538D02*
X111232158Y-82733824D01*
X111232158Y-82733824D02*
X111304729Y-82806395D01*
X111304729Y-82806395D02*
X111341015Y-82951538D01*
X111341015Y-82951538D02*
X111341015Y-83205538D01*
X111341015Y-83205538D02*
X111304729Y-83350681D01*
X111304729Y-83350681D02*
X111232158Y-83423252D01*
X111232158Y-83423252D02*
X111159586Y-83459538D01*
X110506443Y-82697538D02*
X110506443Y-83459538D01*
X110506443Y-83459538D02*
X110071014Y-82697538D01*
X110071014Y-82697538D02*
X110071014Y-83459538D01*
X100934719Y-78016681D02*
X100825862Y-77980395D01*
X100825862Y-77980395D02*
X100789576Y-77944109D01*
X100789576Y-77944109D02*
X100753290Y-77871538D01*
X100753290Y-77871538D02*
X100753290Y-77762681D01*
X100753290Y-77762681D02*
X100789576Y-77690109D01*
X100789576Y-77690109D02*
X100825862Y-77653824D01*
X100825862Y-77653824D02*
X100898433Y-77617538D01*
X100898433Y-77617538D02*
X101188719Y-77617538D01*
X101188719Y-77617538D02*
X101188719Y-78379538D01*
X101188719Y-78379538D02*
X100934719Y-78379538D01*
X100934719Y-78379538D02*
X100862148Y-78343252D01*
X100862148Y-78343252D02*
X100825862Y-78306966D01*
X100825862Y-78306966D02*
X100789576Y-78234395D01*
X100789576Y-78234395D02*
X100789576Y-78161824D01*
X100789576Y-78161824D02*
X100825862Y-78089252D01*
X100825862Y-78089252D02*
X100862148Y-78052966D01*
X100862148Y-78052966D02*
X100934719Y-78016681D01*
X100934719Y-78016681D02*
X101188719Y-78016681D01*
X101297555Y-75295252D02*
X100934698Y-75295252D01*
X101370126Y-75077538D02*
X101116126Y-75839538D01*
X101116126Y-75839538D02*
X100862126Y-75077538D01*
X112175586Y-78379538D02*
X111740158Y-78379538D01*
X111957872Y-77617538D02*
X111957872Y-78379538D01*
X111558729Y-78379538D02*
X111050729Y-77617538D01*
X111050729Y-78379538D02*
X111558729Y-77617538D01*
X110760444Y-77617538D02*
X110760444Y-78379538D01*
X110760444Y-78379538D02*
X110579015Y-78379538D01*
X110579015Y-78379538D02*
X110470158Y-78343252D01*
X110470158Y-78343252D02*
X110397587Y-78270681D01*
X110397587Y-78270681D02*
X110361301Y-78198109D01*
X110361301Y-78198109D02*
X110325015Y-78052966D01*
X110325015Y-78052966D02*
X110325015Y-77944109D01*
X110325015Y-77944109D02*
X110361301Y-77798966D01*
X110361301Y-77798966D02*
X110397587Y-77726395D01*
X110397587Y-77726395D02*
X110470158Y-77653824D01*
X110470158Y-77653824D02*
X110579015Y-77617538D01*
X110579015Y-77617538D02*
X110760444Y-77617538D01*
X112175586Y-73299538D02*
X111921586Y-72537538D01*
X111921586Y-72537538D02*
X111667586Y-73299538D01*
X110978157Y-72610109D02*
X111014443Y-72573824D01*
X111014443Y-72573824D02*
X111123300Y-72537538D01*
X111123300Y-72537538D02*
X111195872Y-72537538D01*
X111195872Y-72537538D02*
X111304729Y-72573824D01*
X111304729Y-72573824D02*
X111377300Y-72646395D01*
X111377300Y-72646395D02*
X111413586Y-72718966D01*
X111413586Y-72718966D02*
X111449872Y-72864109D01*
X111449872Y-72864109D02*
X111449872Y-72972966D01*
X111449872Y-72972966D02*
X111413586Y-73118109D01*
X111413586Y-73118109D02*
X111377300Y-73190681D01*
X111377300Y-73190681D02*
X111304729Y-73263252D01*
X111304729Y-73263252D02*
X111195872Y-73299538D01*
X111195872Y-73299538D02*
X111123300Y-73299538D01*
X111123300Y-73299538D02*
X111014443Y-73263252D01*
X111014443Y-73263252D02*
X110978157Y-73226966D01*
X110216157Y-72610109D02*
X110252443Y-72573824D01*
X110252443Y-72573824D02*
X110361300Y-72537538D01*
X110361300Y-72537538D02*
X110433872Y-72537538D01*
X110433872Y-72537538D02*
X110542729Y-72573824D01*
X110542729Y-72573824D02*
X110615300Y-72646395D01*
X110615300Y-72646395D02*
X110651586Y-72718966D01*
X110651586Y-72718966D02*
X110687872Y-72864109D01*
X110687872Y-72864109D02*
X110687872Y-72972966D01*
X110687872Y-72972966D02*
X110651586Y-73118109D01*
X110651586Y-73118109D02*
X110615300Y-73190681D01*
X110615300Y-73190681D02*
X110542729Y-73263252D01*
X110542729Y-73263252D02*
X110433872Y-73299538D01*
X110433872Y-73299538D02*
X110361300Y-73299538D01*
X110361300Y-73299538D02*
X110252443Y-73263252D01*
X110252443Y-73263252D02*
X110216157Y-73226966D01*
X106587586Y-82443538D02*
X106152158Y-82443538D01*
X106369872Y-81681538D02*
X106369872Y-82443538D01*
X105898158Y-81681538D02*
X105898158Y-82443538D01*
X105898158Y-82443538D02*
X105716729Y-82443538D01*
X105716729Y-82443538D02*
X105607872Y-82407252D01*
X105607872Y-82407252D02*
X105535301Y-82334681D01*
X105535301Y-82334681D02*
X105499015Y-82262109D01*
X105499015Y-82262109D02*
X105462729Y-82116966D01*
X105462729Y-82116966D02*
X105462729Y-82008109D01*
X105462729Y-82008109D02*
X105499015Y-81862966D01*
X105499015Y-81862966D02*
X105535301Y-81790395D01*
X105535301Y-81790395D02*
X105607872Y-81717824D01*
X105607872Y-81717824D02*
X105716729Y-81681538D01*
X105716729Y-81681538D02*
X105898158Y-81681538D01*
X105136158Y-81681538D02*
X105136158Y-82443538D01*
X105136158Y-82080681D02*
X104700729Y-82080681D01*
X104700729Y-81681538D02*
X104700729Y-82443538D01*
X103975015Y-82443538D02*
X104337872Y-82443538D01*
X104337872Y-82443538D02*
X104374158Y-82080681D01*
X104374158Y-82080681D02*
X104337872Y-82116966D01*
X104337872Y-82116966D02*
X104265301Y-82153252D01*
X104265301Y-82153252D02*
X104083872Y-82153252D01*
X104083872Y-82153252D02*
X104011301Y-82116966D01*
X104011301Y-82116966D02*
X103975015Y-82080681D01*
X103975015Y-82080681D02*
X103938729Y-82008109D01*
X103938729Y-82008109D02*
X103938729Y-81826681D01*
X103938729Y-81826681D02*
X103975015Y-81754109D01*
X103975015Y-81754109D02*
X104011301Y-81717824D01*
X104011301Y-81717824D02*
X104083872Y-81681538D01*
X104083872Y-81681538D02*
X104265301Y-81681538D01*
X104265301Y-81681538D02*
X104337872Y-81717824D01*
X104337872Y-81717824D02*
X104374158Y-81754109D01*
X103394444Y-81391252D02*
X103430729Y-81427538D01*
X103430729Y-81427538D02*
X103503301Y-81536395D01*
X103503301Y-81536395D02*
X103539587Y-81608966D01*
X103539587Y-81608966D02*
X103575872Y-81717824D01*
X103575872Y-81717824D02*
X103612158Y-81899252D01*
X103612158Y-81899252D02*
X103612158Y-82044395D01*
X103612158Y-82044395D02*
X103575872Y-82225824D01*
X103575872Y-82225824D02*
X103539587Y-82334681D01*
X103539587Y-82334681D02*
X103503301Y-82407252D01*
X103503301Y-82407252D02*
X103430729Y-82516109D01*
X103430729Y-82516109D02*
X103394444Y-82552395D01*
X103176729Y-82443538D02*
X102705015Y-82443538D01*
X102705015Y-82443538D02*
X102959015Y-82153252D01*
X102959015Y-82153252D02*
X102850158Y-82153252D01*
X102850158Y-82153252D02*
X102777587Y-82116966D01*
X102777587Y-82116966D02*
X102741301Y-82080681D01*
X102741301Y-82080681D02*
X102705015Y-82008109D01*
X102705015Y-82008109D02*
X102705015Y-81826681D01*
X102705015Y-81826681D02*
X102741301Y-81754109D01*
X102741301Y-81754109D02*
X102777587Y-81717824D01*
X102777587Y-81717824D02*
X102850158Y-81681538D01*
X102850158Y-81681538D02*
X103067872Y-81681538D01*
X103067872Y-81681538D02*
X103140444Y-81717824D01*
X103140444Y-81717824D02*
X103176729Y-81754109D01*
X102451015Y-81391252D02*
X102414730Y-81427538D01*
X102414730Y-81427538D02*
X102342158Y-81536395D01*
X102342158Y-81536395D02*
X102305873Y-81608966D01*
X102305873Y-81608966D02*
X102269587Y-81717824D01*
X102269587Y-81717824D02*
X102233301Y-81899252D01*
X102233301Y-81899252D02*
X102233301Y-82044395D01*
X102233301Y-82044395D02*
X102269587Y-82225824D01*
X102269587Y-82225824D02*
X102305873Y-82334681D01*
X102305873Y-82334681D02*
X102342158Y-82407252D01*
X102342158Y-82407252D02*
X102414730Y-82516109D01*
X102414730Y-82516109D02*
X102451015Y-82552395D01*
X101725301Y-82443538D02*
X101652730Y-82443538D01*
X101652730Y-82443538D02*
X101580158Y-82407252D01*
X101580158Y-82407252D02*
X101543873Y-82370966D01*
X101543873Y-82370966D02*
X101507587Y-82298395D01*
X101507587Y-82298395D02*
X101471301Y-82153252D01*
X101471301Y-82153252D02*
X101471301Y-81971824D01*
X101471301Y-81971824D02*
X101507587Y-81826681D01*
X101507587Y-81826681D02*
X101543873Y-81754109D01*
X101543873Y-81754109D02*
X101580158Y-81717824D01*
X101580158Y-81717824D02*
X101652730Y-81681538D01*
X101652730Y-81681538D02*
X101725301Y-81681538D01*
X101725301Y-81681538D02*
X101797873Y-81717824D01*
X101797873Y-81717824D02*
X101834158Y-81754109D01*
X101834158Y-81754109D02*
X101870444Y-81826681D01*
X101870444Y-81826681D02*
X101906730Y-81971824D01*
X101906730Y-81971824D02*
X101906730Y-82153252D01*
X101906730Y-82153252D02*
X101870444Y-82298395D01*
X101870444Y-82298395D02*
X101834158Y-82370966D01*
X101834158Y-82370966D02*
X101797873Y-82407252D01*
X101797873Y-82407252D02*
X101725301Y-82443538D01*
X100745587Y-81681538D02*
X101181016Y-81681538D01*
X100963301Y-81681538D02*
X100963301Y-82443538D01*
X100963301Y-82443538D02*
X101035873Y-82334681D01*
X101035873Y-82334681D02*
X101108444Y-82262109D01*
X101108444Y-82262109D02*
X101181016Y-82225824D01*
X100419016Y-81681538D02*
X100419016Y-82443538D01*
X100419016Y-82443538D02*
X100237587Y-82443538D01*
X100237587Y-82443538D02*
X100128730Y-82407252D01*
X100128730Y-82407252D02*
X100056159Y-82334681D01*
X100056159Y-82334681D02*
X100019873Y-82262109D01*
X100019873Y-82262109D02*
X99983587Y-82116966D01*
X99983587Y-82116966D02*
X99983587Y-82008109D01*
X99983587Y-82008109D02*
X100019873Y-81862966D01*
X100019873Y-81862966D02*
X100056159Y-81790395D01*
X100056159Y-81790395D02*
X100128730Y-81717824D01*
X100128730Y-81717824D02*
X100237587Y-81681538D01*
X100237587Y-81681538D02*
X100419016Y-81681538D01*
X99330445Y-82189538D02*
X99330445Y-81681538D01*
X99511873Y-82479824D02*
X99693302Y-81935538D01*
X99693302Y-81935538D02*
X99221587Y-81935538D01*
X98822445Y-82116966D02*
X98895016Y-82153252D01*
X98895016Y-82153252D02*
X98931302Y-82189538D01*
X98931302Y-82189538D02*
X98967588Y-82262109D01*
X98967588Y-82262109D02*
X98967588Y-82298395D01*
X98967588Y-82298395D02*
X98931302Y-82370966D01*
X98931302Y-82370966D02*
X98895016Y-82407252D01*
X98895016Y-82407252D02*
X98822445Y-82443538D01*
X98822445Y-82443538D02*
X98677302Y-82443538D01*
X98677302Y-82443538D02*
X98604731Y-82407252D01*
X98604731Y-82407252D02*
X98568445Y-82370966D01*
X98568445Y-82370966D02*
X98532159Y-82298395D01*
X98532159Y-82298395D02*
X98532159Y-82262109D01*
X98532159Y-82262109D02*
X98568445Y-82189538D01*
X98568445Y-82189538D02*
X98604731Y-82153252D01*
X98604731Y-82153252D02*
X98677302Y-82116966D01*
X98677302Y-82116966D02*
X98822445Y-82116966D01*
X98822445Y-82116966D02*
X98895016Y-82080681D01*
X98895016Y-82080681D02*
X98931302Y-82044395D01*
X98931302Y-82044395D02*
X98967588Y-81971824D01*
X98967588Y-81971824D02*
X98967588Y-81826681D01*
X98967588Y-81826681D02*
X98931302Y-81754109D01*
X98931302Y-81754109D02*
X98895016Y-81717824D01*
X98895016Y-81717824D02*
X98822445Y-81681538D01*
X98822445Y-81681538D02*
X98677302Y-81681538D01*
X98677302Y-81681538D02*
X98604731Y-81717824D01*
X98604731Y-81717824D02*
X98568445Y-81754109D01*
X98568445Y-81754109D02*
X98532159Y-81826681D01*
X98532159Y-81826681D02*
X98532159Y-81971824D01*
X98532159Y-81971824D02*
X98568445Y-82044395D01*
X98568445Y-82044395D02*
X98604731Y-82080681D01*
X98604731Y-82080681D02*
X98677302Y-82116966D01*
X97842731Y-82443538D02*
X98205588Y-82443538D01*
X98205588Y-82443538D02*
X98241874Y-82080681D01*
X98241874Y-82080681D02*
X98205588Y-82116966D01*
X98205588Y-82116966D02*
X98133017Y-82153252D01*
X98133017Y-82153252D02*
X97951588Y-82153252D01*
X97951588Y-82153252D02*
X97879017Y-82116966D01*
X97879017Y-82116966D02*
X97842731Y-82080681D01*
X97842731Y-82080681D02*
X97806445Y-82008109D01*
X97806445Y-82008109D02*
X97806445Y-81826681D01*
X97806445Y-81826681D02*
X97842731Y-81754109D01*
X97842731Y-81754109D02*
X97879017Y-81717824D01*
X97879017Y-81717824D02*
X97951588Y-81681538D01*
X97951588Y-81681538D02*
X98133017Y-81681538D01*
X98133017Y-81681538D02*
X98205588Y-81717824D01*
X98205588Y-81717824D02*
X98241874Y-81754109D01*
X97479874Y-81681538D02*
X97479874Y-82443538D01*
X97479874Y-82080681D02*
X97044445Y-82080681D01*
X97044445Y-81681538D02*
X97044445Y-82443538D01*
X111667586Y-75803252D02*
X111740158Y-75839538D01*
X111740158Y-75839538D02*
X111849015Y-75839538D01*
X111849015Y-75839538D02*
X111957872Y-75803252D01*
X111957872Y-75803252D02*
X112030443Y-75730681D01*
X112030443Y-75730681D02*
X112066729Y-75658109D01*
X112066729Y-75658109D02*
X112103015Y-75512966D01*
X112103015Y-75512966D02*
X112103015Y-75404109D01*
X112103015Y-75404109D02*
X112066729Y-75258966D01*
X112066729Y-75258966D02*
X112030443Y-75186395D01*
X112030443Y-75186395D02*
X111957872Y-75113824D01*
X111957872Y-75113824D02*
X111849015Y-75077538D01*
X111849015Y-75077538D02*
X111776443Y-75077538D01*
X111776443Y-75077538D02*
X111667586Y-75113824D01*
X111667586Y-75113824D02*
X111631300Y-75150109D01*
X111631300Y-75150109D02*
X111631300Y-75404109D01*
X111631300Y-75404109D02*
X111776443Y-75404109D01*
X111304729Y-75077538D02*
X111304729Y-75839538D01*
X111304729Y-75839538D02*
X110869300Y-75077538D01*
X110869300Y-75077538D02*
X110869300Y-75839538D01*
X110506443Y-75077538D02*
X110506443Y-75839538D01*
X110506443Y-75839538D02*
X110325014Y-75839538D01*
X110325014Y-75839538D02*
X110216157Y-75803252D01*
X110216157Y-75803252D02*
X110143586Y-75730681D01*
X110143586Y-75730681D02*
X110107300Y-75658109D01*
X110107300Y-75658109D02*
X110071014Y-75512966D01*
X110071014Y-75512966D02*
X110071014Y-75404109D01*
X110071014Y-75404109D02*
X110107300Y-75258966D01*
X110107300Y-75258966D02*
X110143586Y-75186395D01*
X110143586Y-75186395D02*
X110216157Y-75113824D01*
X110216157Y-75113824D02*
X110325014Y-75077538D01*
X110325014Y-75077538D02*
X110506443Y-75077538D01*
X111631300Y-80157538D02*
X111885300Y-80520395D01*
X112066729Y-80157538D02*
X112066729Y-80919538D01*
X112066729Y-80919538D02*
X111776443Y-80919538D01*
X111776443Y-80919538D02*
X111703872Y-80883252D01*
X111703872Y-80883252D02*
X111667586Y-80846966D01*
X111667586Y-80846966D02*
X111631300Y-80774395D01*
X111631300Y-80774395D02*
X111631300Y-80665538D01*
X111631300Y-80665538D02*
X111667586Y-80592966D01*
X111667586Y-80592966D02*
X111703872Y-80556681D01*
X111703872Y-80556681D02*
X111776443Y-80520395D01*
X111776443Y-80520395D02*
X112066729Y-80520395D01*
X111377300Y-80919538D02*
X110869300Y-80157538D01*
X110869300Y-80919538D02*
X111377300Y-80157538D01*
X110579015Y-80157538D02*
X110579015Y-80919538D01*
X110579015Y-80919538D02*
X110397586Y-80919538D01*
X110397586Y-80919538D02*
X110288729Y-80883252D01*
X110288729Y-80883252D02*
X110216158Y-80810681D01*
X110216158Y-80810681D02*
X110179872Y-80738109D01*
X110179872Y-80738109D02*
X110143586Y-80592966D01*
X110143586Y-80592966D02*
X110143586Y-80484109D01*
X110143586Y-80484109D02*
X110179872Y-80338966D01*
X110179872Y-80338966D02*
X110216158Y-80266395D01*
X110216158Y-80266395D02*
X110288729Y-80193824D01*
X110288729Y-80193824D02*
X110397586Y-80157538D01*
X110397586Y-80157538D02*
X110579015Y-80157538D01*
X102868300Y-72537538D02*
X103122300Y-72900395D01*
X103303729Y-72537538D02*
X103303729Y-73299538D01*
X103303729Y-73299538D02*
X103013443Y-73299538D01*
X103013443Y-73299538D02*
X102940872Y-73263252D01*
X102940872Y-73263252D02*
X102904586Y-73226966D01*
X102904586Y-73226966D02*
X102868300Y-73154395D01*
X102868300Y-73154395D02*
X102868300Y-73045538D01*
X102868300Y-73045538D02*
X102904586Y-72972966D01*
X102904586Y-72972966D02*
X102940872Y-72936681D01*
X102940872Y-72936681D02*
X103013443Y-72900395D01*
X103013443Y-72900395D02*
X103303729Y-72900395D01*
X102142586Y-73263252D02*
X102215158Y-73299538D01*
X102215158Y-73299538D02*
X102324015Y-73299538D01*
X102324015Y-73299538D02*
X102432872Y-73263252D01*
X102432872Y-73263252D02*
X102505443Y-73190681D01*
X102505443Y-73190681D02*
X102541729Y-73118109D01*
X102541729Y-73118109D02*
X102578015Y-72972966D01*
X102578015Y-72972966D02*
X102578015Y-72864109D01*
X102578015Y-72864109D02*
X102541729Y-72718966D01*
X102541729Y-72718966D02*
X102505443Y-72646395D01*
X102505443Y-72646395D02*
X102432872Y-72573824D01*
X102432872Y-72573824D02*
X102324015Y-72537538D01*
X102324015Y-72537538D02*
X102251443Y-72537538D01*
X102251443Y-72537538D02*
X102142586Y-72573824D01*
X102142586Y-72573824D02*
X102106300Y-72610109D01*
X102106300Y-72610109D02*
X102106300Y-72864109D01*
X102106300Y-72864109D02*
X102251443Y-72864109D01*
X101779729Y-72537538D02*
X101779729Y-73299538D01*
X101779729Y-73299538D02*
X101344300Y-72537538D01*
X101344300Y-72537538D02*
X101344300Y-73299538D01*
X100981443Y-72537538D02*
X100981443Y-73299538D01*
X100981443Y-73299538D02*
X100800014Y-73299538D01*
X100800014Y-73299538D02*
X100691157Y-73263252D01*
X100691157Y-73263252D02*
X100618586Y-73190681D01*
X100618586Y-73190681D02*
X100582300Y-73118109D01*
X100582300Y-73118109D02*
X100546014Y-72972966D01*
X100546014Y-72972966D02*
X100546014Y-72864109D01*
X100546014Y-72864109D02*
X100582300Y-72718966D01*
X100582300Y-72718966D02*
X100618586Y-72646395D01*
X100618586Y-72646395D02*
X100691157Y-72573824D01*
X100691157Y-72573824D02*
X100800014Y-72537538D01*
X100800014Y-72537538D02*
X100981443Y-72537538D01*
D12*
X94354819Y-76383333D02*
X95069104Y-76383333D01*
X95069104Y-76383333D02*
X95211961Y-76430952D01*
X95211961Y-76430952D02*
X95307200Y-76526190D01*
X95307200Y-76526190D02*
X95354819Y-76669047D01*
X95354819Y-76669047D02*
X95354819Y-76764285D01*
X95354819Y-75907142D02*
X94354819Y-75907142D01*
X94354819Y-75907142D02*
X94354819Y-75526190D01*
X94354819Y-75526190D02*
X94402438Y-75430952D01*
X94402438Y-75430952D02*
X94450057Y-75383333D01*
X94450057Y-75383333D02*
X94545295Y-75335714D01*
X94545295Y-75335714D02*
X94688152Y-75335714D01*
X94688152Y-75335714D02*
X94783390Y-75383333D01*
X94783390Y-75383333D02*
X94831009Y-75430952D01*
X94831009Y-75430952D02*
X94878628Y-75526190D01*
X94878628Y-75526190D02*
X94878628Y-75907142D01*
X95354819Y-74383333D02*
X95354819Y-74954761D01*
X95354819Y-74669047D02*
X94354819Y-74669047D01*
X94354819Y-74669047D02*
X94497676Y-74764285D01*
X94497676Y-74764285D02*
X94592914Y-74859523D01*
X94592914Y-74859523D02*
X94640533Y-74954761D01*
X90454819Y-70333333D02*
X91169104Y-70333333D01*
X91169104Y-70333333D02*
X91311961Y-70380952D01*
X91311961Y-70380952D02*
X91407200Y-70476190D01*
X91407200Y-70476190D02*
X91454819Y-70619047D01*
X91454819Y-70619047D02*
X91454819Y-70714285D01*
X90454819Y-69952380D02*
X90454819Y-69333333D01*
X90454819Y-69333333D02*
X90835771Y-69666666D01*
X90835771Y-69666666D02*
X90835771Y-69523809D01*
X90835771Y-69523809D02*
X90883390Y-69428571D01*
X90883390Y-69428571D02*
X90931009Y-69380952D01*
X90931009Y-69380952D02*
X91026247Y-69333333D01*
X91026247Y-69333333D02*
X91264342Y-69333333D01*
X91264342Y-69333333D02*
X91359580Y-69380952D01*
X91359580Y-69380952D02*
X91407200Y-69428571D01*
X91407200Y-69428571D02*
X91454819Y-69523809D01*
X91454819Y-69523809D02*
X91454819Y-69809523D01*
X91454819Y-69809523D02*
X91407200Y-69904761D01*
X91407200Y-69904761D02*
X91359580Y-69952380D01*
X92933333Y-79704819D02*
X92600000Y-79228628D01*
X92361905Y-79704819D02*
X92361905Y-78704819D01*
X92361905Y-78704819D02*
X92742857Y-78704819D01*
X92742857Y-78704819D02*
X92838095Y-78752438D01*
X92838095Y-78752438D02*
X92885714Y-78800057D01*
X92885714Y-78800057D02*
X92933333Y-78895295D01*
X92933333Y-78895295D02*
X92933333Y-79038152D01*
X92933333Y-79038152D02*
X92885714Y-79133390D01*
X92885714Y-79133390D02*
X92838095Y-79181009D01*
X92838095Y-79181009D02*
X92742857Y-79228628D01*
X92742857Y-79228628D02*
X92361905Y-79228628D01*
X93266667Y-78704819D02*
X93885714Y-78704819D01*
X93885714Y-78704819D02*
X93552381Y-79085771D01*
X93552381Y-79085771D02*
X93695238Y-79085771D01*
X93695238Y-79085771D02*
X93790476Y-79133390D01*
X93790476Y-79133390D02*
X93838095Y-79181009D01*
X93838095Y-79181009D02*
X93885714Y-79276247D01*
X93885714Y-79276247D02*
X93885714Y-79514342D01*
X93885714Y-79514342D02*
X93838095Y-79609580D01*
X93838095Y-79609580D02*
X93790476Y-79657200D01*
X93790476Y-79657200D02*
X93695238Y-79704819D01*
X93695238Y-79704819D02*
X93409524Y-79704819D01*
X93409524Y-79704819D02*
X93314286Y-79657200D01*
X93314286Y-79657200D02*
X93266667Y-79609580D01*
X136538095Y-67754819D02*
X136538095Y-68564342D01*
X136538095Y-68564342D02*
X136585714Y-68659580D01*
X136585714Y-68659580D02*
X136633333Y-68707200D01*
X136633333Y-68707200D02*
X136728571Y-68754819D01*
X136728571Y-68754819D02*
X136919047Y-68754819D01*
X136919047Y-68754819D02*
X137014285Y-68707200D01*
X137014285Y-68707200D02*
X137061904Y-68659580D01*
X137061904Y-68659580D02*
X137109523Y-68564342D01*
X137109523Y-68564342D02*
X137109523Y-67754819D01*
X137538095Y-67850057D02*
X137585714Y-67802438D01*
X137585714Y-67802438D02*
X137680952Y-67754819D01*
X137680952Y-67754819D02*
X137919047Y-67754819D01*
X137919047Y-67754819D02*
X138014285Y-67802438D01*
X138014285Y-67802438D02*
X138061904Y-67850057D01*
X138061904Y-67850057D02*
X138109523Y-67945295D01*
X138109523Y-67945295D02*
X138109523Y-68040533D01*
X138109523Y-68040533D02*
X138061904Y-68183390D01*
X138061904Y-68183390D02*
X137490476Y-68754819D01*
X137490476Y-68754819D02*
X138109523Y-68754819D01*
X122365136Y-65852352D02*
X122365136Y-66569917D01*
X122365136Y-66569917D02*
X122317298Y-66713430D01*
X122317298Y-66713430D02*
X122221623Y-66809106D01*
X122221623Y-66809106D02*
X122078110Y-66856943D01*
X122078110Y-66856943D02*
X121982435Y-66856943D01*
X123369727Y-66856943D02*
X122795675Y-66856943D01*
X123082701Y-66856943D02*
X123082701Y-65852352D01*
X123082701Y-65852352D02*
X122987026Y-65995865D01*
X122987026Y-65995865D02*
X122891351Y-66091541D01*
X122891351Y-66091541D02*
X122795675Y-66139378D01*
X165784819Y-90121904D02*
X166594342Y-90121904D01*
X166594342Y-90121904D02*
X166689580Y-90074285D01*
X166689580Y-90074285D02*
X166737200Y-90026666D01*
X166737200Y-90026666D02*
X166784819Y-89931428D01*
X166784819Y-89931428D02*
X166784819Y-89740952D01*
X166784819Y-89740952D02*
X166737200Y-89645714D01*
X166737200Y-89645714D02*
X166689580Y-89598095D01*
X166689580Y-89598095D02*
X166594342Y-89550476D01*
X166594342Y-89550476D02*
X165784819Y-89550476D01*
X166784819Y-88550476D02*
X166784819Y-89121904D01*
X166784819Y-88836190D02*
X165784819Y-88836190D01*
X165784819Y-88836190D02*
X165927676Y-88931428D01*
X165927676Y-88931428D02*
X166022914Y-89026666D01*
X166022914Y-89026666D02*
X166070533Y-89121904D01*
D14*
%TO.C,R2*%
X168227064Y-66265000D02*
X167772936Y-66265000D01*
X168227064Y-67735000D02*
X167772936Y-67735000D01*
%TO.C,D2*%
X161540000Y-66040000D02*
X161540000Y-67960000D01*
X161540000Y-67960000D02*
X164400000Y-67960000D01*
X164400000Y-66040000D02*
X161540000Y-66040000D01*
%TO.C,R1*%
X115227064Y-66265000D02*
X114772936Y-66265000D01*
X115227064Y-67735000D02*
X114772936Y-67735000D01*
%TO.C,D1*%
X108140000Y-66040000D02*
X108140000Y-67960000D01*
X108140000Y-67960000D02*
X111000000Y-67960000D01*
X111000000Y-66040000D02*
X108140000Y-66040000D01*
D15*
%TO.C,U3*%
X96350000Y-69150000D02*
X96350000Y-86650000D01*
X114449310Y-69150000D02*
X96350000Y-69150000D01*
X116850000Y-71550690D02*
X114449310Y-69150000D01*
X116850000Y-71550690D02*
X116850000Y-86650000D01*
X116850000Y-86650000D02*
X96350000Y-86650000D01*
D16*
X119249910Y-72693000D02*
G75*
G02*
X118334090Y-72693000I-457910J0D01*
G01*
X118334090Y-72693000D02*
G75*
G02*
X119249910Y-72693000I457910J0D01*
G01*
D12*
%TO.C,JP1*%
X92000000Y-73720000D02*
X92500000Y-73220000D01*
X92000000Y-77320000D02*
X92000000Y-73720000D01*
X92500000Y-73220000D02*
X93300000Y-73220000D01*
X92500000Y-77820000D02*
X92000000Y-77320000D01*
X93300000Y-73220000D02*
X93800000Y-73720000D01*
X93300000Y-77820000D02*
X92500000Y-77820000D01*
X93800000Y-73720000D02*
X93800000Y-77320000D01*
X93800000Y-77320000D02*
X93300000Y-77820000D01*
D14*
%TO.C,J3*%
X79740000Y-69840000D02*
X88860000Y-69840000D01*
X79740000Y-84960000D02*
X79740000Y-69840000D01*
X79740000Y-84960000D02*
X88860000Y-84960000D01*
X83525000Y-71330000D02*
X83584000Y-71389000D01*
X83525000Y-76330000D02*
X83584000Y-76389000D01*
X83731000Y-71125000D02*
X83824000Y-71219000D01*
X83731000Y-76125000D02*
X83824000Y-76219000D01*
X85776000Y-73580000D02*
X85869000Y-73674000D01*
X85776000Y-78580000D02*
X85869000Y-78674000D01*
X86016000Y-73410000D02*
X86074000Y-73469000D01*
X86016000Y-78410000D02*
X86074000Y-78469000D01*
X87300000Y-84960000D02*
X87300000Y-69840000D01*
X87360000Y-85200000D02*
X89100000Y-85200000D01*
X88860000Y-84960000D02*
X88860000Y-69840000D01*
X89100000Y-85200000D02*
X89100000Y-83700000D01*
X83316047Y-83189089D02*
G75*
G02*
X83316000Y-81611000I1483948J789089D01*
G01*
X84010911Y-80916047D02*
G75*
G02*
X85589000Y-80916000I789089J-1483953D01*
G01*
X85589089Y-83883953D02*
G75*
G02*
X84011000Y-83884000I-789089J1483948D01*
G01*
X86283352Y-81611288D02*
G75*
G02*
X86480000Y-82400000I-1483352J-788712D01*
G01*
X86480450Y-82370617D02*
G75*
G02*
X86284000Y-83189000I-1680445J-29385D01*
G01*
X82700000Y-72400000D02*
G75*
G02*
X80900000Y-72400000I-900000J0D01*
G01*
X80900000Y-72400000D02*
G75*
G02*
X82700000Y-72400000I900000J0D01*
G01*
X82700000Y-77400000D02*
G75*
G02*
X80900000Y-77400000I-900000J0D01*
G01*
X80900000Y-77400000D02*
G75*
G02*
X82700000Y-77400000I900000J0D01*
G01*
X82700000Y-82400000D02*
G75*
G02*
X80900000Y-82400000I-900000J0D01*
G01*
X80900000Y-82400000D02*
G75*
G02*
X82700000Y-82400000I900000J0D01*
G01*
X86480000Y-72400000D02*
G75*
G02*
X83120000Y-72400000I-1680000J0D01*
G01*
X83120000Y-72400000D02*
G75*
G02*
X86480000Y-72400000I1680000J0D01*
G01*
X86480000Y-77400000D02*
G75*
G02*
X83120000Y-77400000I-1680000J0D01*
G01*
X83120000Y-77400000D02*
G75*
G02*
X86480000Y-77400000I1680000J0D01*
G01*
%TO.C,R3*%
X92872936Y-80165000D02*
X93327064Y-80165000D01*
X92872936Y-81635000D02*
X93327064Y-81635000D01*
%TO.C,U2*%
X140710000Y-68375000D02*
X141662500Y-67422500D01*
X140710000Y-69010000D02*
X140710000Y-68375000D01*
X140710000Y-86790000D02*
X140710000Y-88377500D01*
X140710000Y-88377500D02*
X158490000Y-88377500D01*
X141662500Y-67422500D02*
X158490000Y-67422500D01*
X158490000Y-67422500D02*
X158490000Y-69010000D01*
X158490000Y-88377500D02*
X158490000Y-86790000D01*
D17*
%TO.C,J1*%
X127000000Y-71950000D02*
X127000000Y-78150000D01*
X127000000Y-81800000D02*
X127000000Y-82750000D01*
X127500000Y-65750000D02*
X127500000Y-66550000D01*
X132500000Y-65750000D02*
X127500000Y-65750000D01*
X132500000Y-67250000D02*
X128050000Y-67250000D01*
X132500000Y-67250000D02*
X132500000Y-65750000D01*
X133000000Y-67250000D02*
X132500000Y-67250000D01*
X133000000Y-70950000D02*
X133000000Y-67250000D01*
X133000000Y-82750000D02*
X127000000Y-82750000D01*
X133000000Y-82750000D02*
X133000000Y-73950000D01*
D18*
X126450000Y-66000000D02*
G75*
G02*
X126050000Y-66000000I-200000J0D01*
G01*
X126050000Y-66000000D02*
G75*
G02*
X126450000Y-66000000I200000J0D01*
G01*
D14*
%TO.C,U1*%
X170970000Y-69030000D02*
X170970000Y-67700000D01*
X170970000Y-89330000D02*
X170970000Y-88000000D01*
X172300000Y-69030000D02*
X170970000Y-69030000D01*
X172300000Y-89330000D02*
X170970000Y-89330000D01*
X173570000Y-66370000D02*
X186330000Y-66370000D01*
X173570000Y-69030000D02*
X173570000Y-66370000D01*
X173570000Y-69030000D02*
X186330000Y-69030000D01*
X173570000Y-86670000D02*
X186330000Y-86670000D01*
X173570000Y-89330000D02*
X173570000Y-86670000D01*
X173570000Y-89330000D02*
X186330000Y-89330000D01*
X186330000Y-69030000D02*
X186330000Y-66370000D01*
X186330000Y-89330000D02*
X186330000Y-86670000D01*
%TD*%
D19*
X114220000Y-72820000D03*
X114220000Y-75360000D03*
X114220000Y-77900000D03*
X114220000Y-80440000D03*
X114220000Y-82980000D03*
X98980000Y-77900000D03*
X98980000Y-75360000D03*
X98980000Y-72820000D03*
X92900000Y-74250000D03*
X92900000Y-76790000D03*
X84800000Y-82400000D03*
X84800000Y-77400000D03*
X84800000Y-72400000D03*
X141980000Y-70280000D03*
X141980000Y-72820000D03*
X141980000Y-75360000D03*
X141980000Y-77900000D03*
X141980000Y-80440000D03*
X141980000Y-82980000D03*
X141980000Y-85520000D03*
X157220000Y-85520000D03*
X157220000Y-82980000D03*
X157220000Y-80440000D03*
X157220000Y-77900000D03*
X157220000Y-75360000D03*
X157220000Y-72820000D03*
X157220000Y-70280000D03*
X148330000Y-69645000D03*
X150870000Y-69645000D03*
X148330000Y-72185000D03*
X150870000Y-72185000D03*
X130000000Y-71750000D03*
X130000000Y-78750000D03*
X172300000Y-88000000D03*
X174840000Y-88000000D03*
X177380000Y-88000000D03*
X179920000Y-88000000D03*
X182460000Y-88000000D03*
X185000000Y-88000000D03*
X185000000Y-67700000D03*
X182460000Y-67700000D03*
X179920000Y-67700000D03*
X177380000Y-67700000D03*
X174840000Y-67700000D03*
X172300000Y-67700000D03*
M02*
