%TF.GenerationSoftware,KiCad,Pcbnew,8.0.3*%
%TF.CreationDate,2024-07-22T20:15:04+05:30*%
%TF.ProjectId,learn_modbus_v1,6c656172-6e5f-46d6-9f64-6275735f7631,rev?*%
%TF.SameCoordinates,Original*%
%TF.FileFunction,Soldermask,Bot*%
%TF.FilePolarity,Negative*%
%FSLAX46Y46*%
G04 Gerber Fmt 4.6, Leading zero omitted, Abs format (unit mm)*
G04 Created by KiCad (PCBNEW 8.0.3) date 2024-07-22 20:15:04*
%MOMM*%
%LPD*%
G01*
G04 APERTURE LIST*
%ADD10O,2.300000X1.700000*%
%ADD11C,1.400000*%
%ADD12R,2.500000X2.500000*%
%ADD13C,2.500000*%
%ADD14C,1.500000*%
%ADD15C,1.143000*%
%ADD16C,1.700000*%
%ADD17R,1.700000X1.700000*%
%ADD18O,1.700000X1.700000*%
G04 APERTURE END LIST*
D10*
%TO.C,U3*%
X114220000Y-72820000D03*
X114220000Y-75360000D03*
X114220000Y-77900000D03*
X114220000Y-80440000D03*
X114220000Y-82980000D03*
X98980000Y-77900000D03*
X98980000Y-75360000D03*
X98980000Y-72820000D03*
%TD*%
D11*
%TO.C,JP1*%
X92900000Y-74250000D03*
X92900000Y-76790000D03*
%TD*%
D12*
%TO.C,J3*%
X84800000Y-82400000D03*
D13*
X84800000Y-77400000D03*
X84800000Y-72400000D03*
%TD*%
D14*
%TO.C,U2*%
X141980000Y-70280000D03*
X141980000Y-72820000D03*
X141980000Y-75360000D03*
X141980000Y-77900000D03*
X141980000Y-80440000D03*
X141980000Y-82980000D03*
X141980000Y-85520000D03*
X157220000Y-85520000D03*
X157220000Y-82980000D03*
X157220000Y-80440000D03*
X157220000Y-77900000D03*
X157220000Y-75360000D03*
X157220000Y-72820000D03*
X157220000Y-70280000D03*
D15*
X148330000Y-69645000D03*
X150870000Y-69645000D03*
X148330000Y-72185000D03*
X150870000Y-72185000D03*
%TD*%
D16*
%TO.C,J1*%
X130000000Y-71750000D03*
X130000000Y-78750000D03*
%TD*%
D17*
%TO.C,U1*%
X172300000Y-88000000D03*
D18*
X174840000Y-88000000D03*
X177380000Y-88000000D03*
X179920000Y-88000000D03*
X182460000Y-88000000D03*
X185000000Y-88000000D03*
X185000000Y-67700000D03*
X182460000Y-67700000D03*
X179920000Y-67700000D03*
X177380000Y-67700000D03*
X174840000Y-67700000D03*
D17*
X172300000Y-67700000D03*
%TD*%
M02*
