%TF.GenerationSoftware,KiCad,Pcbnew,8.0.3*%
%TF.CreationDate,2024-07-22T20:15:04+05:30*%
%TF.ProjectId,learn_modbus_v1,6c656172-6e5f-46d6-9f64-6275735f7631,rev?*%
%TF.SameCoordinates,Original*%
%TF.FileFunction,Copper,L2,Bot*%
%TF.FilePolarity,Positive*%
%FSLAX46Y46*%
G04 Gerber Fmt 4.6, Leading zero omitted, Abs format (unit mm)*
G04 Created by KiCad (PCBNEW 8.0.3) date 2024-07-22 20:15:04*
%MOMM*%
%LPD*%
G01*
G04 APERTURE LIST*
%TA.AperFunction,ComponentPad*%
%ADD10O,2.300000X1.700000*%
%TD*%
%TA.AperFunction,ComponentPad*%
%ADD11C,1.400000*%
%TD*%
%TA.AperFunction,ComponentPad*%
%ADD12R,2.500000X2.500000*%
%TD*%
%TA.AperFunction,ComponentPad*%
%ADD13C,2.500000*%
%TD*%
%TA.AperFunction,ComponentPad*%
%ADD14C,1.500000*%
%TD*%
%TA.AperFunction,ComponentPad*%
%ADD15C,1.143000*%
%TD*%
%TA.AperFunction,ComponentPad*%
%ADD16R,1.700000X1.700000*%
%TD*%
%TA.AperFunction,ComponentPad*%
%ADD17O,1.700000X1.700000*%
%TD*%
%TA.AperFunction,ViaPad*%
%ADD18C,0.600000*%
%TD*%
%TA.AperFunction,Conductor*%
%ADD19C,0.300000*%
%TD*%
%ADD20C,0.300000*%
%ADD21C,0.350000*%
G04 APERTURE END LIST*
D10*
%TO.P,U3,1,VCC*%
%TO.N,PWR_3V3*%
X114220000Y-72820000D03*
%TO.P,U3,2,GND*%
%TO.N,GND*%
X114220000Y-75360000D03*
%TO.P,U3,3,TXD*%
%TO.N,RTU_TX*%
X114220000Y-77900000D03*
%TO.P,U3,4,RXD*%
%TO.N,RTU_RX*%
X114220000Y-80440000D03*
%TO.P,U3,5,CON*%
%TO.N,RTU_EN*%
X114220000Y-82980000D03*
%TO.P,U3,8,B*%
%TO.N,B*%
X98980000Y-77900000D03*
%TO.P,U3,9,A*%
%TO.N,A*%
X98980000Y-75360000D03*
%TO.P,U3,10,RGND*%
%TO.N,RGND*%
X98980000Y-72820000D03*
%TD*%
D11*
%TO.P,JP1,1,A*%
%TO.N,A*%
X92900000Y-74250000D03*
%TO.P,JP1,2,B*%
%TO.N,Net-(JP1-B)*%
X92900000Y-76790000D03*
%TD*%
D12*
%TO.P,J3,1,Pin_1*%
%TO.N,B*%
X84800000Y-82400000D03*
D13*
%TO.P,J3,2,Pin_2*%
%TO.N,A*%
X84800000Y-77400000D03*
%TO.P,J3,3,Pin_3*%
%TO.N,RGND*%
X84800000Y-72400000D03*
%TD*%
D14*
%TO.P,U2,1,PA02_A0_D0*%
%TO.N,RTU_EN*%
X141980000Y-70280000D03*
%TO.P,U2,2,PA4_A1_D1*%
%TO.N,ETH_INT*%
X141980000Y-72820000D03*
%TO.P,U2,3,PA10_A2_D2*%
%TO.N,ETH_CS*%
X141980000Y-75360000D03*
%TO.P,U2,4,PA11_A3_D3*%
%TO.N,ETH_RST*%
X141980000Y-77900000D03*
%TO.P,U2,5,PA8_A4_D4_SDA*%
%TO.N,ETH_LED*%
X141980000Y-80440000D03*
%TO.P,U2,6,PA9_A5_D5_SCL*%
%TO.N,RTU_LED*%
X141980000Y-82980000D03*
%TO.P,U2,7,PB08_A6_D6_TX*%
%TO.N,RTU_RX*%
X141980000Y-85520000D03*
%TO.P,U2,8,PB09_A7_D7_RX*%
%TO.N,RTU_TX*%
X157220000Y-85520000D03*
%TO.P,U2,9,PA7_A8_D8_SCK*%
%TO.N,ETH_SCLK*%
X157220000Y-82980000D03*
%TO.P,U2,10,PA5_A9_D9_MISO*%
%TO.N,ETH_MISO*%
X157220000Y-80440000D03*
%TO.P,U2,11,PA6_A10_D10_MOSI*%
%TO.N,ETH_MOSI*%
X157220000Y-77900000D03*
%TO.P,U2,12,3V3*%
%TO.N,PWR_3V3*%
X157220000Y-75360000D03*
%TO.P,U2,13,GND*%
%TO.N,GND*%
X157220000Y-72820000D03*
%TO.P,U2,14,5V*%
%TO.N,unconnected-(U2-5V-Pad14)_0*%
X157220000Y-70280000D03*
D15*
%TO.P,U2,17,PA31_SWDIO*%
%TO.N,PRG_SWDIO*%
X148330000Y-69645000D03*
%TO.P,U2,18,PA30_SWCLK*%
%TO.N,PRG_SWCLK*%
X150870000Y-69645000D03*
%TO.P,U2,19,RESET*%
%TO.N,PRG_RST*%
X148330000Y-72185000D03*
%TO.P,U2,20,GND*%
%TO.N,GND*%
X150870000Y-72185000D03*
%TD*%
D16*
%TO.P,U1,1,MISO*%
%TO.N,ETH_MISO*%
X172300000Y-88000000D03*
D17*
%TO.P,U1,2,RST*%
%TO.N,ETH_RST*%
X174840000Y-88000000D03*
%TO.P,U1,3,NC*%
%TO.N,unconnected-(U1-NC-Pad3)*%
X177380000Y-88000000D03*
%TO.P,U1,4,VDD*%
%TO.N,PWR_3V3*%
X179920000Y-88000000D03*
%TO.P,U1,5,VDD*%
X182460000Y-88000000D03*
%TO.P,U1,6,GND*%
%TO.N,GND*%
X185000000Y-88000000D03*
%TO.P,U1,7,GND*%
X185000000Y-67700000D03*
%TO.P,U1,8,GND*%
X182460000Y-67700000D03*
%TO.P,U1,9,MOSI*%
%TO.N,ETH_MOSI*%
X179920000Y-67700000D03*
%TO.P,U1,10,SCLK*%
%TO.N,ETH_SCLK*%
X177380000Y-67700000D03*
%TO.P,U1,11,CS*%
%TO.N,ETH_CS*%
X174840000Y-67700000D03*
D16*
%TO.P,U1,12,INT*%
%TO.N,ETH_INT*%
X172300000Y-67700000D03*
%TD*%
D18*
%TO.N,GND*%
X123000000Y-79000000D03*
%TO.N,PRG_SWCLK*%
X131000000Y-67000000D03*
X149000000Y-66000000D03*
%TO.N,B*%
X94000000Y-82000000D03*
%TO.N,ETH_LED*%
X155000000Y-68000000D03*
X154000000Y-77000000D03*
X168000000Y-68000000D03*
%TO.N,ETH_CS*%
X153000000Y-70000000D03*
X154000000Y-67000000D03*
%TO.N,ETH_INT*%
X152000000Y-69000000D03*
%TO.N,ETH_SCLK*%
X167000000Y-82000000D03*
X170000000Y-74000000D03*
%TO.N,ETH_MOSI*%
X165000000Y-77000000D03*
%TO.N,ETH_RST*%
X160000000Y-87000000D03*
X174000000Y-84000000D03*
X145000000Y-82000000D03*
%TO.N,RTU_EN*%
X137000000Y-72000000D03*
%TO.N,RTU_RX*%
X135000000Y-86000000D03*
%TO.N,RTU_TX*%
X156000000Y-88000000D03*
%TD*%
D19*
%TO.N,GND*%
X122360000Y-75360000D02*
X123000000Y-76000000D01*
X122360000Y-75360000D02*
X114220000Y-75360000D01*
X185000000Y-88000000D02*
X185000000Y-67700000D01*
X185000000Y-67700000D02*
X182460000Y-67700000D01*
X123000000Y-76000000D02*
X123000000Y-79000000D01*
%TO.N,PRG_SWCLK*%
X132350000Y-65650000D02*
X148650000Y-65650000D01*
X131000000Y-67000000D02*
X132350000Y-65650000D01*
X148650000Y-65650000D02*
X149000000Y-66000000D01*
%TO.N,RGND*%
X98560000Y-72400000D02*
X98980000Y-72820000D01*
X84800000Y-72400000D02*
X98560000Y-72400000D01*
%TO.N,B*%
X84800000Y-82400000D02*
X93600000Y-82400000D01*
X93600000Y-82400000D02*
X94000000Y-82000000D01*
%TO.N,A*%
X93750000Y-74250000D02*
X92900000Y-74250000D01*
X96360000Y-75360000D02*
X95000000Y-74000000D01*
X98980000Y-75360000D02*
X96360000Y-75360000D01*
X95000000Y-74000000D02*
X94000000Y-74000000D01*
X90750000Y-74250000D02*
X92900000Y-74250000D01*
X84800000Y-77400000D02*
X87600000Y-77400000D01*
X94000000Y-74000000D02*
X93750000Y-74250000D01*
X87600000Y-77400000D02*
X90750000Y-74250000D01*
%TO.N,ETH_LED*%
X141980000Y-80440000D02*
X153560000Y-80440000D01*
X154000000Y-80000000D02*
X154000000Y-77000000D01*
X155000000Y-68000000D02*
X168000000Y-68000000D01*
X153560000Y-80440000D02*
X154000000Y-80000000D01*
%TO.N,ETH_CS*%
X174840000Y-66840000D02*
X174840000Y-67700000D01*
X155000000Y-66000000D02*
X174000000Y-66000000D01*
X153000000Y-75000000D02*
X153000000Y-70000000D01*
X152000000Y-76000000D02*
X153000000Y-75000000D01*
X141980000Y-75360000D02*
X143360000Y-75360000D01*
X174000000Y-66000000D02*
X174840000Y-66840000D01*
X154000000Y-67000000D02*
X155000000Y-66000000D01*
X144000000Y-76000000D02*
X152000000Y-76000000D01*
X143360000Y-75360000D02*
X144000000Y-76000000D01*
%TO.N,PWR_3V3*%
X157220000Y-75360000D02*
X176360000Y-75360000D01*
X115000000Y-70000000D02*
X114220000Y-70780000D01*
X153000000Y-68000000D02*
X127000000Y-68000000D01*
X154000000Y-69000000D02*
X153000000Y-68000000D01*
X179920000Y-81080000D02*
X179920000Y-88000000D01*
X126000000Y-69000000D02*
X117000000Y-69000000D01*
X114220000Y-70780000D02*
X114220000Y-72820000D01*
X117000000Y-69000000D02*
X116000000Y-70000000D01*
X116000000Y-70000000D02*
X115000000Y-70000000D01*
X154360000Y-75360000D02*
X154000000Y-75000000D01*
X179920000Y-88000000D02*
X182460000Y-88000000D01*
X154000000Y-75000000D02*
X154000000Y-69000000D01*
X127000000Y-68000000D02*
X126000000Y-69000000D01*
X180000000Y-79000000D02*
X180000000Y-81000000D01*
X176360000Y-75360000D02*
X180000000Y-79000000D01*
X180000000Y-81000000D02*
X179920000Y-81080000D01*
X157220000Y-75360000D02*
X154360000Y-75360000D01*
%TO.N,ETH_INT*%
X151000000Y-75000000D02*
X152000000Y-74000000D01*
X141980000Y-72820000D02*
X144160000Y-75000000D01*
X152000000Y-74000000D02*
X152000000Y-69000000D01*
X145000000Y-75000000D02*
X151000000Y-75000000D01*
X144160000Y-75000000D02*
X145000000Y-75000000D01*
%TO.N,ETH_SCLK*%
X175080000Y-70000000D02*
X177380000Y-67700000D01*
X170000000Y-74000000D02*
X170000000Y-71000000D01*
X171000000Y-70000000D02*
X175080000Y-70000000D01*
X166020000Y-82980000D02*
X167000000Y-82000000D01*
X170000000Y-71000000D02*
X171000000Y-70000000D01*
X157220000Y-82980000D02*
X166020000Y-82980000D01*
%TO.N,ETH_MOSI*%
X164100000Y-77900000D02*
X165000000Y-77000000D01*
X157220000Y-77900000D02*
X164100000Y-77900000D01*
%TO.N,ETH_RST*%
X154000000Y-87000000D02*
X150000000Y-87000000D01*
X174840000Y-88000000D02*
X174840000Y-84840000D01*
X146000000Y-83000000D02*
X145000000Y-82000000D01*
X174840000Y-84840000D02*
X174000000Y-84000000D01*
X150000000Y-87000000D02*
X146000000Y-83000000D01*
X160000000Y-87000000D02*
X154000000Y-87000000D01*
%TO.N,ETH_MISO*%
X157220000Y-80440000D02*
X170440000Y-80440000D01*
X170440000Y-80440000D02*
X172300000Y-82300000D01*
X172300000Y-82300000D02*
X172300000Y-88000000D01*
%TO.N,RTU_EN*%
X116000000Y-88000000D02*
X135000000Y-88000000D01*
X114220000Y-82980000D02*
X114220000Y-86220000D01*
X135000000Y-88000000D02*
X137000000Y-86000000D01*
X137000000Y-86000000D02*
X137000000Y-72000000D01*
X114220000Y-86220000D02*
X116000000Y-88000000D01*
%TO.N,RTU_RX*%
X117000000Y-81000000D02*
X117000000Y-86000000D01*
X114220000Y-80440000D02*
X116440000Y-80440000D01*
X118000000Y-87000000D02*
X133000000Y-87000000D01*
X117000000Y-86000000D02*
X118000000Y-87000000D01*
X134000000Y-86000000D02*
X135000000Y-86000000D01*
X133000000Y-87000000D02*
X134000000Y-86000000D01*
X116440000Y-80440000D02*
X117000000Y-81000000D01*
%TO.N,RTU_TX*%
X112000000Y-89000000D02*
X155000000Y-89000000D01*
X114220000Y-77900000D02*
X110100000Y-77900000D01*
X110100000Y-77900000D02*
X109000000Y-79000000D01*
X155000000Y-89000000D02*
X156000000Y-88000000D01*
X109000000Y-79000000D02*
X109000000Y-86000000D01*
X109000000Y-86000000D02*
X112000000Y-89000000D01*
%TD*%
%TA.AperFunction,Conductor*%
%TO.N,GND*%
G36*
X131347231Y-65520185D02*
G01*
X131392986Y-65572989D01*
X131402930Y-65642147D01*
X131373905Y-65705703D01*
X131367873Y-65712181D01*
X130901775Y-66178277D01*
X130840452Y-66211762D01*
X130827988Y-66213815D01*
X130820752Y-66214630D01*
X130820744Y-66214632D01*
X130650478Y-66274210D01*
X130497737Y-66370184D01*
X130370184Y-66497737D01*
X130274211Y-66650476D01*
X130214631Y-66820745D01*
X130214630Y-66820750D01*
X130194435Y-66999996D01*
X130194435Y-67000003D01*
X130214630Y-67179249D01*
X130214632Y-67179257D01*
X130216483Y-67184546D01*
X130220044Y-67254325D01*
X130185315Y-67314952D01*
X130123322Y-67347179D01*
X130099441Y-67349500D01*
X126935929Y-67349500D01*
X126810261Y-67374497D01*
X126810251Y-67374500D01*
X126779341Y-67387303D01*
X126779342Y-67387304D01*
X126691877Y-67423532D01*
X126691863Y-67423540D01*
X126585332Y-67494721D01*
X126585325Y-67494727D01*
X125766873Y-68313181D01*
X125705550Y-68346666D01*
X125679192Y-68349500D01*
X116935929Y-68349500D01*
X116810261Y-68374497D01*
X116810251Y-68374500D01*
X116779341Y-68387303D01*
X116779342Y-68387304D01*
X116691877Y-68423532D01*
X116691863Y-68423540D01*
X116585332Y-68494721D01*
X116585325Y-68494727D01*
X115766873Y-69313181D01*
X115705550Y-69346666D01*
X115679192Y-69349500D01*
X114935929Y-69349500D01*
X114810261Y-69374497D01*
X114810251Y-69374500D01*
X114779341Y-69387303D01*
X114779342Y-69387304D01*
X114691877Y-69423532D01*
X114691863Y-69423540D01*
X114585332Y-69494721D01*
X114585325Y-69494727D01*
X113714726Y-70365326D01*
X113643534Y-70471874D01*
X113594499Y-70590255D01*
X113594497Y-70590261D01*
X113569500Y-70715928D01*
X113569500Y-71423793D01*
X113549815Y-71490832D01*
X113497011Y-71536587D01*
X113483825Y-71541722D01*
X113454471Y-71551260D01*
X113401582Y-71568445D01*
X113212179Y-71664951D01*
X113040213Y-71789890D01*
X112889890Y-71940213D01*
X112764951Y-72112179D01*
X112668444Y-72301585D01*
X112602753Y-72503760D01*
X112569500Y-72713713D01*
X112569500Y-72926286D01*
X112600654Y-73122989D01*
X112602754Y-73136243D01*
X112656439Y-73301469D01*
X112668444Y-73338414D01*
X112764951Y-73527820D01*
X112889890Y-73699786D01*
X113040213Y-73850109D01*
X113212179Y-73975048D01*
X113212181Y-73975049D01*
X113212184Y-73975051D01*
X113221493Y-73979794D01*
X113272290Y-74027766D01*
X113289087Y-74095587D01*
X113266552Y-74161722D01*
X113221502Y-74200762D01*
X113212443Y-74205378D01*
X113040540Y-74330272D01*
X113040535Y-74330276D01*
X112890276Y-74480535D01*
X112890272Y-74480540D01*
X112765379Y-74652442D01*
X112668904Y-74841782D01*
X112603242Y-75043870D01*
X112603242Y-75043873D01*
X112592769Y-75110000D01*
X113786988Y-75110000D01*
X113754075Y-75167007D01*
X113720000Y-75294174D01*
X113720000Y-75425826D01*
X113754075Y-75552993D01*
X113786988Y-75610000D01*
X112592769Y-75610000D01*
X112603242Y-75676126D01*
X112603242Y-75676129D01*
X112668904Y-75878217D01*
X112765379Y-76067557D01*
X112890272Y-76239459D01*
X112890276Y-76239464D01*
X113040535Y-76389723D01*
X113040540Y-76389727D01*
X113212444Y-76514622D01*
X113221495Y-76519234D01*
X113272292Y-76567208D01*
X113289087Y-76635029D01*
X113266550Y-76701164D01*
X113221499Y-76740202D01*
X113212182Y-76744949D01*
X113040213Y-76869890D01*
X112889890Y-77020213D01*
X112762085Y-77196125D01*
X112760740Y-77195148D01*
X112714295Y-77237166D01*
X112660382Y-77249500D01*
X110035929Y-77249500D01*
X109910261Y-77274497D01*
X109910255Y-77274499D01*
X109791874Y-77323534D01*
X109685326Y-77394726D01*
X108494724Y-78585328D01*
X108442566Y-78663390D01*
X108423535Y-78691871D01*
X108374499Y-78810255D01*
X108374497Y-78810261D01*
X108349500Y-78935928D01*
X108349500Y-78935931D01*
X108349500Y-86064069D01*
X108349500Y-86064071D01*
X108349499Y-86064071D01*
X108368141Y-86157782D01*
X108368141Y-86157783D01*
X108374496Y-86189737D01*
X108374498Y-86189742D01*
X108409486Y-86274209D01*
X108423535Y-86308127D01*
X108494723Y-86414669D01*
X108494726Y-86414673D01*
X108494727Y-86414674D01*
X111367873Y-89287819D01*
X111401358Y-89349142D01*
X111396374Y-89418834D01*
X111354502Y-89474767D01*
X111289038Y-89499184D01*
X111280192Y-89499500D01*
X78624500Y-89499500D01*
X78557461Y-89479815D01*
X78511706Y-89427011D01*
X78500500Y-89375500D01*
X78500500Y-81102135D01*
X83049500Y-81102135D01*
X83049500Y-83697870D01*
X83049501Y-83697876D01*
X83055908Y-83757483D01*
X83106202Y-83892328D01*
X83106206Y-83892335D01*
X83192452Y-84007544D01*
X83192455Y-84007547D01*
X83307664Y-84093793D01*
X83307671Y-84093797D01*
X83442517Y-84144091D01*
X83442516Y-84144091D01*
X83449444Y-84144835D01*
X83502127Y-84150500D01*
X86097872Y-84150499D01*
X86157483Y-84144091D01*
X86292331Y-84093796D01*
X86407546Y-84007546D01*
X86493796Y-83892331D01*
X86544091Y-83757483D01*
X86550500Y-83697873D01*
X86550500Y-83174500D01*
X86570185Y-83107461D01*
X86622989Y-83061706D01*
X86674500Y-83050500D01*
X93664071Y-83050500D01*
X93748615Y-83033682D01*
X93789744Y-83025501D01*
X93908127Y-82976465D01*
X93946987Y-82950500D01*
X93946988Y-82950500D01*
X93997633Y-82916659D01*
X94014669Y-82905277D01*
X94098222Y-82821722D01*
X94159545Y-82788237D01*
X94172019Y-82786183D01*
X94179255Y-82785368D01*
X94349522Y-82725789D01*
X94502262Y-82629816D01*
X94629816Y-82502262D01*
X94725789Y-82349522D01*
X94785368Y-82179255D01*
X94793142Y-82110261D01*
X94805565Y-82000003D01*
X94805565Y-81999996D01*
X94785369Y-81820750D01*
X94785368Y-81820745D01*
X94770364Y-81777865D01*
X94725789Y-81650478D01*
X94629816Y-81497738D01*
X94502262Y-81370184D01*
X94422064Y-81319792D01*
X94349523Y-81274211D01*
X94179254Y-81214631D01*
X94179249Y-81214630D01*
X94000004Y-81194435D01*
X93999996Y-81194435D01*
X93820750Y-81214630D01*
X93820745Y-81214631D01*
X93650476Y-81274211D01*
X93497737Y-81370184D01*
X93370184Y-81497737D01*
X93274211Y-81650476D01*
X93268621Y-81666454D01*
X93227900Y-81723230D01*
X93162947Y-81748978D01*
X93151579Y-81749500D01*
X86674499Y-81749500D01*
X86607460Y-81729815D01*
X86561705Y-81677011D01*
X86550499Y-81625500D01*
X86550499Y-81102129D01*
X86550498Y-81102123D01*
X86550497Y-81102116D01*
X86544091Y-81042517D01*
X86534374Y-81016465D01*
X86493797Y-80907671D01*
X86493793Y-80907664D01*
X86407547Y-80792455D01*
X86407544Y-80792452D01*
X86292335Y-80706206D01*
X86292328Y-80706202D01*
X86157482Y-80655908D01*
X86157483Y-80655908D01*
X86097883Y-80649501D01*
X86097881Y-80649500D01*
X86097873Y-80649500D01*
X86097864Y-80649500D01*
X83502129Y-80649500D01*
X83502123Y-80649501D01*
X83442516Y-80655908D01*
X83307671Y-80706202D01*
X83307664Y-80706206D01*
X83192455Y-80792452D01*
X83192452Y-80792455D01*
X83106206Y-80907664D01*
X83106202Y-80907671D01*
X83055908Y-81042517D01*
X83050750Y-81090500D01*
X83049501Y-81102123D01*
X83049500Y-81102135D01*
X78500500Y-81102135D01*
X78500500Y-72399995D01*
X83044592Y-72399995D01*
X83044592Y-72400004D01*
X83064196Y-72661620D01*
X83064197Y-72661625D01*
X83122576Y-72917402D01*
X83122578Y-72917411D01*
X83122580Y-72917416D01*
X83218432Y-73161643D01*
X83349614Y-73388857D01*
X83445880Y-73509571D01*
X83513198Y-73593985D01*
X83627232Y-73699792D01*
X83705521Y-73772433D01*
X83922296Y-73920228D01*
X83922301Y-73920230D01*
X83922302Y-73920231D01*
X83922303Y-73920232D01*
X84036131Y-73975048D01*
X84158673Y-74034061D01*
X84158674Y-74034061D01*
X84158677Y-74034063D01*
X84409385Y-74111396D01*
X84668818Y-74150500D01*
X84931182Y-74150500D01*
X85190615Y-74111396D01*
X85441323Y-74034063D01*
X85677704Y-73920228D01*
X85894479Y-73772433D01*
X86051347Y-73626881D01*
X86086801Y-73593985D01*
X86086801Y-73593983D01*
X86086805Y-73593981D01*
X86250386Y-73388857D01*
X86381568Y-73161643D01*
X86394302Y-73129197D01*
X86437118Y-73073984D01*
X86502988Y-73050683D01*
X86509730Y-73050500D01*
X92120998Y-73050500D01*
X92188037Y-73070185D01*
X92233792Y-73122989D01*
X92243736Y-73192147D01*
X92214711Y-73255703D01*
X92186276Y-73279926D01*
X92173442Y-73287872D01*
X92173437Y-73287876D01*
X92009025Y-73437757D01*
X92009021Y-73437761D01*
X91924091Y-73550227D01*
X91867982Y-73591863D01*
X91825137Y-73599500D01*
X90685929Y-73599500D01*
X90560261Y-73624497D01*
X90560255Y-73624499D01*
X90441874Y-73673534D01*
X90335326Y-73744726D01*
X90335325Y-73744727D01*
X87366873Y-76713181D01*
X87305550Y-76746666D01*
X87279192Y-76749500D01*
X86509730Y-76749500D01*
X86442691Y-76729815D01*
X86396936Y-76677011D01*
X86394302Y-76670803D01*
X86391551Y-76663793D01*
X86381568Y-76638357D01*
X86250386Y-76411143D01*
X86086805Y-76206019D01*
X86086804Y-76206018D01*
X86086801Y-76206014D01*
X85894479Y-76027567D01*
X85869446Y-76010500D01*
X85677704Y-75879772D01*
X85677700Y-75879770D01*
X85677697Y-75879768D01*
X85677696Y-75879767D01*
X85441325Y-75765938D01*
X85441327Y-75765938D01*
X85190623Y-75688606D01*
X85190619Y-75688605D01*
X85190615Y-75688604D01*
X85065823Y-75669794D01*
X84931187Y-75649500D01*
X84931182Y-75649500D01*
X84668818Y-75649500D01*
X84668812Y-75649500D01*
X84507247Y-75673853D01*
X84409385Y-75688604D01*
X84409382Y-75688605D01*
X84409376Y-75688606D01*
X84158673Y-75765938D01*
X83922303Y-75879767D01*
X83922302Y-75879768D01*
X83705520Y-76027567D01*
X83513198Y-76206014D01*
X83349614Y-76411143D01*
X83218432Y-76638356D01*
X83122582Y-76882578D01*
X83122576Y-76882597D01*
X83064197Y-77138374D01*
X83064196Y-77138379D01*
X83044592Y-77399995D01*
X83044592Y-77400004D01*
X83064196Y-77661620D01*
X83064197Y-77661625D01*
X83122576Y-77917402D01*
X83122578Y-77917411D01*
X83122580Y-77917416D01*
X83218432Y-78161643D01*
X83349614Y-78388857D01*
X83432109Y-78492302D01*
X83513198Y-78593985D01*
X83694753Y-78762441D01*
X83705521Y-78772433D01*
X83922296Y-78920228D01*
X83922301Y-78920230D01*
X83922302Y-78920231D01*
X83922303Y-78920232D01*
X84047843Y-78980688D01*
X84158673Y-79034061D01*
X84158674Y-79034061D01*
X84158677Y-79034063D01*
X84409385Y-79111396D01*
X84668818Y-79150500D01*
X84931182Y-79150500D01*
X85190615Y-79111396D01*
X85441323Y-79034063D01*
X85677704Y-78920228D01*
X85894479Y-78772433D01*
X86071890Y-78607820D01*
X86086801Y-78593985D01*
X86086801Y-78593983D01*
X86086805Y-78593981D01*
X86250386Y-78388857D01*
X86381568Y-78161643D01*
X86394302Y-78129197D01*
X86437118Y-78073984D01*
X86502988Y-78050683D01*
X86509730Y-78050500D01*
X87664071Y-78050500D01*
X87751698Y-78033069D01*
X87789744Y-78025501D01*
X87908127Y-77976465D01*
X87926679Y-77964069D01*
X88014669Y-77905277D01*
X90983127Y-74936819D01*
X91044450Y-74903334D01*
X91070808Y-74900500D01*
X91825137Y-74900500D01*
X91892176Y-74920185D01*
X91924091Y-74949773D01*
X91995064Y-75043757D01*
X92009021Y-75062238D01*
X92009025Y-75062242D01*
X92173437Y-75212123D01*
X92173439Y-75212125D01*
X92362595Y-75329245D01*
X92362596Y-75329245D01*
X92362599Y-75329247D01*
X92556524Y-75404374D01*
X92611924Y-75446946D01*
X92635515Y-75512713D01*
X92619804Y-75580793D01*
X92569780Y-75629572D01*
X92556533Y-75635622D01*
X92419767Y-75688606D01*
X92362601Y-75710752D01*
X92362595Y-75710754D01*
X92173439Y-75827874D01*
X92173437Y-75827876D01*
X92009020Y-75977761D01*
X91874943Y-76155308D01*
X91874938Y-76155316D01*
X91775775Y-76354461D01*
X91775769Y-76354476D01*
X91714885Y-76568462D01*
X91714884Y-76568464D01*
X91694357Y-76789999D01*
X91694357Y-76790000D01*
X91714884Y-77011535D01*
X91714885Y-77011537D01*
X91775769Y-77225523D01*
X91775775Y-77225538D01*
X91874938Y-77424683D01*
X91874943Y-77424691D01*
X92009020Y-77602238D01*
X92173437Y-77752123D01*
X92173439Y-77752125D01*
X92362595Y-77869245D01*
X92362596Y-77869245D01*
X92362599Y-77869247D01*
X92570060Y-77949618D01*
X92788757Y-77990500D01*
X92788759Y-77990500D01*
X93011241Y-77990500D01*
X93011243Y-77990500D01*
X93229940Y-77949618D01*
X93437401Y-77869247D01*
X93626562Y-77752124D01*
X93790981Y-77602236D01*
X93925058Y-77424689D01*
X94024229Y-77225528D01*
X94085115Y-77011536D01*
X94105643Y-76790000D01*
X94101468Y-76744949D01*
X94085115Y-76568464D01*
X94085114Y-76568462D01*
X94084757Y-76567208D01*
X94024229Y-76354472D01*
X94007860Y-76321598D01*
X93925061Y-76155316D01*
X93925056Y-76155308D01*
X93790979Y-75977761D01*
X93626562Y-75827876D01*
X93626560Y-75827874D01*
X93437404Y-75710754D01*
X93437395Y-75710750D01*
X93343956Y-75674552D01*
X93243475Y-75635625D01*
X93188075Y-75593054D01*
X93164484Y-75527288D01*
X93180195Y-75459207D01*
X93230219Y-75410428D01*
X93243466Y-75404377D01*
X93437401Y-75329247D01*
X93626562Y-75212124D01*
X93790981Y-75062236D01*
X93908140Y-74907091D01*
X93959639Y-74867260D01*
X93977167Y-74860000D01*
X94058127Y-74826465D01*
X94082386Y-74810256D01*
X94164669Y-74755277D01*
X94233128Y-74686817D01*
X94294449Y-74653334D01*
X94320808Y-74650500D01*
X94679192Y-74650500D01*
X94746231Y-74670185D01*
X94766873Y-74686819D01*
X95945326Y-75865273D01*
X95945334Y-75865279D01*
X96033375Y-75924106D01*
X96051871Y-75936464D01*
X96051872Y-75936464D01*
X96051873Y-75936465D01*
X96170256Y-75985501D01*
X96170260Y-75985501D01*
X96170261Y-75985502D01*
X96295928Y-76010500D01*
X96295931Y-76010500D01*
X97420382Y-76010500D01*
X97487421Y-76030185D01*
X97521099Y-76064591D01*
X97522085Y-76063875D01*
X97649890Y-76239786D01*
X97800213Y-76390109D01*
X97972182Y-76515050D01*
X97980946Y-76519516D01*
X98031742Y-76567491D01*
X98048536Y-76635312D01*
X98025998Y-76701447D01*
X97980946Y-76740484D01*
X97972182Y-76744949D01*
X97800213Y-76869890D01*
X97649890Y-77020213D01*
X97524951Y-77192179D01*
X97428444Y-77381585D01*
X97362753Y-77583760D01*
X97329500Y-77793713D01*
X97329500Y-78006286D01*
X97355938Y-78173212D01*
X97362754Y-78216243D01*
X97424175Y-78405277D01*
X97428444Y-78418414D01*
X97524951Y-78607820D01*
X97649890Y-78779786D01*
X97800213Y-78930109D01*
X97972179Y-79055048D01*
X97972181Y-79055049D01*
X97972184Y-79055051D01*
X98161588Y-79151557D01*
X98363757Y-79217246D01*
X98573713Y-79250500D01*
X98573714Y-79250500D01*
X99386286Y-79250500D01*
X99386287Y-79250500D01*
X99596243Y-79217246D01*
X99798412Y-79151557D01*
X99987816Y-79055051D01*
X100016704Y-79034063D01*
X100159786Y-78930109D01*
X100159788Y-78930106D01*
X100159792Y-78930104D01*
X100310104Y-78779792D01*
X100310106Y-78779788D01*
X100310109Y-78779786D01*
X100435048Y-78607820D01*
X100435047Y-78607820D01*
X100435051Y-78607816D01*
X100531557Y-78418412D01*
X100597246Y-78216243D01*
X100630500Y-78006287D01*
X100630500Y-77793713D01*
X100597246Y-77583757D01*
X100531557Y-77381588D01*
X100435051Y-77192184D01*
X100435049Y-77192181D01*
X100435048Y-77192179D01*
X100310109Y-77020213D01*
X100159786Y-76869890D01*
X99987820Y-76744951D01*
X99982778Y-76742382D01*
X99979054Y-76740485D01*
X99928259Y-76692512D01*
X99911463Y-76624692D01*
X99933999Y-76558556D01*
X99979054Y-76519515D01*
X99987816Y-76515051D01*
X100011647Y-76497737D01*
X100159786Y-76390109D01*
X100159788Y-76390106D01*
X100159792Y-76390104D01*
X100310104Y-76239792D01*
X100310106Y-76239788D01*
X100310109Y-76239786D01*
X100435048Y-76067820D01*
X100435047Y-76067820D01*
X100435051Y-76067816D01*
X100531557Y-75878412D01*
X100597246Y-75676243D01*
X100630500Y-75466287D01*
X100630500Y-75253713D01*
X100597246Y-75043757D01*
X100531557Y-74841588D01*
X100435051Y-74652184D01*
X100435049Y-74652181D01*
X100435048Y-74652179D01*
X100310109Y-74480213D01*
X100159786Y-74329890D01*
X99987820Y-74204951D01*
X99979600Y-74200763D01*
X99979054Y-74200485D01*
X99928259Y-74152512D01*
X99911463Y-74084692D01*
X99933999Y-74018556D01*
X99979054Y-73979515D01*
X99987816Y-73975051D01*
X100009789Y-73959086D01*
X100159786Y-73850109D01*
X100159788Y-73850106D01*
X100159792Y-73850104D01*
X100310104Y-73699792D01*
X100310106Y-73699788D01*
X100310109Y-73699786D01*
X100435048Y-73527820D01*
X100435047Y-73527820D01*
X100435051Y-73527816D01*
X100531557Y-73338412D01*
X100597246Y-73136243D01*
X100630500Y-72926287D01*
X100630500Y-72713713D01*
X100597246Y-72503757D01*
X100531557Y-72301588D01*
X100435051Y-72112184D01*
X100435049Y-72112181D01*
X100435048Y-72112179D01*
X100310109Y-71940213D01*
X100159786Y-71789890D01*
X99987820Y-71664951D01*
X99798414Y-71568444D01*
X99798413Y-71568443D01*
X99798412Y-71568443D01*
X99596243Y-71502754D01*
X99596241Y-71502753D01*
X99596240Y-71502753D01*
X99434957Y-71477208D01*
X99386287Y-71469500D01*
X98573713Y-71469500D01*
X98525042Y-71477208D01*
X98363760Y-71502753D01*
X98161585Y-71568444D01*
X97972180Y-71664951D01*
X97888404Y-71725818D01*
X97822598Y-71749298D01*
X97815519Y-71749500D01*
X86509730Y-71749500D01*
X86442691Y-71729815D01*
X86396936Y-71677011D01*
X86394302Y-71670803D01*
X86386324Y-71650476D01*
X86381568Y-71638357D01*
X86250386Y-71411143D01*
X86086805Y-71206019D01*
X86086804Y-71206018D01*
X86086801Y-71206014D01*
X85894479Y-71027567D01*
X85873299Y-71013127D01*
X85677704Y-70879772D01*
X85677700Y-70879770D01*
X85677697Y-70879768D01*
X85677696Y-70879767D01*
X85441325Y-70765938D01*
X85441327Y-70765938D01*
X85190623Y-70688606D01*
X85190619Y-70688605D01*
X85190615Y-70688604D01*
X85065823Y-70669794D01*
X84931187Y-70649500D01*
X84931182Y-70649500D01*
X84668818Y-70649500D01*
X84668812Y-70649500D01*
X84507247Y-70673853D01*
X84409385Y-70688604D01*
X84409382Y-70688605D01*
X84409376Y-70688606D01*
X84158673Y-70765938D01*
X83922303Y-70879767D01*
X83922302Y-70879768D01*
X83705520Y-71027567D01*
X83513198Y-71206014D01*
X83349614Y-71411143D01*
X83218432Y-71638356D01*
X83122582Y-71882578D01*
X83122576Y-71882597D01*
X83064197Y-72138374D01*
X83064196Y-72138379D01*
X83044592Y-72399995D01*
X78500500Y-72399995D01*
X78500500Y-65624500D01*
X78520185Y-65557461D01*
X78572989Y-65511706D01*
X78624500Y-65500500D01*
X131280192Y-65500500D01*
X131347231Y-65520185D01*
G37*
%TD.AperFunction*%
%TA.AperFunction,Conductor*%
G36*
X147576649Y-68670185D02*
G01*
X147622404Y-68722989D01*
X147632348Y-68792147D01*
X147603323Y-68855703D01*
X147593148Y-68866137D01*
X147534389Y-68919702D01*
X147414662Y-69078246D01*
X147326107Y-69256088D01*
X147326104Y-69256094D01*
X147271738Y-69447174D01*
X147271737Y-69447177D01*
X147253407Y-69644999D01*
X147253407Y-69645000D01*
X147271737Y-69842822D01*
X147271738Y-69842825D01*
X147326104Y-70033905D01*
X147326107Y-70033911D01*
X147414662Y-70211753D01*
X147534389Y-70370298D01*
X147645813Y-70471873D01*
X147681208Y-70504140D01*
X147798016Y-70576465D01*
X147820297Y-70590261D01*
X147850121Y-70608727D01*
X148035376Y-70680495D01*
X148230665Y-70717000D01*
X148230668Y-70717000D01*
X148429332Y-70717000D01*
X148429335Y-70717000D01*
X148624624Y-70680495D01*
X148809879Y-70608727D01*
X148978792Y-70504140D01*
X149125612Y-70370296D01*
X149245338Y-70211753D01*
X149333893Y-70033910D01*
X149333893Y-70033907D01*
X149333895Y-70033905D01*
X149388261Y-69842825D01*
X149388262Y-69842822D01*
X149406593Y-69645000D01*
X149406593Y-69644999D01*
X149388262Y-69447177D01*
X149388261Y-69447174D01*
X149333895Y-69256094D01*
X149333892Y-69256088D01*
X149308731Y-69205558D01*
X149245338Y-69078247D01*
X149125612Y-68919704D01*
X149125610Y-68919702D01*
X149066852Y-68866137D01*
X149030570Y-68806426D01*
X149032331Y-68736579D01*
X149071574Y-68678771D01*
X149135841Y-68651356D01*
X149150390Y-68650500D01*
X150049610Y-68650500D01*
X150116649Y-68670185D01*
X150162404Y-68722989D01*
X150172348Y-68792147D01*
X150143323Y-68855703D01*
X150133148Y-68866137D01*
X150074389Y-68919702D01*
X149954662Y-69078246D01*
X149866107Y-69256088D01*
X149866104Y-69256094D01*
X149811738Y-69447174D01*
X149811737Y-69447177D01*
X149793407Y-69644999D01*
X149793407Y-69645000D01*
X149811737Y-69842822D01*
X149811738Y-69842825D01*
X149866104Y-70033905D01*
X149866107Y-70033911D01*
X149954662Y-70211753D01*
X150074389Y-70370298D01*
X150185813Y-70471873D01*
X150221208Y-70504140D01*
X150338016Y-70576465D01*
X150360297Y-70590261D01*
X150390121Y-70608727D01*
X150575376Y-70680495D01*
X150770665Y-70717000D01*
X150770668Y-70717000D01*
X150969332Y-70717000D01*
X150969335Y-70717000D01*
X151164624Y-70680495D01*
X151180705Y-70674264D01*
X151250326Y-70668401D01*
X151312067Y-70701108D01*
X151346324Y-70762004D01*
X151349500Y-70789890D01*
X151349500Y-71040645D01*
X151329815Y-71107684D01*
X151277011Y-71153439D01*
X151207853Y-71163383D01*
X151180709Y-71156273D01*
X151164490Y-71149990D01*
X150969287Y-71113500D01*
X150770713Y-71113500D01*
X150575516Y-71149989D01*
X150575511Y-71149990D01*
X150390350Y-71221721D01*
X150390341Y-71221725D01*
X150310015Y-71271461D01*
X150310014Y-71271462D01*
X150870000Y-71831447D01*
X150948850Y-71910297D01*
X150907620Y-71899250D01*
X150832380Y-71899250D01*
X150759705Y-71918723D01*
X150694545Y-71956343D01*
X150641343Y-72009545D01*
X150603723Y-72074705D01*
X150584250Y-72147380D01*
X150584250Y-72222620D01*
X150603723Y-72295295D01*
X150641343Y-72360455D01*
X150694545Y-72413657D01*
X150759705Y-72451277D01*
X150832380Y-72470750D01*
X150907620Y-72470750D01*
X150948847Y-72459703D01*
X150310015Y-73098536D01*
X150310015Y-73098537D01*
X150390341Y-73148274D01*
X150390348Y-73148277D01*
X150575511Y-73220009D01*
X150575516Y-73220010D01*
X150770713Y-73256500D01*
X150969287Y-73256500D01*
X151164483Y-73220010D01*
X151164489Y-73220009D01*
X151180705Y-73213727D01*
X151250328Y-73207864D01*
X151312069Y-73240573D01*
X151346324Y-73301469D01*
X151349500Y-73329353D01*
X151349500Y-73679192D01*
X151329815Y-73746231D01*
X151313181Y-73766873D01*
X150766873Y-74313181D01*
X150705550Y-74346666D01*
X150679192Y-74349500D01*
X144480808Y-74349500D01*
X144413769Y-74329815D01*
X144393127Y-74313181D01*
X143246060Y-73166114D01*
X143212575Y-73104791D01*
X143213966Y-73046339D01*
X143216207Y-73037977D01*
X143232609Y-72850500D01*
X143235277Y-72820002D01*
X143235277Y-72819997D01*
X143225978Y-72713713D01*
X143216207Y-72602023D01*
X143172550Y-72439094D01*
X143159577Y-72390677D01*
X143159576Y-72390676D01*
X143159575Y-72390670D01*
X143067102Y-72192362D01*
X143067100Y-72192359D01*
X143067099Y-72192357D01*
X143061947Y-72184999D01*
X147253407Y-72184999D01*
X147253407Y-72185000D01*
X147271737Y-72382822D01*
X147271738Y-72382825D01*
X147326104Y-72573905D01*
X147326107Y-72573911D01*
X147414662Y-72751753D01*
X147534389Y-72910298D01*
X147647041Y-73012993D01*
X147681208Y-73044140D01*
X147796443Y-73115491D01*
X147829858Y-73136181D01*
X147850121Y-73148727D01*
X148035376Y-73220495D01*
X148230665Y-73257000D01*
X148230668Y-73257000D01*
X148429332Y-73257000D01*
X148429335Y-73257000D01*
X148624624Y-73220495D01*
X148809879Y-73148727D01*
X148978792Y-73044140D01*
X149125612Y-72910296D01*
X149245338Y-72751753D01*
X149333893Y-72573910D01*
X149333893Y-72573907D01*
X149333895Y-72573905D01*
X149368785Y-72451277D01*
X149388262Y-72382823D01*
X149406593Y-72185000D01*
X149406593Y-72184999D01*
X149793910Y-72184999D01*
X149793910Y-72185000D01*
X149812231Y-72382730D01*
X149866575Y-72573726D01*
X149866580Y-72573739D01*
X149953383Y-72748062D01*
X149953384Y-72748062D01*
X150516447Y-72185000D01*
X149953383Y-71621936D01*
X149866580Y-71796260D01*
X149866575Y-71796273D01*
X149812231Y-71987269D01*
X149793910Y-72184999D01*
X149406593Y-72184999D01*
X149404150Y-72158641D01*
X149388262Y-71987177D01*
X149388261Y-71987174D01*
X149333895Y-71796094D01*
X149333892Y-71796088D01*
X149274599Y-71677011D01*
X149245338Y-71618247D01*
X149125612Y-71459704D01*
X149125610Y-71459701D01*
X148978793Y-71325861D01*
X148978792Y-71325860D01*
X148914467Y-71286031D01*
X148809880Y-71221273D01*
X148809878Y-71221272D01*
X148624627Y-71149506D01*
X148624626Y-71149505D01*
X148624624Y-71149505D01*
X148429335Y-71113000D01*
X148230665Y-71113000D01*
X148035376Y-71149505D01*
X148035374Y-71149505D01*
X148035372Y-71149506D01*
X147850121Y-71221272D01*
X147850119Y-71221273D01*
X147681206Y-71325861D01*
X147534389Y-71459701D01*
X147414662Y-71618246D01*
X147326107Y-71796088D01*
X147326104Y-71796094D01*
X147271738Y-71987174D01*
X147271737Y-71987177D01*
X147253407Y-72184999D01*
X143061947Y-72184999D01*
X142941599Y-72013124D01*
X142868683Y-71940208D01*
X142786877Y-71858402D01*
X142607639Y-71732898D01*
X142456414Y-71662381D01*
X142403977Y-71616210D01*
X142384825Y-71549016D01*
X142405041Y-71482135D01*
X142456414Y-71437618D01*
X142607639Y-71367102D01*
X142786877Y-71241598D01*
X142941598Y-71086877D01*
X143067102Y-70907639D01*
X143159575Y-70709330D01*
X143216207Y-70497977D01*
X143235277Y-70280000D01*
X143216207Y-70062023D01*
X143159575Y-69850670D01*
X143067102Y-69652362D01*
X143067100Y-69652359D01*
X143067099Y-69652357D01*
X142941599Y-69473124D01*
X142892007Y-69423532D01*
X142786877Y-69318402D01*
X142638678Y-69214632D01*
X142607638Y-69192897D01*
X142485183Y-69135796D01*
X142409330Y-69100425D01*
X142409326Y-69100424D01*
X142409322Y-69100422D01*
X142197977Y-69043793D01*
X141980002Y-69024723D01*
X141979998Y-69024723D01*
X141861833Y-69035061D01*
X141762023Y-69043793D01*
X141762020Y-69043793D01*
X141550677Y-69100422D01*
X141550668Y-69100426D01*
X141352361Y-69192898D01*
X141352357Y-69192900D01*
X141173121Y-69318402D01*
X141018402Y-69473121D01*
X140892900Y-69652357D01*
X140892898Y-69652361D01*
X140800426Y-69850668D01*
X140800422Y-69850677D01*
X140743793Y-70062020D01*
X140743793Y-70062024D01*
X140724723Y-70279997D01*
X140724723Y-70280002D01*
X140743793Y-70497975D01*
X140743793Y-70497979D01*
X140800422Y-70709322D01*
X140800424Y-70709326D01*
X140800425Y-70709330D01*
X140826822Y-70765938D01*
X140892897Y-70907638D01*
X140894963Y-70910588D01*
X141018402Y-71086877D01*
X141173123Y-71241598D01*
X141352360Y-71367101D01*
X141352361Y-71367102D01*
X141503583Y-71437618D01*
X141556022Y-71483790D01*
X141575174Y-71550984D01*
X141554958Y-71617865D01*
X141503583Y-71662382D01*
X141352361Y-71732898D01*
X141352357Y-71732900D01*
X141173121Y-71858402D01*
X141018402Y-72013121D01*
X140892900Y-72192357D01*
X140892898Y-72192361D01*
X140800426Y-72390668D01*
X140800422Y-72390677D01*
X140743793Y-72602020D01*
X140743793Y-72602024D01*
X140724723Y-72819997D01*
X140724723Y-72820002D01*
X140727391Y-72850500D01*
X140743792Y-73037971D01*
X140743793Y-73037975D01*
X140743793Y-73037979D01*
X140800422Y-73249322D01*
X140800424Y-73249326D01*
X140800425Y-73249330D01*
X140846062Y-73347198D01*
X140892897Y-73447638D01*
X140892898Y-73447639D01*
X141018402Y-73626877D01*
X141173123Y-73781598D01*
X141351738Y-73906666D01*
X141352361Y-73907102D01*
X141503583Y-73977618D01*
X141556022Y-74023790D01*
X141575174Y-74090984D01*
X141554958Y-74157865D01*
X141503583Y-74202382D01*
X141352361Y-74272898D01*
X141352357Y-74272900D01*
X141173121Y-74398402D01*
X141018402Y-74553121D01*
X140892900Y-74732357D01*
X140892898Y-74732361D01*
X140800426Y-74930668D01*
X140800422Y-74930677D01*
X140743793Y-75142020D01*
X140743793Y-75142024D01*
X140724723Y-75359997D01*
X140724723Y-75360002D01*
X140733402Y-75459207D01*
X140739358Y-75527288D01*
X140743793Y-75577975D01*
X140743793Y-75577979D01*
X140800422Y-75789322D01*
X140800424Y-75789326D01*
X140800425Y-75789330D01*
X140842597Y-75879768D01*
X140892897Y-75987638D01*
X140892898Y-75987639D01*
X141018402Y-76166877D01*
X141173123Y-76321598D01*
X141352360Y-76447101D01*
X141352361Y-76447102D01*
X141503583Y-76517618D01*
X141556022Y-76563790D01*
X141575174Y-76630984D01*
X141554958Y-76697865D01*
X141503583Y-76742382D01*
X141352361Y-76812898D01*
X141352357Y-76812900D01*
X141173121Y-76938402D01*
X141018402Y-77093121D01*
X140892900Y-77272357D01*
X140892898Y-77272361D01*
X140800426Y-77470668D01*
X140800422Y-77470677D01*
X140743793Y-77682020D01*
X140743793Y-77682024D01*
X140724723Y-77899997D01*
X140724723Y-77900002D01*
X140743793Y-78117975D01*
X140743793Y-78117979D01*
X140800422Y-78329322D01*
X140800424Y-78329326D01*
X140800425Y-78329330D01*
X140828183Y-78388857D01*
X140892897Y-78527638D01*
X140892898Y-78527639D01*
X141018402Y-78706877D01*
X141173123Y-78861598D01*
X141352360Y-78987101D01*
X141352361Y-78987102D01*
X141503583Y-79057618D01*
X141556022Y-79103790D01*
X141575174Y-79170984D01*
X141554958Y-79237865D01*
X141503583Y-79282382D01*
X141352361Y-79352898D01*
X141352357Y-79352900D01*
X141173121Y-79478402D01*
X141018402Y-79633121D01*
X140892900Y-79812357D01*
X140892898Y-79812361D01*
X140800426Y-80010668D01*
X140800422Y-80010677D01*
X140743793Y-80222020D01*
X140743793Y-80222023D01*
X140724723Y-80440000D01*
X140743051Y-80649501D01*
X140743793Y-80657975D01*
X140743793Y-80657979D01*
X140800422Y-80869322D01*
X140800424Y-80869326D01*
X140800425Y-80869330D01*
X140818303Y-80907669D01*
X140892897Y-81067638D01*
X140892898Y-81067639D01*
X141018402Y-81246877D01*
X141173123Y-81401598D01*
X141310424Y-81497737D01*
X141352361Y-81527102D01*
X141503583Y-81597618D01*
X141556022Y-81643790D01*
X141575174Y-81710984D01*
X141554958Y-81777865D01*
X141503583Y-81822382D01*
X141352361Y-81892898D01*
X141352357Y-81892900D01*
X141173121Y-82018402D01*
X141018402Y-82173121D01*
X140892900Y-82352357D01*
X140892898Y-82352361D01*
X140800426Y-82550668D01*
X140800422Y-82550677D01*
X140743793Y-82762020D01*
X140743793Y-82762024D01*
X140724723Y-82979997D01*
X140724723Y-82980002D01*
X140743793Y-83197975D01*
X140743793Y-83197979D01*
X140800422Y-83409322D01*
X140800424Y-83409326D01*
X140800425Y-83409330D01*
X140802915Y-83414669D01*
X140892897Y-83607638D01*
X140892898Y-83607639D01*
X141018402Y-83786877D01*
X141173123Y-83941598D01*
X141318000Y-84043042D01*
X141352361Y-84067102D01*
X141503583Y-84137618D01*
X141556022Y-84183790D01*
X141575174Y-84250984D01*
X141554958Y-84317865D01*
X141503583Y-84362382D01*
X141352361Y-84432898D01*
X141352357Y-84432900D01*
X141173121Y-84558402D01*
X141018402Y-84713121D01*
X140892900Y-84892357D01*
X140892898Y-84892361D01*
X140800426Y-85090668D01*
X140800422Y-85090677D01*
X140743793Y-85302020D01*
X140743793Y-85302024D01*
X140724723Y-85519997D01*
X140724723Y-85520002D01*
X140743793Y-85737975D01*
X140743793Y-85737979D01*
X140800422Y-85949322D01*
X140800424Y-85949326D01*
X140800425Y-85949330D01*
X140800996Y-85950554D01*
X140892897Y-86147638D01*
X140900000Y-86157782D01*
X141018402Y-86326877D01*
X141173123Y-86481598D01*
X141352361Y-86607102D01*
X141550670Y-86699575D01*
X141762023Y-86756207D01*
X141944926Y-86772208D01*
X141979998Y-86775277D01*
X141980000Y-86775277D01*
X141980002Y-86775277D01*
X142008254Y-86772805D01*
X142197977Y-86756207D01*
X142409330Y-86699575D01*
X142607639Y-86607102D01*
X142786877Y-86481598D01*
X142941598Y-86326877D01*
X143067102Y-86147639D01*
X143159575Y-85949330D01*
X143216207Y-85737977D01*
X143235277Y-85520000D01*
X143233329Y-85497738D01*
X143226838Y-85423540D01*
X143216207Y-85302023D01*
X143159575Y-85090670D01*
X143067102Y-84892362D01*
X143067100Y-84892359D01*
X143067099Y-84892357D01*
X142941599Y-84713124D01*
X142878730Y-84650255D01*
X142786877Y-84558402D01*
X142607639Y-84432898D01*
X142456414Y-84362381D01*
X142403977Y-84316210D01*
X142384825Y-84249016D01*
X142405041Y-84182135D01*
X142456414Y-84137618D01*
X142607639Y-84067102D01*
X142786877Y-83941598D01*
X142941598Y-83786877D01*
X143067102Y-83607639D01*
X143159575Y-83409330D01*
X143216207Y-83197977D01*
X143235277Y-82980000D01*
X143234967Y-82976461D01*
X143225978Y-82873713D01*
X143216207Y-82762023D01*
X143159575Y-82550670D01*
X143067102Y-82352362D01*
X143067100Y-82352359D01*
X143067099Y-82352357D01*
X142941599Y-82173124D01*
X142868683Y-82100208D01*
X142786877Y-82018402D01*
X142607639Y-81892898D01*
X142456414Y-81822381D01*
X142403977Y-81776210D01*
X142384825Y-81709016D01*
X142405041Y-81642135D01*
X142456414Y-81597618D01*
X142607639Y-81527102D01*
X142786877Y-81401598D01*
X142941598Y-81246877D01*
X143014071Y-81143374D01*
X143068647Y-81099751D01*
X143115645Y-81090500D01*
X144512439Y-81090500D01*
X144579478Y-81110185D01*
X144625233Y-81162989D01*
X144635177Y-81232147D01*
X144606152Y-81295703D01*
X144578412Y-81319493D01*
X144555003Y-81334201D01*
X144497737Y-81370184D01*
X144370184Y-81497737D01*
X144274211Y-81650476D01*
X144214631Y-81820745D01*
X144214630Y-81820750D01*
X144194435Y-81999996D01*
X144194435Y-82000003D01*
X144214630Y-82179249D01*
X144214631Y-82179254D01*
X144274211Y-82349523D01*
X144275995Y-82352362D01*
X144370184Y-82502262D01*
X144497738Y-82629816D01*
X144650478Y-82725789D01*
X144820745Y-82785368D01*
X144827974Y-82786182D01*
X144892388Y-82813246D01*
X144901776Y-82821722D01*
X145494723Y-83414669D01*
X149585324Y-87505271D01*
X149585327Y-87505274D01*
X149585330Y-87505276D01*
X149616475Y-87526086D01*
X149691873Y-87576465D01*
X149810256Y-87625501D01*
X149810260Y-87625501D01*
X149810261Y-87625502D01*
X149935928Y-87650500D01*
X149935931Y-87650500D01*
X153935931Y-87650500D01*
X155099442Y-87650500D01*
X155166481Y-87670185D01*
X155212236Y-87722989D01*
X155222180Y-87792147D01*
X155216485Y-87815448D01*
X155214633Y-87820742D01*
X155214632Y-87820745D01*
X155214630Y-87820752D01*
X155213815Y-87827988D01*
X155186743Y-87892400D01*
X155178277Y-87901775D01*
X154766873Y-88313181D01*
X154705550Y-88346666D01*
X154679192Y-88349500D01*
X135869808Y-88349500D01*
X135802769Y-88329815D01*
X135757014Y-88277011D01*
X135747070Y-88207853D01*
X135776095Y-88144297D01*
X135782127Y-88137819D01*
X137505273Y-86414672D01*
X137505272Y-86414672D01*
X137505276Y-86414669D01*
X137576465Y-86308127D01*
X137625501Y-86189744D01*
X137625501Y-86189740D01*
X137625503Y-86189737D01*
X137631859Y-86157783D01*
X137631859Y-86157782D01*
X137650500Y-86064071D01*
X137650500Y-72505067D01*
X137669507Y-72439094D01*
X137725788Y-72349524D01*
X137780693Y-72192614D01*
X137785368Y-72179255D01*
X137786135Y-72172447D01*
X137805565Y-72000003D01*
X137805565Y-71999996D01*
X137785369Y-71820750D01*
X137785368Y-71820745D01*
X137760438Y-71749500D01*
X137725789Y-71650478D01*
X137704430Y-71616486D01*
X137674244Y-71568445D01*
X137629816Y-71497738D01*
X137502262Y-71370184D01*
X137497355Y-71367101D01*
X137349523Y-71274211D01*
X137179254Y-71214631D01*
X137179249Y-71214630D01*
X137000004Y-71194435D01*
X136999996Y-71194435D01*
X136820750Y-71214630D01*
X136820745Y-71214631D01*
X136650476Y-71274211D01*
X136497737Y-71370184D01*
X136370184Y-71497737D01*
X136274211Y-71650476D01*
X136214631Y-71820745D01*
X136214630Y-71820750D01*
X136194435Y-71999996D01*
X136194435Y-72000003D01*
X136214630Y-72179249D01*
X136214631Y-72179254D01*
X136274211Y-72349524D01*
X136330493Y-72439094D01*
X136349500Y-72505067D01*
X136349500Y-85679192D01*
X136329815Y-85746231D01*
X136313181Y-85766873D01*
X136015432Y-86064621D01*
X135954109Y-86098106D01*
X135884417Y-86093122D01*
X135828484Y-86051250D01*
X135804531Y-85990823D01*
X135785369Y-85820750D01*
X135785368Y-85820745D01*
X135756406Y-85737977D01*
X135725789Y-85650478D01*
X135629816Y-85497738D01*
X135502262Y-85370184D01*
X135439096Y-85330494D01*
X135349523Y-85274211D01*
X135179254Y-85214631D01*
X135179249Y-85214630D01*
X135000004Y-85194435D01*
X134999996Y-85194435D01*
X134820750Y-85214630D01*
X134820737Y-85214633D01*
X134650481Y-85274209D01*
X134650477Y-85274210D01*
X134560904Y-85330494D01*
X134494932Y-85349500D01*
X133935929Y-85349500D01*
X133810261Y-85374497D01*
X133810251Y-85374500D01*
X133779341Y-85387303D01*
X133779342Y-85387304D01*
X133691877Y-85423532D01*
X133691863Y-85423540D01*
X133585332Y-85494721D01*
X133585325Y-85494727D01*
X132766873Y-86313181D01*
X132705550Y-86346666D01*
X132679192Y-86349500D01*
X118320808Y-86349500D01*
X118253769Y-86329815D01*
X118233127Y-86313181D01*
X117686819Y-85766873D01*
X117653334Y-85705550D01*
X117650500Y-85679192D01*
X117650500Y-80935928D01*
X117625502Y-80810261D01*
X117625501Y-80810260D01*
X117625501Y-80810256D01*
X117618127Y-80792454D01*
X117593018Y-80731834D01*
X117576469Y-80691881D01*
X117576468Y-80691880D01*
X117576466Y-80691874D01*
X117553818Y-80657979D01*
X117505278Y-80585332D01*
X117505272Y-80585325D01*
X116854673Y-79934726D01*
X116854669Y-79934723D01*
X116748127Y-79863535D01*
X116629744Y-79814499D01*
X116629738Y-79814497D01*
X116504071Y-79789500D01*
X116504069Y-79789500D01*
X115779618Y-79789500D01*
X115712579Y-79769815D01*
X115678900Y-79735408D01*
X115677915Y-79736125D01*
X115550109Y-79560213D01*
X115399786Y-79409890D01*
X115227820Y-79284951D01*
X115222778Y-79282382D01*
X115219054Y-79280485D01*
X115168259Y-79232512D01*
X115151463Y-79164692D01*
X115173999Y-79098556D01*
X115219054Y-79059515D01*
X115227816Y-79055051D01*
X115256704Y-79034063D01*
X115399786Y-78930109D01*
X115399788Y-78930106D01*
X115399792Y-78930104D01*
X115550104Y-78779792D01*
X115550106Y-78779788D01*
X115550109Y-78779786D01*
X115634675Y-78663389D01*
X128899500Y-78663389D01*
X128899500Y-78836611D01*
X128926598Y-79007701D01*
X128980127Y-79172445D01*
X129058768Y-79326788D01*
X129160586Y-79466928D01*
X129283072Y-79589414D01*
X129423212Y-79691232D01*
X129577555Y-79769873D01*
X129742299Y-79823402D01*
X129913389Y-79850500D01*
X129913390Y-79850500D01*
X130086610Y-79850500D01*
X130086611Y-79850500D01*
X130257701Y-79823402D01*
X130422445Y-79769873D01*
X130576788Y-79691232D01*
X130716928Y-79589414D01*
X130839414Y-79466928D01*
X130941232Y-79326788D01*
X131019873Y-79172445D01*
X131073402Y-79007701D01*
X131100500Y-78836611D01*
X131100500Y-78663389D01*
X131073402Y-78492299D01*
X131019873Y-78327555D01*
X130941232Y-78173212D01*
X130839414Y-78033072D01*
X130716928Y-77910586D01*
X130576788Y-77808768D01*
X130547241Y-77793713D01*
X130422447Y-77730128D01*
X130422446Y-77730127D01*
X130422445Y-77730127D01*
X130257701Y-77676598D01*
X130257699Y-77676597D01*
X130257698Y-77676597D01*
X130126271Y-77655781D01*
X130086611Y-77649500D01*
X129913389Y-77649500D01*
X129873728Y-77655781D01*
X129742302Y-77676597D01*
X129577552Y-77730128D01*
X129423211Y-77808768D01*
X129405382Y-77821722D01*
X129283072Y-77910586D01*
X129283070Y-77910588D01*
X129283069Y-77910588D01*
X129160588Y-78033069D01*
X129160588Y-78033070D01*
X129160586Y-78033072D01*
X129147924Y-78050500D01*
X129058768Y-78173211D01*
X128980128Y-78327552D01*
X128926597Y-78492302D01*
X128908302Y-78607816D01*
X128899500Y-78663389D01*
X115634675Y-78663389D01*
X115675048Y-78607820D01*
X115675047Y-78607820D01*
X115675051Y-78607816D01*
X115771557Y-78418412D01*
X115837246Y-78216243D01*
X115870500Y-78006287D01*
X115870500Y-77793713D01*
X115837246Y-77583757D01*
X115771557Y-77381588D01*
X115675051Y-77192184D01*
X115675049Y-77192181D01*
X115675048Y-77192179D01*
X115550109Y-77020213D01*
X115399786Y-76869890D01*
X115227817Y-76744949D01*
X115218504Y-76740204D01*
X115167707Y-76692230D01*
X115150912Y-76624409D01*
X115173449Y-76558274D01*
X115218507Y-76519232D01*
X115227558Y-76514620D01*
X115399459Y-76389727D01*
X115399464Y-76389723D01*
X115549723Y-76239464D01*
X115549727Y-76239459D01*
X115674620Y-76067557D01*
X115771095Y-75878217D01*
X115836757Y-75676129D01*
X115836757Y-75676126D01*
X115847231Y-75610000D01*
X114653012Y-75610000D01*
X114685925Y-75552993D01*
X114720000Y-75425826D01*
X114720000Y-75294174D01*
X114685925Y-75167007D01*
X114653012Y-75110000D01*
X115847231Y-75110000D01*
X115836757Y-75043873D01*
X115836757Y-75043870D01*
X115771095Y-74841782D01*
X115674620Y-74652442D01*
X115549727Y-74480540D01*
X115549723Y-74480535D01*
X115399464Y-74330276D01*
X115399459Y-74330272D01*
X115227555Y-74205377D01*
X115218500Y-74200763D01*
X115167706Y-74152788D01*
X115150912Y-74084966D01*
X115173451Y-74018832D01*
X115218508Y-73979793D01*
X115227816Y-73975051D01*
X115307007Y-73917515D01*
X115399786Y-73850109D01*
X115399788Y-73850106D01*
X115399792Y-73850104D01*
X115550104Y-73699792D01*
X115550106Y-73699788D01*
X115550109Y-73699786D01*
X115675048Y-73527820D01*
X115675047Y-73527820D01*
X115675051Y-73527816D01*
X115771557Y-73338412D01*
X115837246Y-73136243D01*
X115870500Y-72926287D01*
X115870500Y-72713713D01*
X115837246Y-72503757D01*
X115771557Y-72301588D01*
X115675051Y-72112184D01*
X115675049Y-72112181D01*
X115675048Y-72112179D01*
X115550109Y-71940213D01*
X115399786Y-71789890D01*
X115227820Y-71664951D01*
X115224754Y-71663389D01*
X128899500Y-71663389D01*
X128899500Y-71836610D01*
X128925378Y-72000003D01*
X128926598Y-72007701D01*
X128969058Y-72138379D01*
X128980128Y-72172447D01*
X128990403Y-72192613D01*
X129058768Y-72326788D01*
X129160586Y-72466928D01*
X129283072Y-72589414D01*
X129423212Y-72691232D01*
X129577555Y-72769873D01*
X129742299Y-72823402D01*
X129913389Y-72850500D01*
X129913390Y-72850500D01*
X130086610Y-72850500D01*
X130086611Y-72850500D01*
X130257701Y-72823402D01*
X130422445Y-72769873D01*
X130576788Y-72691232D01*
X130716928Y-72589414D01*
X130839414Y-72466928D01*
X130941232Y-72326788D01*
X131019873Y-72172445D01*
X131073402Y-72007701D01*
X131100500Y-71836611D01*
X131100500Y-71663389D01*
X131073402Y-71492299D01*
X131019873Y-71327555D01*
X130941232Y-71173212D01*
X130839414Y-71033072D01*
X130716928Y-70910586D01*
X130576788Y-70808768D01*
X130422445Y-70730127D01*
X130257701Y-70676598D01*
X130257699Y-70676597D01*
X130257698Y-70676597D01*
X130110818Y-70653334D01*
X130086611Y-70649500D01*
X129913389Y-70649500D01*
X129889182Y-70653334D01*
X129742302Y-70676597D01*
X129577552Y-70730128D01*
X129423211Y-70808768D01*
X129343256Y-70866859D01*
X129283072Y-70910586D01*
X129283070Y-70910588D01*
X129283069Y-70910588D01*
X129160588Y-71033069D01*
X129160588Y-71033070D01*
X129160586Y-71033072D01*
X129160080Y-71033769D01*
X129058768Y-71173211D01*
X128980128Y-71327552D01*
X128926597Y-71492302D01*
X128899500Y-71663389D01*
X115224754Y-71663389D01*
X115038417Y-71568445D01*
X115038414Y-71568444D01*
X115038412Y-71568443D01*
X114956179Y-71541723D01*
X114898505Y-71502285D01*
X114871308Y-71437926D01*
X114870500Y-71423793D01*
X114870500Y-71100808D01*
X114890185Y-71033769D01*
X114906819Y-71013127D01*
X115233127Y-70686819D01*
X115294450Y-70653334D01*
X115320808Y-70650500D01*
X116064071Y-70650500D01*
X116148615Y-70633682D01*
X116189744Y-70625501D01*
X116308127Y-70576465D01*
X116315056Y-70571835D01*
X116414669Y-70505277D01*
X117233127Y-69686819D01*
X117294450Y-69653334D01*
X117320808Y-69650500D01*
X126064071Y-69650500D01*
X126148615Y-69633682D01*
X126189744Y-69625501D01*
X126308127Y-69576465D01*
X126317991Y-69569873D01*
X126324583Y-69565470D01*
X126384504Y-69525431D01*
X126414669Y-69505277D01*
X127233127Y-68686819D01*
X127294450Y-68653334D01*
X127320808Y-68650500D01*
X147509610Y-68650500D01*
X147576649Y-68670185D01*
G37*
%TD.AperFunction*%
%TA.AperFunction,Conductor*%
G36*
X186443365Y-68134231D02*
G01*
X186488699Y-68187396D01*
X186499500Y-68238011D01*
X186499500Y-87461988D01*
X186479815Y-87529027D01*
X186427011Y-87574782D01*
X186357853Y-87584726D01*
X186294297Y-87555701D01*
X186263118Y-87514393D01*
X186173600Y-87322422D01*
X186173599Y-87322420D01*
X186038113Y-87128926D01*
X186038108Y-87128920D01*
X185871082Y-86961894D01*
X185677578Y-86826399D01*
X185463492Y-86726570D01*
X185463486Y-86726567D01*
X185250000Y-86669364D01*
X185250000Y-87566988D01*
X185192993Y-87534075D01*
X185065826Y-87500000D01*
X184934174Y-87500000D01*
X184807007Y-87534075D01*
X184750000Y-87566988D01*
X184750000Y-86669364D01*
X184749999Y-86669364D01*
X184536513Y-86726567D01*
X184536507Y-86726570D01*
X184322422Y-86826399D01*
X184322420Y-86826400D01*
X184128926Y-86961886D01*
X184128920Y-86961891D01*
X183961891Y-87128920D01*
X183961890Y-87128922D01*
X183831880Y-87314595D01*
X183777303Y-87358219D01*
X183707804Y-87365412D01*
X183645450Y-87333890D01*
X183628730Y-87314594D01*
X183498494Y-87128597D01*
X183331402Y-86961506D01*
X183331395Y-86961501D01*
X183137834Y-86825967D01*
X183137830Y-86825965D01*
X183091865Y-86804531D01*
X182923663Y-86726097D01*
X182923659Y-86726096D01*
X182923655Y-86726094D01*
X182695413Y-86664938D01*
X182695403Y-86664936D01*
X182460001Y-86644341D01*
X182459999Y-86644341D01*
X182224596Y-86664936D01*
X182224586Y-86664938D01*
X181996344Y-86726094D01*
X181996335Y-86726098D01*
X181782171Y-86825964D01*
X181782169Y-86825965D01*
X181588597Y-86961505D01*
X181421506Y-87128596D01*
X181303854Y-87296623D01*
X181249277Y-87340248D01*
X181202279Y-87349500D01*
X181177721Y-87349500D01*
X181110682Y-87329815D01*
X181076146Y-87296623D01*
X180958494Y-87128597D01*
X180791402Y-86961506D01*
X180791401Y-86961505D01*
X180623377Y-86843853D01*
X180623376Y-86843852D01*
X180579751Y-86789275D01*
X180570500Y-86742277D01*
X180570500Y-81347193D01*
X180579939Y-81299740D01*
X180582130Y-81294450D01*
X180625501Y-81189744D01*
X180633841Y-81147816D01*
X180650500Y-81064069D01*
X180650500Y-78935931D01*
X180650500Y-78935928D01*
X180625502Y-78810261D01*
X180625501Y-78810260D01*
X180625501Y-78810256D01*
X180576465Y-78691873D01*
X180557434Y-78663390D01*
X180557433Y-78663388D01*
X180557433Y-78663387D01*
X180505279Y-78585334D01*
X180505273Y-78585326D01*
X176774673Y-74854726D01*
X176755301Y-74841782D01*
X176668127Y-74783535D01*
X176599906Y-74755277D01*
X176549744Y-74734499D01*
X176549738Y-74734497D01*
X176424071Y-74709500D01*
X176424069Y-74709500D01*
X170721940Y-74709500D01*
X170654901Y-74689815D01*
X170609146Y-74637011D01*
X170599202Y-74567853D01*
X170626351Y-74508403D01*
X170625475Y-74507705D01*
X170629811Y-74502266D01*
X170629816Y-74502262D01*
X170725789Y-74349522D01*
X170785368Y-74179255D01*
X170785369Y-74179249D01*
X170805565Y-74000003D01*
X170805565Y-73999996D01*
X170785369Y-73820750D01*
X170785366Y-73820737D01*
X170725790Y-73650481D01*
X170725789Y-73650478D01*
X170704008Y-73615814D01*
X170669506Y-73560903D01*
X170650500Y-73494931D01*
X170650500Y-71320808D01*
X170670185Y-71253769D01*
X170686819Y-71233127D01*
X171233127Y-70686819D01*
X171294450Y-70653334D01*
X171320808Y-70650500D01*
X175144071Y-70650500D01*
X175228615Y-70633682D01*
X175269744Y-70625501D01*
X175388127Y-70576465D01*
X175395056Y-70571835D01*
X175494669Y-70505277D01*
X176952238Y-69047706D01*
X177013559Y-69014223D01*
X177072006Y-69015613D01*
X177144592Y-69035063D01*
X177321034Y-69050500D01*
X177379999Y-69055659D01*
X177380000Y-69055659D01*
X177380001Y-69055659D01*
X177438966Y-69050500D01*
X177615408Y-69035063D01*
X177843663Y-68973903D01*
X178057830Y-68874035D01*
X178251401Y-68738495D01*
X178418495Y-68571401D01*
X178548425Y-68385842D01*
X178603002Y-68342217D01*
X178672500Y-68335023D01*
X178734855Y-68366546D01*
X178751575Y-68385842D01*
X178881281Y-68571082D01*
X178881505Y-68571401D01*
X179048599Y-68738495D01*
X179133941Y-68798252D01*
X179242165Y-68874032D01*
X179242167Y-68874033D01*
X179242170Y-68874035D01*
X179456337Y-68973903D01*
X179684592Y-69035063D01*
X179861034Y-69050500D01*
X179919999Y-69055659D01*
X179920000Y-69055659D01*
X179920001Y-69055659D01*
X179978966Y-69050500D01*
X180155408Y-69035063D01*
X180383663Y-68973903D01*
X180597830Y-68874035D01*
X180791401Y-68738495D01*
X180958495Y-68571401D01*
X181088730Y-68385405D01*
X181143307Y-68341781D01*
X181212805Y-68334587D01*
X181275160Y-68366110D01*
X181291879Y-68385405D01*
X181421890Y-68571078D01*
X181588917Y-68738105D01*
X181782421Y-68873600D01*
X181996507Y-68973429D01*
X181996516Y-68973433D01*
X182210000Y-69030634D01*
X182210000Y-68133012D01*
X182267007Y-68165925D01*
X182394174Y-68200000D01*
X182525826Y-68200000D01*
X182652993Y-68165925D01*
X182710000Y-68133012D01*
X182710000Y-69030633D01*
X182923483Y-68973433D01*
X182923492Y-68973429D01*
X183137578Y-68873600D01*
X183331082Y-68738105D01*
X183498105Y-68571082D01*
X183628425Y-68384968D01*
X183683002Y-68341344D01*
X183752501Y-68334151D01*
X183814855Y-68365673D01*
X183831575Y-68384968D01*
X183961894Y-68571082D01*
X184128917Y-68738105D01*
X184322421Y-68873600D01*
X184536507Y-68973429D01*
X184536516Y-68973433D01*
X184750000Y-69030634D01*
X184750000Y-68133012D01*
X184807007Y-68165925D01*
X184934174Y-68200000D01*
X185065826Y-68200000D01*
X185192993Y-68165925D01*
X185250000Y-68133012D01*
X185250000Y-69030633D01*
X185463483Y-68973433D01*
X185463492Y-68973429D01*
X185677578Y-68873600D01*
X185871082Y-68738105D01*
X186038105Y-68571082D01*
X186173600Y-68377578D01*
X186263118Y-68185606D01*
X186309290Y-68133167D01*
X186376484Y-68114015D01*
X186443365Y-68134231D01*
G37*
%TD.AperFunction*%
%TA.AperFunction,Conductor*%
G36*
X170894795Y-66670185D02*
G01*
X170940550Y-66722989D01*
X170951045Y-66787752D01*
X170949500Y-66802127D01*
X170949500Y-66802133D01*
X170949500Y-66802134D01*
X170949500Y-68597870D01*
X170949501Y-68597876D01*
X170955908Y-68657483D01*
X171006202Y-68792328D01*
X171006206Y-68792335D01*
X171092452Y-68907544D01*
X171092455Y-68907547D01*
X171207664Y-68993793D01*
X171207671Y-68993797D01*
X171342517Y-69044091D01*
X171342516Y-69044091D01*
X171349444Y-69044835D01*
X171402127Y-69050500D01*
X173197872Y-69050499D01*
X173257483Y-69044091D01*
X173392331Y-68993796D01*
X173507546Y-68907546D01*
X173593796Y-68792331D01*
X173642810Y-68660916D01*
X173684681Y-68604984D01*
X173750145Y-68580566D01*
X173818418Y-68595417D01*
X173846673Y-68616569D01*
X173968599Y-68738495D01*
X174053941Y-68798252D01*
X174162165Y-68874032D01*
X174162167Y-68874033D01*
X174162170Y-68874035D01*
X174376337Y-68973903D01*
X174604592Y-69035063D01*
X174818217Y-69053753D01*
X174883286Y-69079205D01*
X174924265Y-69135796D01*
X174928143Y-69205558D01*
X174895092Y-69264961D01*
X174846874Y-69313180D01*
X174785551Y-69346666D01*
X174759192Y-69349500D01*
X170935929Y-69349500D01*
X170810261Y-69374497D01*
X170810251Y-69374500D01*
X170779341Y-69387303D01*
X170779342Y-69387304D01*
X170691877Y-69423532D01*
X170691863Y-69423540D01*
X170585332Y-69494721D01*
X170585325Y-69494727D01*
X169494726Y-70585326D01*
X169494723Y-70585331D01*
X169425719Y-70688604D01*
X169424069Y-70691072D01*
X169423532Y-70691877D01*
X169374500Y-70810251D01*
X169374497Y-70810261D01*
X169349500Y-70935928D01*
X169349500Y-73494931D01*
X169330494Y-73560903D01*
X169274211Y-73650477D01*
X169274209Y-73650481D01*
X169214633Y-73820737D01*
X169214630Y-73820750D01*
X169194435Y-73999996D01*
X169194435Y-74000003D01*
X169214630Y-74179249D01*
X169214631Y-74179254D01*
X169274211Y-74349523D01*
X169370184Y-74502262D01*
X169374525Y-74507705D01*
X169372166Y-74509586D01*
X169399226Y-74559142D01*
X169394242Y-74628834D01*
X169352370Y-74684767D01*
X169286906Y-74709184D01*
X169278060Y-74709500D01*
X158355644Y-74709500D01*
X158288605Y-74689815D01*
X158254069Y-74656623D01*
X158253720Y-74656125D01*
X158181598Y-74553123D01*
X158026877Y-74398402D01*
X157847639Y-74272898D01*
X157847640Y-74272898D01*
X157847638Y-74272897D01*
X157695824Y-74202105D01*
X157643385Y-74155932D01*
X157624233Y-74088739D01*
X157644449Y-74021858D01*
X157695825Y-73977340D01*
X157847388Y-73906666D01*
X157909571Y-73863124D01*
X157349410Y-73302962D01*
X157412993Y-73285925D01*
X157527007Y-73220099D01*
X157620099Y-73127007D01*
X157685925Y-73012993D01*
X157702962Y-72949409D01*
X158263124Y-73509570D01*
X158306668Y-73447385D01*
X158306669Y-73447383D01*
X158399100Y-73249164D01*
X158399105Y-73249150D01*
X158455710Y-73037894D01*
X158455712Y-73037884D01*
X158474775Y-72820000D01*
X158474775Y-72819999D01*
X158455712Y-72602115D01*
X158455710Y-72602105D01*
X158399105Y-72390849D01*
X158399101Y-72390840D01*
X158306667Y-72192614D01*
X158306666Y-72192612D01*
X158263124Y-72130428D01*
X158263124Y-72130427D01*
X157702962Y-72690589D01*
X157685925Y-72627007D01*
X157620099Y-72512993D01*
X157527007Y-72419901D01*
X157412993Y-72354075D01*
X157349409Y-72337037D01*
X157909571Y-71776874D01*
X157847387Y-71733333D01*
X157695824Y-71662658D01*
X157643385Y-71616486D01*
X157624233Y-71549292D01*
X157644449Y-71482411D01*
X157695822Y-71437895D01*
X157847639Y-71367102D01*
X158026877Y-71241598D01*
X158181598Y-71086877D01*
X158307102Y-70907639D01*
X158399575Y-70709330D01*
X158456207Y-70497977D01*
X158475277Y-70280000D01*
X158456207Y-70062023D01*
X158399575Y-69850670D01*
X158307102Y-69652362D01*
X158307100Y-69652359D01*
X158307099Y-69652357D01*
X158181599Y-69473124D01*
X158132007Y-69423532D01*
X158026877Y-69318402D01*
X157878678Y-69214632D01*
X157847638Y-69192897D01*
X157725183Y-69135796D01*
X157649330Y-69100425D01*
X157649326Y-69100424D01*
X157649322Y-69100422D01*
X157437977Y-69043793D01*
X157220002Y-69024723D01*
X157219998Y-69024723D01*
X157101833Y-69035061D01*
X157002023Y-69043793D01*
X157002020Y-69043793D01*
X156790677Y-69100422D01*
X156790668Y-69100426D01*
X156592361Y-69192898D01*
X156592357Y-69192900D01*
X156413121Y-69318402D01*
X156258402Y-69473121D01*
X156132900Y-69652357D01*
X156132898Y-69652361D01*
X156040426Y-69850668D01*
X156040422Y-69850677D01*
X155983793Y-70062020D01*
X155983793Y-70062024D01*
X155964723Y-70279997D01*
X155964723Y-70280002D01*
X155983793Y-70497975D01*
X155983793Y-70497979D01*
X156040422Y-70709322D01*
X156040424Y-70709326D01*
X156040425Y-70709330D01*
X156066822Y-70765938D01*
X156132897Y-70907638D01*
X156134963Y-70910588D01*
X156258402Y-71086877D01*
X156413123Y-71241598D01*
X156592360Y-71367101D01*
X156592361Y-71367102D01*
X156744175Y-71437894D01*
X156796614Y-71484066D01*
X156815766Y-71551260D01*
X156795550Y-71618141D01*
X156744175Y-71662658D01*
X156592613Y-71733333D01*
X156530428Y-71776874D01*
X157090591Y-72337037D01*
X157027007Y-72354075D01*
X156912993Y-72419901D01*
X156819901Y-72512993D01*
X156754075Y-72627007D01*
X156737037Y-72690591D01*
X156176874Y-72130428D01*
X156133333Y-72192613D01*
X156040898Y-72390840D01*
X156040894Y-72390849D01*
X155984289Y-72602105D01*
X155984287Y-72602115D01*
X155965225Y-72819999D01*
X155965225Y-72820000D01*
X155984287Y-73037884D01*
X155984289Y-73037894D01*
X156040894Y-73249150D01*
X156040898Y-73249159D01*
X156133333Y-73447387D01*
X156176874Y-73509571D01*
X156737037Y-72949408D01*
X156754075Y-73012993D01*
X156819901Y-73127007D01*
X156912993Y-73220099D01*
X157027007Y-73285925D01*
X157090590Y-73302962D01*
X156530427Y-73863124D01*
X156592613Y-73906667D01*
X156592615Y-73906668D01*
X156744174Y-73977341D01*
X156796614Y-74023513D01*
X156815766Y-74090706D01*
X156795551Y-74157588D01*
X156744176Y-74202105D01*
X156592358Y-74272900D01*
X156592357Y-74272900D01*
X156413121Y-74398402D01*
X156258403Y-74553120D01*
X156235731Y-74585500D01*
X156186280Y-74656125D01*
X156185931Y-74656623D01*
X156131355Y-74700248D01*
X156084356Y-74709500D01*
X154774500Y-74709500D01*
X154707461Y-74689815D01*
X154661706Y-74637011D01*
X154650500Y-74585500D01*
X154650500Y-68935929D01*
X154647932Y-68923023D01*
X154654156Y-68853431D01*
X154697016Y-68798252D01*
X154762905Y-68775004D01*
X154810504Y-68781785D01*
X154820740Y-68785367D01*
X154820750Y-68785369D01*
X154999996Y-68805565D01*
X155000000Y-68805565D01*
X155000004Y-68805565D01*
X155179249Y-68785369D01*
X155179251Y-68785368D01*
X155179255Y-68785368D01*
X155179258Y-68785366D01*
X155179262Y-68785366D01*
X155269377Y-68753832D01*
X155349522Y-68725789D01*
X155439096Y-68669505D01*
X155505068Y-68650500D01*
X167494932Y-68650500D01*
X167560903Y-68669505D01*
X167561985Y-68670185D01*
X167650477Y-68725789D01*
X167650481Y-68725790D01*
X167820737Y-68785366D01*
X167820743Y-68785367D01*
X167820745Y-68785368D01*
X167820746Y-68785368D01*
X167820750Y-68785369D01*
X167999996Y-68805565D01*
X168000000Y-68805565D01*
X168000004Y-68805565D01*
X168179249Y-68785369D01*
X168179252Y-68785368D01*
X168179255Y-68785368D01*
X168349522Y-68725789D01*
X168502262Y-68629816D01*
X168629816Y-68502262D01*
X168725789Y-68349522D01*
X168785368Y-68179255D01*
X168805565Y-68000000D01*
X168799931Y-67950000D01*
X168785369Y-67820750D01*
X168785368Y-67820745D01*
X168725788Y-67650476D01*
X168629815Y-67497737D01*
X168502262Y-67370184D01*
X168349523Y-67274211D01*
X168179254Y-67214631D01*
X168179249Y-67214630D01*
X168000004Y-67194435D01*
X167999996Y-67194435D01*
X167820750Y-67214630D01*
X167820737Y-67214633D01*
X167650481Y-67274209D01*
X167650477Y-67274210D01*
X167560904Y-67330494D01*
X167494932Y-67349500D01*
X155505068Y-67349500D01*
X155439096Y-67330494D01*
X155349522Y-67274210D01*
X155349518Y-67274209D01*
X155179262Y-67214633D01*
X155179250Y-67214630D01*
X155009174Y-67195468D01*
X154944761Y-67168402D01*
X154905205Y-67110807D01*
X154903068Y-67040970D01*
X154935373Y-66984571D01*
X155233129Y-66686816D01*
X155294450Y-66653334D01*
X155320808Y-66650500D01*
X170827756Y-66650500D01*
X170894795Y-66670185D01*
G37*
%TD.AperFunction*%
%TA.AperFunction,Conductor*%
G36*
X151169356Y-72158641D02*
G01*
X151164372Y-72228333D01*
X151146959Y-72255426D01*
X151155750Y-72222620D01*
X151155750Y-72147380D01*
X151148565Y-72120565D01*
X151169356Y-72158641D01*
G37*
%TD.AperFunction*%
%TA.AperFunction,Conductor*%
G36*
X184534075Y-67507007D02*
G01*
X184500000Y-67634174D01*
X184500000Y-67765826D01*
X184534075Y-67892993D01*
X184566988Y-67950000D01*
X182893012Y-67950000D01*
X182925925Y-67892993D01*
X182960000Y-67765826D01*
X182960000Y-67634174D01*
X182925925Y-67507007D01*
X182893012Y-67450000D01*
X184566988Y-67450000D01*
X184534075Y-67507007D01*
G37*
%TD.AperFunction*%
%TA.AperFunction,Conductor*%
G36*
X186442539Y-65520185D02*
G01*
X186488294Y-65572989D01*
X186499500Y-65624500D01*
X186499500Y-67161988D01*
X186479815Y-67229027D01*
X186427011Y-67274782D01*
X186357853Y-67284726D01*
X186294297Y-67255701D01*
X186263118Y-67214393D01*
X186173600Y-67022422D01*
X186173599Y-67022420D01*
X186038113Y-66828926D01*
X186038108Y-66828920D01*
X185871082Y-66661894D01*
X185677578Y-66526399D01*
X185463492Y-66426570D01*
X185463486Y-66426567D01*
X185250000Y-66369364D01*
X185250000Y-67266988D01*
X185192993Y-67234075D01*
X185065826Y-67200000D01*
X184934174Y-67200000D01*
X184807007Y-67234075D01*
X184750000Y-67266988D01*
X184750000Y-66369364D01*
X184749999Y-66369364D01*
X184536513Y-66426567D01*
X184536507Y-66426570D01*
X184322422Y-66526399D01*
X184322420Y-66526400D01*
X184128926Y-66661886D01*
X184128920Y-66661891D01*
X183961891Y-66828920D01*
X183961890Y-66828922D01*
X183831575Y-67015031D01*
X183776998Y-67058655D01*
X183707499Y-67065848D01*
X183645145Y-67034326D01*
X183628425Y-67015031D01*
X183498109Y-66828922D01*
X183498108Y-66828920D01*
X183331082Y-66661894D01*
X183137578Y-66526399D01*
X182923492Y-66426570D01*
X182923486Y-66426567D01*
X182710000Y-66369364D01*
X182710000Y-67266988D01*
X182652993Y-67234075D01*
X182525826Y-67200000D01*
X182394174Y-67200000D01*
X182267007Y-67234075D01*
X182210000Y-67266988D01*
X182210000Y-66369364D01*
X182209999Y-66369364D01*
X181996513Y-66426567D01*
X181996507Y-66426570D01*
X181782422Y-66526399D01*
X181782420Y-66526400D01*
X181588926Y-66661886D01*
X181588920Y-66661891D01*
X181421891Y-66828920D01*
X181421890Y-66828922D01*
X181291880Y-67014595D01*
X181237303Y-67058219D01*
X181167804Y-67065412D01*
X181105450Y-67033890D01*
X181088730Y-67014594D01*
X180958494Y-66828597D01*
X180791402Y-66661506D01*
X180791395Y-66661501D01*
X180779731Y-66653334D01*
X180752521Y-66634281D01*
X180597834Y-66525967D01*
X180597830Y-66525965D01*
X180537295Y-66497737D01*
X180383663Y-66426097D01*
X180383659Y-66426096D01*
X180383655Y-66426094D01*
X180155413Y-66364938D01*
X180155403Y-66364936D01*
X179920001Y-66344341D01*
X179919999Y-66344341D01*
X179684596Y-66364936D01*
X179684586Y-66364938D01*
X179456344Y-66426094D01*
X179456335Y-66426098D01*
X179242171Y-66525964D01*
X179242169Y-66525965D01*
X179048597Y-66661505D01*
X178881505Y-66828597D01*
X178751575Y-67014158D01*
X178696998Y-67057783D01*
X178627500Y-67064977D01*
X178565145Y-67033454D01*
X178548425Y-67014158D01*
X178418494Y-66828597D01*
X178251402Y-66661506D01*
X178251395Y-66661501D01*
X178239731Y-66653334D01*
X178212521Y-66634281D01*
X178057834Y-66525967D01*
X178057830Y-66525965D01*
X177997295Y-66497737D01*
X177843663Y-66426097D01*
X177843659Y-66426096D01*
X177843655Y-66426094D01*
X177615413Y-66364938D01*
X177615403Y-66364936D01*
X177380001Y-66344341D01*
X177379999Y-66344341D01*
X177144596Y-66364936D01*
X177144586Y-66364938D01*
X176916344Y-66426094D01*
X176916335Y-66426098D01*
X176702171Y-66525964D01*
X176702169Y-66525965D01*
X176508597Y-66661505D01*
X176341505Y-66828597D01*
X176211575Y-67014158D01*
X176156998Y-67057783D01*
X176087500Y-67064977D01*
X176025145Y-67033454D01*
X176008425Y-67014158D01*
X175878494Y-66828597D01*
X175711402Y-66661506D01*
X175711395Y-66661501D01*
X175699731Y-66653334D01*
X175646650Y-66616166D01*
X175517832Y-66525966D01*
X175396282Y-66469285D01*
X175349843Y-66429449D01*
X175349134Y-66430032D01*
X175345834Y-66426010D01*
X175345591Y-66425802D01*
X175345276Y-66425330D01*
X175345274Y-66425328D01*
X175345270Y-66425323D01*
X174632127Y-65712181D01*
X174598642Y-65650858D01*
X174603626Y-65581167D01*
X174645498Y-65525233D01*
X174710962Y-65500816D01*
X174719808Y-65500500D01*
X186375500Y-65500500D01*
X186442539Y-65520185D01*
G37*
%TD.AperFunction*%
%TD*%
D20*
X123000000Y-79000000D03*
X131000000Y-67000000D03*
X149000000Y-66000000D03*
X94000000Y-82000000D03*
X155000000Y-68000000D03*
X154000000Y-77000000D03*
X168000000Y-68000000D03*
X153000000Y-70000000D03*
X154000000Y-67000000D03*
X152000000Y-69000000D03*
X167000000Y-82000000D03*
X170000000Y-74000000D03*
X165000000Y-77000000D03*
X160000000Y-87000000D03*
X174000000Y-84000000D03*
X145000000Y-82000000D03*
X137000000Y-72000000D03*
X135000000Y-86000000D03*
X156000000Y-88000000D03*
D21*
X114220000Y-72820000D03*
X114220000Y-75360000D03*
X114220000Y-77900000D03*
X114220000Y-80440000D03*
X114220000Y-82980000D03*
X98980000Y-77900000D03*
X98980000Y-75360000D03*
X98980000Y-72820000D03*
X92900000Y-74250000D03*
X92900000Y-76790000D03*
X84800000Y-82400000D03*
X84800000Y-77400000D03*
X84800000Y-72400000D03*
X141980000Y-70280000D03*
X141980000Y-72820000D03*
X141980000Y-75360000D03*
X141980000Y-77900000D03*
X141980000Y-80440000D03*
X141980000Y-82980000D03*
X141980000Y-85520000D03*
X157220000Y-85520000D03*
X157220000Y-82980000D03*
X157220000Y-80440000D03*
X157220000Y-77900000D03*
X157220000Y-75360000D03*
X157220000Y-72820000D03*
X157220000Y-70280000D03*
X148330000Y-69645000D03*
X150870000Y-69645000D03*
X148330000Y-72185000D03*
X150870000Y-72185000D03*
X130000000Y-71750000D03*
X130000000Y-78750000D03*
X172300000Y-88000000D03*
X174840000Y-88000000D03*
X177380000Y-88000000D03*
X179920000Y-88000000D03*
X182460000Y-88000000D03*
X185000000Y-88000000D03*
X185000000Y-67700000D03*
X182460000Y-67700000D03*
X179920000Y-67700000D03*
X177380000Y-67700000D03*
X174840000Y-67700000D03*
X172300000Y-67700000D03*
M02*
