%TF.GenerationSoftware,KiCad,Pcbnew,8.0.3*%
%TF.CreationDate,2024-07-22T20:15:04+05:30*%
%TF.ProjectId,learn_modbus_v1,6c656172-6e5f-46d6-9f64-6275735f7631,rev?*%
%TF.SameCoordinates,Original*%
%TF.FileFunction,Legend,Bot*%
%TF.FilePolarity,Positive*%
%FSLAX46Y46*%
G04 Gerber Fmt 4.6, Leading zero omitted, Abs format (unit mm)*
G04 Created by KiCad (PCBNEW 8.0.3) date 2024-07-22 20:15:04*
%MOMM*%
%LPD*%
G01*
G04 APERTURE LIST*
%ADD10C,0.150000*%
%ADD11C,0.250000*%
%ADD12C,0.200000*%
%ADD13C,0.350000*%
G04 APERTURE END LIST*
D10*
X85193922Y-88740124D02*
X85765350Y-88740124D01*
X85479636Y-87740124D02*
X85479636Y-88740124D01*
X86003446Y-88740124D02*
X86670112Y-87740124D01*
X86670112Y-88740124D02*
X86003446Y-87740124D01*
X87812970Y-88121077D02*
X88574875Y-88121077D01*
X89051065Y-88121077D02*
X89812970Y-88121077D01*
X91622493Y-87740124D02*
X91289160Y-88216315D01*
X91051065Y-87740124D02*
X91051065Y-88740124D01*
X91051065Y-88740124D02*
X91432017Y-88740124D01*
X91432017Y-88740124D02*
X91527255Y-88692505D01*
X91527255Y-88692505D02*
X91574874Y-88644886D01*
X91574874Y-88644886D02*
X91622493Y-88549648D01*
X91622493Y-88549648D02*
X91622493Y-88406791D01*
X91622493Y-88406791D02*
X91574874Y-88311553D01*
X91574874Y-88311553D02*
X91527255Y-88263934D01*
X91527255Y-88263934D02*
X91432017Y-88216315D01*
X91432017Y-88216315D02*
X91051065Y-88216315D01*
X91908208Y-88740124D02*
X92479636Y-88740124D01*
X92193922Y-87740124D02*
X92193922Y-88740124D01*
X92812970Y-88740124D02*
X92812970Y-87930601D01*
X92812970Y-87930601D02*
X92860589Y-87835363D01*
X92860589Y-87835363D02*
X92908208Y-87787744D01*
X92908208Y-87787744D02*
X93003446Y-87740124D01*
X93003446Y-87740124D02*
X93193922Y-87740124D01*
X93193922Y-87740124D02*
X93289160Y-87787744D01*
X93289160Y-87787744D02*
X93336779Y-87835363D01*
X93336779Y-87835363D02*
X93384398Y-87930601D01*
X93384398Y-87930601D02*
X93384398Y-88740124D01*
X95193922Y-87740124D02*
X94860589Y-88216315D01*
X94622494Y-87740124D02*
X94622494Y-88740124D01*
X94622494Y-88740124D02*
X95003446Y-88740124D01*
X95003446Y-88740124D02*
X95098684Y-88692505D01*
X95098684Y-88692505D02*
X95146303Y-88644886D01*
X95146303Y-88644886D02*
X95193922Y-88549648D01*
X95193922Y-88549648D02*
X95193922Y-88406791D01*
X95193922Y-88406791D02*
X95146303Y-88311553D01*
X95146303Y-88311553D02*
X95098684Y-88263934D01*
X95098684Y-88263934D02*
X95003446Y-88216315D01*
X95003446Y-88216315D02*
X94622494Y-88216315D01*
X95527256Y-87740124D02*
X96051065Y-88406791D01*
X95527256Y-88406791D02*
X96051065Y-87740124D01*
X85908207Y-86130180D02*
X85574874Y-86606371D01*
X85336779Y-86130180D02*
X85336779Y-87130180D01*
X85336779Y-87130180D02*
X85717731Y-87130180D01*
X85717731Y-87130180D02*
X85812969Y-87082561D01*
X85812969Y-87082561D02*
X85860588Y-87034942D01*
X85860588Y-87034942D02*
X85908207Y-86939704D01*
X85908207Y-86939704D02*
X85908207Y-86796847D01*
X85908207Y-86796847D02*
X85860588Y-86701609D01*
X85860588Y-86701609D02*
X85812969Y-86653990D01*
X85812969Y-86653990D02*
X85717731Y-86606371D01*
X85717731Y-86606371D02*
X85336779Y-86606371D01*
X86241541Y-87130180D02*
X86908207Y-86130180D01*
X86908207Y-87130180D02*
X86241541Y-86130180D01*
X88051065Y-86511133D02*
X88812970Y-86511133D01*
X89289160Y-86511133D02*
X90051065Y-86511133D01*
X91860588Y-86130180D02*
X91527255Y-86606371D01*
X91289160Y-86130180D02*
X91289160Y-87130180D01*
X91289160Y-87130180D02*
X91670112Y-87130180D01*
X91670112Y-87130180D02*
X91765350Y-87082561D01*
X91765350Y-87082561D02*
X91812969Y-87034942D01*
X91812969Y-87034942D02*
X91860588Y-86939704D01*
X91860588Y-86939704D02*
X91860588Y-86796847D01*
X91860588Y-86796847D02*
X91812969Y-86701609D01*
X91812969Y-86701609D02*
X91765350Y-86653990D01*
X91765350Y-86653990D02*
X91670112Y-86606371D01*
X91670112Y-86606371D02*
X91289160Y-86606371D01*
X92146303Y-87130180D02*
X92717731Y-87130180D01*
X92432017Y-86130180D02*
X92432017Y-87130180D01*
X93051065Y-87130180D02*
X93051065Y-86320657D01*
X93051065Y-86320657D02*
X93098684Y-86225419D01*
X93098684Y-86225419D02*
X93146303Y-86177800D01*
X93146303Y-86177800D02*
X93241541Y-86130180D01*
X93241541Y-86130180D02*
X93432017Y-86130180D01*
X93432017Y-86130180D02*
X93527255Y-86177800D01*
X93527255Y-86177800D02*
X93574874Y-86225419D01*
X93574874Y-86225419D02*
X93622493Y-86320657D01*
X93622493Y-86320657D02*
X93622493Y-87130180D01*
X94717732Y-87130180D02*
X95289160Y-87130180D01*
X95003446Y-86130180D02*
X95003446Y-87130180D01*
X95527256Y-86130180D02*
X96051065Y-86796847D01*
X95527256Y-86796847D02*
X96051065Y-86130180D01*
D11*
X143402568Y-79355268D02*
X143402568Y-80355268D01*
X143402568Y-80355268D02*
X143735901Y-79640983D01*
X143735901Y-79640983D02*
X144069234Y-80355268D01*
X144069234Y-80355268D02*
X144069234Y-79355268D01*
X144688282Y-79355268D02*
X144593044Y-79402888D01*
X144593044Y-79402888D02*
X144545425Y-79450507D01*
X144545425Y-79450507D02*
X144497806Y-79545745D01*
X144497806Y-79545745D02*
X144497806Y-79831459D01*
X144497806Y-79831459D02*
X144545425Y-79926697D01*
X144545425Y-79926697D02*
X144593044Y-79974316D01*
X144593044Y-79974316D02*
X144688282Y-80021935D01*
X144688282Y-80021935D02*
X144831139Y-80021935D01*
X144831139Y-80021935D02*
X144926377Y-79974316D01*
X144926377Y-79974316D02*
X144973996Y-79926697D01*
X144973996Y-79926697D02*
X145021615Y-79831459D01*
X145021615Y-79831459D02*
X145021615Y-79545745D01*
X145021615Y-79545745D02*
X144973996Y-79450507D01*
X144973996Y-79450507D02*
X144926377Y-79402888D01*
X144926377Y-79402888D02*
X144831139Y-79355268D01*
X144831139Y-79355268D02*
X144688282Y-79355268D01*
X145878758Y-79355268D02*
X145878758Y-80355268D01*
X145878758Y-79402888D02*
X145783520Y-79355268D01*
X145783520Y-79355268D02*
X145593044Y-79355268D01*
X145593044Y-79355268D02*
X145497806Y-79402888D01*
X145497806Y-79402888D02*
X145450187Y-79450507D01*
X145450187Y-79450507D02*
X145402568Y-79545745D01*
X145402568Y-79545745D02*
X145402568Y-79831459D01*
X145402568Y-79831459D02*
X145450187Y-79926697D01*
X145450187Y-79926697D02*
X145497806Y-79974316D01*
X145497806Y-79974316D02*
X145593044Y-80021935D01*
X145593044Y-80021935D02*
X145783520Y-80021935D01*
X145783520Y-80021935D02*
X145878758Y-79974316D01*
X146354949Y-79355268D02*
X146354949Y-80355268D01*
X146354949Y-79974316D02*
X146450187Y-80021935D01*
X146450187Y-80021935D02*
X146640663Y-80021935D01*
X146640663Y-80021935D02*
X146735901Y-79974316D01*
X146735901Y-79974316D02*
X146783520Y-79926697D01*
X146783520Y-79926697D02*
X146831139Y-79831459D01*
X146831139Y-79831459D02*
X146831139Y-79545745D01*
X146831139Y-79545745D02*
X146783520Y-79450507D01*
X146783520Y-79450507D02*
X146735901Y-79402888D01*
X146735901Y-79402888D02*
X146640663Y-79355268D01*
X146640663Y-79355268D02*
X146450187Y-79355268D01*
X146450187Y-79355268D02*
X146354949Y-79402888D01*
X147688282Y-80021935D02*
X147688282Y-79355268D01*
X147259711Y-80021935D02*
X147259711Y-79498126D01*
X147259711Y-79498126D02*
X147307330Y-79402888D01*
X147307330Y-79402888D02*
X147402568Y-79355268D01*
X147402568Y-79355268D02*
X147545425Y-79355268D01*
X147545425Y-79355268D02*
X147640663Y-79402888D01*
X147640663Y-79402888D02*
X147688282Y-79450507D01*
X148116854Y-79402888D02*
X148212092Y-79355268D01*
X148212092Y-79355268D02*
X148402568Y-79355268D01*
X148402568Y-79355268D02*
X148497806Y-79402888D01*
X148497806Y-79402888D02*
X148545425Y-79498126D01*
X148545425Y-79498126D02*
X148545425Y-79545745D01*
X148545425Y-79545745D02*
X148497806Y-79640983D01*
X148497806Y-79640983D02*
X148402568Y-79688602D01*
X148402568Y-79688602D02*
X148259711Y-79688602D01*
X148259711Y-79688602D02*
X148164473Y-79736221D01*
X148164473Y-79736221D02*
X148116854Y-79831459D01*
X148116854Y-79831459D02*
X148116854Y-79879078D01*
X148116854Y-79879078D02*
X148164473Y-79974316D01*
X148164473Y-79974316D02*
X148259711Y-80021935D01*
X148259711Y-80021935D02*
X148402568Y-80021935D01*
X148402568Y-80021935D02*
X148497806Y-79974316D01*
X150307330Y-79355268D02*
X149973997Y-79831459D01*
X149735902Y-79355268D02*
X149735902Y-80355268D01*
X149735902Y-80355268D02*
X150116854Y-80355268D01*
X150116854Y-80355268D02*
X150212092Y-80307649D01*
X150212092Y-80307649D02*
X150259711Y-80260030D01*
X150259711Y-80260030D02*
X150307330Y-80164792D01*
X150307330Y-80164792D02*
X150307330Y-80021935D01*
X150307330Y-80021935D02*
X150259711Y-79926697D01*
X150259711Y-79926697D02*
X150212092Y-79879078D01*
X150212092Y-79879078D02*
X150116854Y-79831459D01*
X150116854Y-79831459D02*
X149735902Y-79831459D01*
X150593045Y-80355268D02*
X151164473Y-80355268D01*
X150878759Y-79355268D02*
X150878759Y-80355268D01*
X151497807Y-80355268D02*
X151497807Y-79545745D01*
X151497807Y-79545745D02*
X151545426Y-79450507D01*
X151545426Y-79450507D02*
X151593045Y-79402888D01*
X151593045Y-79402888D02*
X151688283Y-79355268D01*
X151688283Y-79355268D02*
X151878759Y-79355268D01*
X151878759Y-79355268D02*
X151973997Y-79402888D01*
X151973997Y-79402888D02*
X152021616Y-79450507D01*
X152021616Y-79450507D02*
X152069235Y-79545745D01*
X152069235Y-79545745D02*
X152069235Y-80355268D01*
X143402568Y-77745324D02*
X143402568Y-78745324D01*
X143402568Y-78745324D02*
X143735901Y-78031039D01*
X143735901Y-78031039D02*
X144069234Y-78745324D01*
X144069234Y-78745324D02*
X144069234Y-77745324D01*
X144688282Y-77745324D02*
X144593044Y-77792944D01*
X144593044Y-77792944D02*
X144545425Y-77840563D01*
X144545425Y-77840563D02*
X144497806Y-77935801D01*
X144497806Y-77935801D02*
X144497806Y-78221515D01*
X144497806Y-78221515D02*
X144545425Y-78316753D01*
X144545425Y-78316753D02*
X144593044Y-78364372D01*
X144593044Y-78364372D02*
X144688282Y-78411991D01*
X144688282Y-78411991D02*
X144831139Y-78411991D01*
X144831139Y-78411991D02*
X144926377Y-78364372D01*
X144926377Y-78364372D02*
X144973996Y-78316753D01*
X144973996Y-78316753D02*
X145021615Y-78221515D01*
X145021615Y-78221515D02*
X145021615Y-77935801D01*
X145021615Y-77935801D02*
X144973996Y-77840563D01*
X144973996Y-77840563D02*
X144926377Y-77792944D01*
X144926377Y-77792944D02*
X144831139Y-77745324D01*
X144831139Y-77745324D02*
X144688282Y-77745324D01*
X145878758Y-77745324D02*
X145878758Y-78745324D01*
X145878758Y-77792944D02*
X145783520Y-77745324D01*
X145783520Y-77745324D02*
X145593044Y-77745324D01*
X145593044Y-77745324D02*
X145497806Y-77792944D01*
X145497806Y-77792944D02*
X145450187Y-77840563D01*
X145450187Y-77840563D02*
X145402568Y-77935801D01*
X145402568Y-77935801D02*
X145402568Y-78221515D01*
X145402568Y-78221515D02*
X145450187Y-78316753D01*
X145450187Y-78316753D02*
X145497806Y-78364372D01*
X145497806Y-78364372D02*
X145593044Y-78411991D01*
X145593044Y-78411991D02*
X145783520Y-78411991D01*
X145783520Y-78411991D02*
X145878758Y-78364372D01*
X146354949Y-77745324D02*
X146354949Y-78745324D01*
X146354949Y-78364372D02*
X146450187Y-78411991D01*
X146450187Y-78411991D02*
X146640663Y-78411991D01*
X146640663Y-78411991D02*
X146735901Y-78364372D01*
X146735901Y-78364372D02*
X146783520Y-78316753D01*
X146783520Y-78316753D02*
X146831139Y-78221515D01*
X146831139Y-78221515D02*
X146831139Y-77935801D01*
X146831139Y-77935801D02*
X146783520Y-77840563D01*
X146783520Y-77840563D02*
X146735901Y-77792944D01*
X146735901Y-77792944D02*
X146640663Y-77745324D01*
X146640663Y-77745324D02*
X146450187Y-77745324D01*
X146450187Y-77745324D02*
X146354949Y-77792944D01*
X147688282Y-78411991D02*
X147688282Y-77745324D01*
X147259711Y-78411991D02*
X147259711Y-77888182D01*
X147259711Y-77888182D02*
X147307330Y-77792944D01*
X147307330Y-77792944D02*
X147402568Y-77745324D01*
X147402568Y-77745324D02*
X147545425Y-77745324D01*
X147545425Y-77745324D02*
X147640663Y-77792944D01*
X147640663Y-77792944D02*
X147688282Y-77840563D01*
X148116854Y-77792944D02*
X148212092Y-77745324D01*
X148212092Y-77745324D02*
X148402568Y-77745324D01*
X148402568Y-77745324D02*
X148497806Y-77792944D01*
X148497806Y-77792944D02*
X148545425Y-77888182D01*
X148545425Y-77888182D02*
X148545425Y-77935801D01*
X148545425Y-77935801D02*
X148497806Y-78031039D01*
X148497806Y-78031039D02*
X148402568Y-78078658D01*
X148402568Y-78078658D02*
X148259711Y-78078658D01*
X148259711Y-78078658D02*
X148164473Y-78126277D01*
X148164473Y-78126277D02*
X148116854Y-78221515D01*
X148116854Y-78221515D02*
X148116854Y-78269134D01*
X148116854Y-78269134D02*
X148164473Y-78364372D01*
X148164473Y-78364372D02*
X148259711Y-78411991D01*
X148259711Y-78411991D02*
X148402568Y-78411991D01*
X148402568Y-78411991D02*
X148497806Y-78364372D01*
X149688283Y-78031039D02*
X150164473Y-78031039D01*
X149593045Y-77745324D02*
X149926378Y-78745324D01*
X149926378Y-78745324D02*
X150259711Y-77745324D01*
X150545426Y-77792944D02*
X150688283Y-77745324D01*
X150688283Y-77745324D02*
X150926378Y-77745324D01*
X150926378Y-77745324D02*
X151021616Y-77792944D01*
X151021616Y-77792944D02*
X151069235Y-77840563D01*
X151069235Y-77840563D02*
X151116854Y-77935801D01*
X151116854Y-77935801D02*
X151116854Y-78031039D01*
X151116854Y-78031039D02*
X151069235Y-78126277D01*
X151069235Y-78126277D02*
X151021616Y-78173896D01*
X151021616Y-78173896D02*
X150926378Y-78221515D01*
X150926378Y-78221515D02*
X150735902Y-78269134D01*
X150735902Y-78269134D02*
X150640664Y-78316753D01*
X150640664Y-78316753D02*
X150593045Y-78364372D01*
X150593045Y-78364372D02*
X150545426Y-78459610D01*
X150545426Y-78459610D02*
X150545426Y-78554848D01*
X150545426Y-78554848D02*
X150593045Y-78650086D01*
X150593045Y-78650086D02*
X150640664Y-78697705D01*
X150640664Y-78697705D02*
X150735902Y-78745324D01*
X150735902Y-78745324D02*
X150973997Y-78745324D01*
X150973997Y-78745324D02*
X151116854Y-78697705D01*
X152116854Y-77840563D02*
X152069235Y-77792944D01*
X152069235Y-77792944D02*
X151926378Y-77745324D01*
X151926378Y-77745324D02*
X151831140Y-77745324D01*
X151831140Y-77745324D02*
X151688283Y-77792944D01*
X151688283Y-77792944D02*
X151593045Y-77888182D01*
X151593045Y-77888182D02*
X151545426Y-77983420D01*
X151545426Y-77983420D02*
X151497807Y-78173896D01*
X151497807Y-78173896D02*
X151497807Y-78316753D01*
X151497807Y-78316753D02*
X151545426Y-78507229D01*
X151545426Y-78507229D02*
X151593045Y-78602467D01*
X151593045Y-78602467D02*
X151688283Y-78697705D01*
X151688283Y-78697705D02*
X151831140Y-78745324D01*
X151831140Y-78745324D02*
X151926378Y-78745324D01*
X151926378Y-78745324D02*
X152069235Y-78697705D01*
X152069235Y-78697705D02*
X152116854Y-78650086D01*
X152545426Y-77745324D02*
X152545426Y-78745324D01*
X153021616Y-77745324D02*
X153021616Y-78745324D01*
X143402568Y-76135380D02*
X143402568Y-77135380D01*
X143402568Y-77135380D02*
X143735901Y-76421095D01*
X143735901Y-76421095D02*
X144069234Y-77135380D01*
X144069234Y-77135380D02*
X144069234Y-76135380D01*
X144688282Y-76135380D02*
X144593044Y-76183000D01*
X144593044Y-76183000D02*
X144545425Y-76230619D01*
X144545425Y-76230619D02*
X144497806Y-76325857D01*
X144497806Y-76325857D02*
X144497806Y-76611571D01*
X144497806Y-76611571D02*
X144545425Y-76706809D01*
X144545425Y-76706809D02*
X144593044Y-76754428D01*
X144593044Y-76754428D02*
X144688282Y-76802047D01*
X144688282Y-76802047D02*
X144831139Y-76802047D01*
X144831139Y-76802047D02*
X144926377Y-76754428D01*
X144926377Y-76754428D02*
X144973996Y-76706809D01*
X144973996Y-76706809D02*
X145021615Y-76611571D01*
X145021615Y-76611571D02*
X145021615Y-76325857D01*
X145021615Y-76325857D02*
X144973996Y-76230619D01*
X144973996Y-76230619D02*
X144926377Y-76183000D01*
X144926377Y-76183000D02*
X144831139Y-76135380D01*
X144831139Y-76135380D02*
X144688282Y-76135380D01*
X145878758Y-76135380D02*
X145878758Y-77135380D01*
X145878758Y-76183000D02*
X145783520Y-76135380D01*
X145783520Y-76135380D02*
X145593044Y-76135380D01*
X145593044Y-76135380D02*
X145497806Y-76183000D01*
X145497806Y-76183000D02*
X145450187Y-76230619D01*
X145450187Y-76230619D02*
X145402568Y-76325857D01*
X145402568Y-76325857D02*
X145402568Y-76611571D01*
X145402568Y-76611571D02*
X145450187Y-76706809D01*
X145450187Y-76706809D02*
X145497806Y-76754428D01*
X145497806Y-76754428D02*
X145593044Y-76802047D01*
X145593044Y-76802047D02*
X145783520Y-76802047D01*
X145783520Y-76802047D02*
X145878758Y-76754428D01*
X146354949Y-76135380D02*
X146354949Y-77135380D01*
X146354949Y-76754428D02*
X146450187Y-76802047D01*
X146450187Y-76802047D02*
X146640663Y-76802047D01*
X146640663Y-76802047D02*
X146735901Y-76754428D01*
X146735901Y-76754428D02*
X146783520Y-76706809D01*
X146783520Y-76706809D02*
X146831139Y-76611571D01*
X146831139Y-76611571D02*
X146831139Y-76325857D01*
X146831139Y-76325857D02*
X146783520Y-76230619D01*
X146783520Y-76230619D02*
X146735901Y-76183000D01*
X146735901Y-76183000D02*
X146640663Y-76135380D01*
X146640663Y-76135380D02*
X146450187Y-76135380D01*
X146450187Y-76135380D02*
X146354949Y-76183000D01*
X147688282Y-76802047D02*
X147688282Y-76135380D01*
X147259711Y-76802047D02*
X147259711Y-76278238D01*
X147259711Y-76278238D02*
X147307330Y-76183000D01*
X147307330Y-76183000D02*
X147402568Y-76135380D01*
X147402568Y-76135380D02*
X147545425Y-76135380D01*
X147545425Y-76135380D02*
X147640663Y-76183000D01*
X147640663Y-76183000D02*
X147688282Y-76230619D01*
X148116854Y-76183000D02*
X148212092Y-76135380D01*
X148212092Y-76135380D02*
X148402568Y-76135380D01*
X148402568Y-76135380D02*
X148497806Y-76183000D01*
X148497806Y-76183000D02*
X148545425Y-76278238D01*
X148545425Y-76278238D02*
X148545425Y-76325857D01*
X148545425Y-76325857D02*
X148497806Y-76421095D01*
X148497806Y-76421095D02*
X148402568Y-76468714D01*
X148402568Y-76468714D02*
X148259711Y-76468714D01*
X148259711Y-76468714D02*
X148164473Y-76516333D01*
X148164473Y-76516333D02*
X148116854Y-76611571D01*
X148116854Y-76611571D02*
X148116854Y-76659190D01*
X148116854Y-76659190D02*
X148164473Y-76754428D01*
X148164473Y-76754428D02*
X148259711Y-76802047D01*
X148259711Y-76802047D02*
X148402568Y-76802047D01*
X148402568Y-76802047D02*
X148497806Y-76754428D01*
X149593045Y-77135380D02*
X150164473Y-77135380D01*
X149878759Y-76135380D02*
X149878759Y-77135380D01*
X151069235Y-76230619D02*
X151021616Y-76183000D01*
X151021616Y-76183000D02*
X150878759Y-76135380D01*
X150878759Y-76135380D02*
X150783521Y-76135380D01*
X150783521Y-76135380D02*
X150640664Y-76183000D01*
X150640664Y-76183000D02*
X150545426Y-76278238D01*
X150545426Y-76278238D02*
X150497807Y-76373476D01*
X150497807Y-76373476D02*
X150450188Y-76563952D01*
X150450188Y-76563952D02*
X150450188Y-76706809D01*
X150450188Y-76706809D02*
X150497807Y-76897285D01*
X150497807Y-76897285D02*
X150545426Y-76992523D01*
X150545426Y-76992523D02*
X150640664Y-77087761D01*
X150640664Y-77087761D02*
X150783521Y-77135380D01*
X150783521Y-77135380D02*
X150878759Y-77135380D01*
X150878759Y-77135380D02*
X151021616Y-77087761D01*
X151021616Y-77087761D02*
X151069235Y-77040142D01*
X151497807Y-76135380D02*
X151497807Y-77135380D01*
X151497807Y-77135380D02*
X151878759Y-77135380D01*
X151878759Y-77135380D02*
X151973997Y-77087761D01*
X151973997Y-77087761D02*
X152021616Y-77040142D01*
X152021616Y-77040142D02*
X152069235Y-76944904D01*
X152069235Y-76944904D02*
X152069235Y-76802047D01*
X152069235Y-76802047D02*
X152021616Y-76706809D01*
X152021616Y-76706809D02*
X151973997Y-76659190D01*
X151973997Y-76659190D02*
X151878759Y-76611571D01*
X151878759Y-76611571D02*
X151497807Y-76611571D01*
X152497807Y-76135380D02*
X152497807Y-77135380D01*
X152973997Y-76135380D02*
X152973997Y-77135380D01*
X152973997Y-77135380D02*
X153354949Y-77135380D01*
X153354949Y-77135380D02*
X153450187Y-77087761D01*
X153450187Y-77087761D02*
X153497806Y-77040142D01*
X153497806Y-77040142D02*
X153545425Y-76944904D01*
X153545425Y-76944904D02*
X153545425Y-76802047D01*
X153545425Y-76802047D02*
X153497806Y-76706809D01*
X153497806Y-76706809D02*
X153450187Y-76659190D01*
X153450187Y-76659190D02*
X153354949Y-76611571D01*
X153354949Y-76611571D02*
X152973997Y-76611571D01*
D10*
X121289160Y-86245727D02*
X121765350Y-86245727D01*
X121193922Y-85960012D02*
X121527255Y-86960012D01*
X121527255Y-86960012D02*
X121860588Y-85960012D01*
X122193922Y-86960012D02*
X122193922Y-86150489D01*
X122193922Y-86150489D02*
X122241541Y-86055251D01*
X122241541Y-86055251D02*
X122289160Y-86007632D01*
X122289160Y-86007632D02*
X122384398Y-85960012D01*
X122384398Y-85960012D02*
X122574874Y-85960012D01*
X122574874Y-85960012D02*
X122670112Y-86007632D01*
X122670112Y-86007632D02*
X122717731Y-86055251D01*
X122717731Y-86055251D02*
X122765350Y-86150489D01*
X122765350Y-86150489D02*
X122765350Y-86960012D01*
X123241541Y-85960012D02*
X123241541Y-86960012D01*
X123241541Y-86960012D02*
X123479636Y-86960012D01*
X123479636Y-86960012D02*
X123622493Y-86912393D01*
X123622493Y-86912393D02*
X123717731Y-86817155D01*
X123717731Y-86817155D02*
X123765350Y-86721917D01*
X123765350Y-86721917D02*
X123812969Y-86531441D01*
X123812969Y-86531441D02*
X123812969Y-86388584D01*
X123812969Y-86388584D02*
X123765350Y-86198108D01*
X123765350Y-86198108D02*
X123717731Y-86102870D01*
X123717731Y-86102870D02*
X123622493Y-86007632D01*
X123622493Y-86007632D02*
X123479636Y-85960012D01*
X123479636Y-85960012D02*
X123241541Y-85960012D01*
X124241541Y-86340965D02*
X125003446Y-86340965D01*
X126003445Y-85960012D02*
X125432017Y-85960012D01*
X125717731Y-85960012D02*
X125717731Y-86960012D01*
X125717731Y-86960012D02*
X125622493Y-86817155D01*
X125622493Y-86817155D02*
X125527255Y-86721917D01*
X125527255Y-86721917D02*
X125432017Y-86674298D01*
X127193922Y-86340965D02*
X127955827Y-86340965D01*
X128432017Y-86340965D02*
X129193922Y-86340965D01*
X130384398Y-86007632D02*
X130527255Y-85960012D01*
X130527255Y-85960012D02*
X130765350Y-85960012D01*
X130765350Y-85960012D02*
X130860588Y-86007632D01*
X130860588Y-86007632D02*
X130908207Y-86055251D01*
X130908207Y-86055251D02*
X130955826Y-86150489D01*
X130955826Y-86150489D02*
X130955826Y-86245727D01*
X130955826Y-86245727D02*
X130908207Y-86340965D01*
X130908207Y-86340965D02*
X130860588Y-86388584D01*
X130860588Y-86388584D02*
X130765350Y-86436203D01*
X130765350Y-86436203D02*
X130574874Y-86483822D01*
X130574874Y-86483822D02*
X130479636Y-86531441D01*
X130479636Y-86531441D02*
X130432017Y-86579060D01*
X130432017Y-86579060D02*
X130384398Y-86674298D01*
X130384398Y-86674298D02*
X130384398Y-86769536D01*
X130384398Y-86769536D02*
X130432017Y-86864774D01*
X130432017Y-86864774D02*
X130479636Y-86912393D01*
X130479636Y-86912393D02*
X130574874Y-86960012D01*
X130574874Y-86960012D02*
X130812969Y-86960012D01*
X130812969Y-86960012D02*
X130955826Y-86912393D01*
X131289160Y-86960012D02*
X131527255Y-85960012D01*
X131527255Y-85960012D02*
X131717731Y-86674298D01*
X131717731Y-86674298D02*
X131908207Y-85960012D01*
X131908207Y-85960012D02*
X132146303Y-86960012D01*
X132527255Y-85960012D02*
X132527255Y-86960012D01*
X132527255Y-86960012D02*
X132765350Y-86960012D01*
X132765350Y-86960012D02*
X132908207Y-86912393D01*
X132908207Y-86912393D02*
X133003445Y-86817155D01*
X133003445Y-86817155D02*
X133051064Y-86721917D01*
X133051064Y-86721917D02*
X133098683Y-86531441D01*
X133098683Y-86531441D02*
X133098683Y-86388584D01*
X133098683Y-86388584D02*
X133051064Y-86198108D01*
X133051064Y-86198108D02*
X133003445Y-86102870D01*
X133003445Y-86102870D02*
X132908207Y-86007632D01*
X132908207Y-86007632D02*
X132765350Y-85960012D01*
X132765350Y-85960012D02*
X132527255Y-85960012D01*
X133527255Y-85960012D02*
X133527255Y-86960012D01*
X134193921Y-86960012D02*
X134384397Y-86960012D01*
X134384397Y-86960012D02*
X134479635Y-86912393D01*
X134479635Y-86912393D02*
X134574873Y-86817155D01*
X134574873Y-86817155D02*
X134622492Y-86626679D01*
X134622492Y-86626679D02*
X134622492Y-86293346D01*
X134622492Y-86293346D02*
X134574873Y-86102870D01*
X134574873Y-86102870D02*
X134479635Y-86007632D01*
X134479635Y-86007632D02*
X134384397Y-85960012D01*
X134384397Y-85960012D02*
X134193921Y-85960012D01*
X134193921Y-85960012D02*
X134098683Y-86007632D01*
X134098683Y-86007632D02*
X134003445Y-86102870D01*
X134003445Y-86102870D02*
X133955826Y-86293346D01*
X133955826Y-86293346D02*
X133955826Y-86626679D01*
X133955826Y-86626679D02*
X134003445Y-86817155D01*
X134003445Y-86817155D02*
X134098683Y-86912393D01*
X134098683Y-86912393D02*
X134193921Y-86960012D01*
X121289160Y-84635783D02*
X121765350Y-84635783D01*
X121193922Y-84350068D02*
X121527255Y-85350068D01*
X121527255Y-85350068D02*
X121860588Y-84350068D01*
X122193922Y-85350068D02*
X122193922Y-84540545D01*
X122193922Y-84540545D02*
X122241541Y-84445307D01*
X122241541Y-84445307D02*
X122289160Y-84397688D01*
X122289160Y-84397688D02*
X122384398Y-84350068D01*
X122384398Y-84350068D02*
X122574874Y-84350068D01*
X122574874Y-84350068D02*
X122670112Y-84397688D01*
X122670112Y-84397688D02*
X122717731Y-84445307D01*
X122717731Y-84445307D02*
X122765350Y-84540545D01*
X122765350Y-84540545D02*
X122765350Y-85350068D01*
X123241541Y-84350068D02*
X123241541Y-85350068D01*
X123241541Y-85350068D02*
X123479636Y-85350068D01*
X123479636Y-85350068D02*
X123622493Y-85302449D01*
X123622493Y-85302449D02*
X123717731Y-85207211D01*
X123717731Y-85207211D02*
X123765350Y-85111973D01*
X123765350Y-85111973D02*
X123812969Y-84921497D01*
X123812969Y-84921497D02*
X123812969Y-84778640D01*
X123812969Y-84778640D02*
X123765350Y-84588164D01*
X123765350Y-84588164D02*
X123717731Y-84492926D01*
X123717731Y-84492926D02*
X123622493Y-84397688D01*
X123622493Y-84397688D02*
X123479636Y-84350068D01*
X123479636Y-84350068D02*
X123241541Y-84350068D01*
X124241541Y-84731021D02*
X125003446Y-84731021D01*
X125432017Y-85254830D02*
X125479636Y-85302449D01*
X125479636Y-85302449D02*
X125574874Y-85350068D01*
X125574874Y-85350068D02*
X125812969Y-85350068D01*
X125812969Y-85350068D02*
X125908207Y-85302449D01*
X125908207Y-85302449D02*
X125955826Y-85254830D01*
X125955826Y-85254830D02*
X126003445Y-85159592D01*
X126003445Y-85159592D02*
X126003445Y-85064354D01*
X126003445Y-85064354D02*
X125955826Y-84921497D01*
X125955826Y-84921497D02*
X125384398Y-84350068D01*
X125384398Y-84350068D02*
X126003445Y-84350068D01*
X127193922Y-84731021D02*
X127955827Y-84731021D01*
X128432017Y-84731021D02*
X129193922Y-84731021D01*
X130955826Y-85302449D02*
X130860588Y-85350068D01*
X130860588Y-85350068D02*
X130717731Y-85350068D01*
X130717731Y-85350068D02*
X130574874Y-85302449D01*
X130574874Y-85302449D02*
X130479636Y-85207211D01*
X130479636Y-85207211D02*
X130432017Y-85111973D01*
X130432017Y-85111973D02*
X130384398Y-84921497D01*
X130384398Y-84921497D02*
X130384398Y-84778640D01*
X130384398Y-84778640D02*
X130432017Y-84588164D01*
X130432017Y-84588164D02*
X130479636Y-84492926D01*
X130479636Y-84492926D02*
X130574874Y-84397688D01*
X130574874Y-84397688D02*
X130717731Y-84350068D01*
X130717731Y-84350068D02*
X130812969Y-84350068D01*
X130812969Y-84350068D02*
X130955826Y-84397688D01*
X130955826Y-84397688D02*
X131003445Y-84445307D01*
X131003445Y-84445307D02*
X131003445Y-84778640D01*
X131003445Y-84778640D02*
X130812969Y-84778640D01*
X131432017Y-84350068D02*
X131432017Y-85350068D01*
X131432017Y-85350068D02*
X132003445Y-84350068D01*
X132003445Y-84350068D02*
X132003445Y-85350068D01*
X132479636Y-84350068D02*
X132479636Y-85350068D01*
X132479636Y-85350068D02*
X132717731Y-85350068D01*
X132717731Y-85350068D02*
X132860588Y-85302449D01*
X132860588Y-85302449D02*
X132955826Y-85207211D01*
X132955826Y-85207211D02*
X133003445Y-85111973D01*
X133003445Y-85111973D02*
X133051064Y-84921497D01*
X133051064Y-84921497D02*
X133051064Y-84778640D01*
X133051064Y-84778640D02*
X133003445Y-84588164D01*
X133003445Y-84588164D02*
X132955826Y-84492926D01*
X132955826Y-84492926D02*
X132860588Y-84397688D01*
X132860588Y-84397688D02*
X132717731Y-84350068D01*
X132717731Y-84350068D02*
X132479636Y-84350068D01*
X121289160Y-83025839D02*
X121765350Y-83025839D01*
X121193922Y-82740124D02*
X121527255Y-83740124D01*
X121527255Y-83740124D02*
X121860588Y-82740124D01*
X122193922Y-83740124D02*
X122193922Y-82930601D01*
X122193922Y-82930601D02*
X122241541Y-82835363D01*
X122241541Y-82835363D02*
X122289160Y-82787744D01*
X122289160Y-82787744D02*
X122384398Y-82740124D01*
X122384398Y-82740124D02*
X122574874Y-82740124D01*
X122574874Y-82740124D02*
X122670112Y-82787744D01*
X122670112Y-82787744D02*
X122717731Y-82835363D01*
X122717731Y-82835363D02*
X122765350Y-82930601D01*
X122765350Y-82930601D02*
X122765350Y-83740124D01*
X123241541Y-82740124D02*
X123241541Y-83740124D01*
X123241541Y-83740124D02*
X123479636Y-83740124D01*
X123479636Y-83740124D02*
X123622493Y-83692505D01*
X123622493Y-83692505D02*
X123717731Y-83597267D01*
X123717731Y-83597267D02*
X123765350Y-83502029D01*
X123765350Y-83502029D02*
X123812969Y-83311553D01*
X123812969Y-83311553D02*
X123812969Y-83168696D01*
X123812969Y-83168696D02*
X123765350Y-82978220D01*
X123765350Y-82978220D02*
X123717731Y-82882982D01*
X123717731Y-82882982D02*
X123622493Y-82787744D01*
X123622493Y-82787744D02*
X123479636Y-82740124D01*
X123479636Y-82740124D02*
X123241541Y-82740124D01*
X124241541Y-83121077D02*
X125003446Y-83121077D01*
X125384398Y-83740124D02*
X126003445Y-83740124D01*
X126003445Y-83740124D02*
X125670112Y-83359172D01*
X125670112Y-83359172D02*
X125812969Y-83359172D01*
X125812969Y-83359172D02*
X125908207Y-83311553D01*
X125908207Y-83311553D02*
X125955826Y-83263934D01*
X125955826Y-83263934D02*
X126003445Y-83168696D01*
X126003445Y-83168696D02*
X126003445Y-82930601D01*
X126003445Y-82930601D02*
X125955826Y-82835363D01*
X125955826Y-82835363D02*
X125908207Y-82787744D01*
X125908207Y-82787744D02*
X125812969Y-82740124D01*
X125812969Y-82740124D02*
X125527255Y-82740124D01*
X125527255Y-82740124D02*
X125432017Y-82787744D01*
X125432017Y-82787744D02*
X125384398Y-82835363D01*
X127193922Y-83121077D02*
X127955827Y-83121077D01*
X128432017Y-83121077D02*
X129193922Y-83121077D01*
X131003445Y-82740124D02*
X130670112Y-83216315D01*
X130432017Y-82740124D02*
X130432017Y-83740124D01*
X130432017Y-83740124D02*
X130812969Y-83740124D01*
X130812969Y-83740124D02*
X130908207Y-83692505D01*
X130908207Y-83692505D02*
X130955826Y-83644886D01*
X130955826Y-83644886D02*
X131003445Y-83549648D01*
X131003445Y-83549648D02*
X131003445Y-83406791D01*
X131003445Y-83406791D02*
X130955826Y-83311553D01*
X130955826Y-83311553D02*
X130908207Y-83263934D01*
X130908207Y-83263934D02*
X130812969Y-83216315D01*
X130812969Y-83216315D02*
X130432017Y-83216315D01*
X131384398Y-82787744D02*
X131527255Y-82740124D01*
X131527255Y-82740124D02*
X131765350Y-82740124D01*
X131765350Y-82740124D02*
X131860588Y-82787744D01*
X131860588Y-82787744D02*
X131908207Y-82835363D01*
X131908207Y-82835363D02*
X131955826Y-82930601D01*
X131955826Y-82930601D02*
X131955826Y-83025839D01*
X131955826Y-83025839D02*
X131908207Y-83121077D01*
X131908207Y-83121077D02*
X131860588Y-83168696D01*
X131860588Y-83168696D02*
X131765350Y-83216315D01*
X131765350Y-83216315D02*
X131574874Y-83263934D01*
X131574874Y-83263934D02*
X131479636Y-83311553D01*
X131479636Y-83311553D02*
X131432017Y-83359172D01*
X131432017Y-83359172D02*
X131384398Y-83454410D01*
X131384398Y-83454410D02*
X131384398Y-83549648D01*
X131384398Y-83549648D02*
X131432017Y-83644886D01*
X131432017Y-83644886D02*
X131479636Y-83692505D01*
X131479636Y-83692505D02*
X131574874Y-83740124D01*
X131574874Y-83740124D02*
X131812969Y-83740124D01*
X131812969Y-83740124D02*
X131955826Y-83692505D01*
X132241541Y-83740124D02*
X132812969Y-83740124D01*
X132527255Y-82740124D02*
X132527255Y-83740124D01*
X121289160Y-81415895D02*
X121765350Y-81415895D01*
X121193922Y-81130180D02*
X121527255Y-82130180D01*
X121527255Y-82130180D02*
X121860588Y-81130180D01*
X122193922Y-82130180D02*
X122193922Y-81320657D01*
X122193922Y-81320657D02*
X122241541Y-81225419D01*
X122241541Y-81225419D02*
X122289160Y-81177800D01*
X122289160Y-81177800D02*
X122384398Y-81130180D01*
X122384398Y-81130180D02*
X122574874Y-81130180D01*
X122574874Y-81130180D02*
X122670112Y-81177800D01*
X122670112Y-81177800D02*
X122717731Y-81225419D01*
X122717731Y-81225419D02*
X122765350Y-81320657D01*
X122765350Y-81320657D02*
X122765350Y-82130180D01*
X123241541Y-81130180D02*
X123241541Y-82130180D01*
X123241541Y-82130180D02*
X123479636Y-82130180D01*
X123479636Y-82130180D02*
X123622493Y-82082561D01*
X123622493Y-82082561D02*
X123717731Y-81987323D01*
X123717731Y-81987323D02*
X123765350Y-81892085D01*
X123765350Y-81892085D02*
X123812969Y-81701609D01*
X123812969Y-81701609D02*
X123812969Y-81558752D01*
X123812969Y-81558752D02*
X123765350Y-81368276D01*
X123765350Y-81368276D02*
X123717731Y-81273038D01*
X123717731Y-81273038D02*
X123622493Y-81177800D01*
X123622493Y-81177800D02*
X123479636Y-81130180D01*
X123479636Y-81130180D02*
X123241541Y-81130180D01*
X124241541Y-81511133D02*
X125003446Y-81511133D01*
X125908207Y-81796847D02*
X125908207Y-81130180D01*
X125670112Y-82177800D02*
X125432017Y-81463514D01*
X125432017Y-81463514D02*
X126051064Y-81463514D01*
X127193922Y-81511133D02*
X127955827Y-81511133D01*
X128432017Y-81511133D02*
X129193922Y-81511133D01*
X130384398Y-81177800D02*
X130527255Y-81130180D01*
X130527255Y-81130180D02*
X130765350Y-81130180D01*
X130765350Y-81130180D02*
X130860588Y-81177800D01*
X130860588Y-81177800D02*
X130908207Y-81225419D01*
X130908207Y-81225419D02*
X130955826Y-81320657D01*
X130955826Y-81320657D02*
X130955826Y-81415895D01*
X130955826Y-81415895D02*
X130908207Y-81511133D01*
X130908207Y-81511133D02*
X130860588Y-81558752D01*
X130860588Y-81558752D02*
X130765350Y-81606371D01*
X130765350Y-81606371D02*
X130574874Y-81653990D01*
X130574874Y-81653990D02*
X130479636Y-81701609D01*
X130479636Y-81701609D02*
X130432017Y-81749228D01*
X130432017Y-81749228D02*
X130384398Y-81844466D01*
X130384398Y-81844466D02*
X130384398Y-81939704D01*
X130384398Y-81939704D02*
X130432017Y-82034942D01*
X130432017Y-82034942D02*
X130479636Y-82082561D01*
X130479636Y-82082561D02*
X130574874Y-82130180D01*
X130574874Y-82130180D02*
X130812969Y-82130180D01*
X130812969Y-82130180D02*
X130955826Y-82082561D01*
X131289160Y-82130180D02*
X131527255Y-81130180D01*
X131527255Y-81130180D02*
X131717731Y-81844466D01*
X131717731Y-81844466D02*
X131908207Y-81130180D01*
X131908207Y-81130180D02*
X132146303Y-82130180D01*
X133098683Y-81225419D02*
X133051064Y-81177800D01*
X133051064Y-81177800D02*
X132908207Y-81130180D01*
X132908207Y-81130180D02*
X132812969Y-81130180D01*
X132812969Y-81130180D02*
X132670112Y-81177800D01*
X132670112Y-81177800D02*
X132574874Y-81273038D01*
X132574874Y-81273038D02*
X132527255Y-81368276D01*
X132527255Y-81368276D02*
X132479636Y-81558752D01*
X132479636Y-81558752D02*
X132479636Y-81701609D01*
X132479636Y-81701609D02*
X132527255Y-81892085D01*
X132527255Y-81892085D02*
X132574874Y-81987323D01*
X132574874Y-81987323D02*
X132670112Y-82082561D01*
X132670112Y-82082561D02*
X132812969Y-82130180D01*
X132812969Y-82130180D02*
X132908207Y-82130180D01*
X132908207Y-82130180D02*
X133051064Y-82082561D01*
X133051064Y-82082561D02*
X133098683Y-82034942D01*
X134003445Y-81130180D02*
X133527255Y-81130180D01*
X133527255Y-81130180D02*
X133527255Y-82130180D01*
X134336779Y-81130180D02*
X134336779Y-82130180D01*
X134908207Y-81130180D02*
X134479636Y-81701609D01*
X134908207Y-82130180D02*
X134336779Y-81558752D01*
D12*
X168369673Y-82792444D02*
X168369673Y-83792444D01*
X168369673Y-83792444D02*
X168607768Y-83792444D01*
X168607768Y-83792444D02*
X168750625Y-83744825D01*
X168750625Y-83744825D02*
X168845863Y-83649587D01*
X168845863Y-83649587D02*
X168893482Y-83554349D01*
X168893482Y-83554349D02*
X168941101Y-83363873D01*
X168941101Y-83363873D02*
X168941101Y-83221016D01*
X168941101Y-83221016D02*
X168893482Y-83030540D01*
X168893482Y-83030540D02*
X168845863Y-82935302D01*
X168845863Y-82935302D02*
X168750625Y-82840064D01*
X168750625Y-82840064D02*
X168607768Y-82792444D01*
X168607768Y-82792444D02*
X168369673Y-82792444D01*
X169893482Y-82792444D02*
X169322054Y-82792444D01*
X169607768Y-82792444D02*
X169607768Y-83792444D01*
X169607768Y-83792444D02*
X169512530Y-83649587D01*
X169512530Y-83649587D02*
X169417292Y-83554349D01*
X169417292Y-83554349D02*
X169322054Y-83506730D01*
X172607769Y-83173397D02*
X173369674Y-83173397D01*
X173845864Y-83173397D02*
X174607769Y-83173397D01*
X175703007Y-83792444D02*
X176274435Y-83792444D01*
X175988721Y-82792444D02*
X175988721Y-83792444D01*
X177179197Y-82887683D02*
X177131578Y-82840064D01*
X177131578Y-82840064D02*
X176988721Y-82792444D01*
X176988721Y-82792444D02*
X176893483Y-82792444D01*
X176893483Y-82792444D02*
X176750626Y-82840064D01*
X176750626Y-82840064D02*
X176655388Y-82935302D01*
X176655388Y-82935302D02*
X176607769Y-83030540D01*
X176607769Y-83030540D02*
X176560150Y-83221016D01*
X176560150Y-83221016D02*
X176560150Y-83363873D01*
X176560150Y-83363873D02*
X176607769Y-83554349D01*
X176607769Y-83554349D02*
X176655388Y-83649587D01*
X176655388Y-83649587D02*
X176750626Y-83744825D01*
X176750626Y-83744825D02*
X176893483Y-83792444D01*
X176893483Y-83792444D02*
X176988721Y-83792444D01*
X176988721Y-83792444D02*
X177131578Y-83744825D01*
X177131578Y-83744825D02*
X177179197Y-83697206D01*
X177607769Y-82792444D02*
X177607769Y-83792444D01*
X177607769Y-83792444D02*
X177988721Y-83792444D01*
X177988721Y-83792444D02*
X178083959Y-83744825D01*
X178083959Y-83744825D02*
X178131578Y-83697206D01*
X178131578Y-83697206D02*
X178179197Y-83601968D01*
X178179197Y-83601968D02*
X178179197Y-83459111D01*
X178179197Y-83459111D02*
X178131578Y-83363873D01*
X178131578Y-83363873D02*
X178083959Y-83316254D01*
X178083959Y-83316254D02*
X177988721Y-83268635D01*
X177988721Y-83268635D02*
X177607769Y-83268635D01*
X179369674Y-82792444D02*
X179369674Y-83792444D01*
X179845864Y-82792444D02*
X179845864Y-83792444D01*
X179845864Y-83792444D02*
X180417292Y-82792444D01*
X180417292Y-82792444D02*
X180417292Y-83792444D01*
X180750626Y-83792444D02*
X181322054Y-83792444D01*
X181036340Y-82792444D02*
X181036340Y-83792444D01*
X168369673Y-81182500D02*
X168369673Y-82182500D01*
X168369673Y-82182500D02*
X168607768Y-82182500D01*
X168607768Y-82182500D02*
X168750625Y-82134881D01*
X168750625Y-82134881D02*
X168845863Y-82039643D01*
X168845863Y-82039643D02*
X168893482Y-81944405D01*
X168893482Y-81944405D02*
X168941101Y-81753929D01*
X168941101Y-81753929D02*
X168941101Y-81611072D01*
X168941101Y-81611072D02*
X168893482Y-81420596D01*
X168893482Y-81420596D02*
X168845863Y-81325358D01*
X168845863Y-81325358D02*
X168750625Y-81230120D01*
X168750625Y-81230120D02*
X168607768Y-81182500D01*
X168607768Y-81182500D02*
X168369673Y-81182500D01*
X169322054Y-82087262D02*
X169369673Y-82134881D01*
X169369673Y-82134881D02*
X169464911Y-82182500D01*
X169464911Y-82182500D02*
X169703006Y-82182500D01*
X169703006Y-82182500D02*
X169798244Y-82134881D01*
X169798244Y-82134881D02*
X169845863Y-82087262D01*
X169845863Y-82087262D02*
X169893482Y-81992024D01*
X169893482Y-81992024D02*
X169893482Y-81896786D01*
X169893482Y-81896786D02*
X169845863Y-81753929D01*
X169845863Y-81753929D02*
X169274435Y-81182500D01*
X169274435Y-81182500D02*
X169893482Y-81182500D01*
X172607769Y-81563453D02*
X173369674Y-81563453D01*
X173845864Y-81563453D02*
X174607769Y-81563453D01*
X175703007Y-82182500D02*
X176274435Y-82182500D01*
X175988721Y-81182500D02*
X175988721Y-82182500D01*
X177179197Y-81277739D02*
X177131578Y-81230120D01*
X177131578Y-81230120D02*
X176988721Y-81182500D01*
X176988721Y-81182500D02*
X176893483Y-81182500D01*
X176893483Y-81182500D02*
X176750626Y-81230120D01*
X176750626Y-81230120D02*
X176655388Y-81325358D01*
X176655388Y-81325358D02*
X176607769Y-81420596D01*
X176607769Y-81420596D02*
X176560150Y-81611072D01*
X176560150Y-81611072D02*
X176560150Y-81753929D01*
X176560150Y-81753929D02*
X176607769Y-81944405D01*
X176607769Y-81944405D02*
X176655388Y-82039643D01*
X176655388Y-82039643D02*
X176750626Y-82134881D01*
X176750626Y-82134881D02*
X176893483Y-82182500D01*
X176893483Y-82182500D02*
X176988721Y-82182500D01*
X176988721Y-82182500D02*
X177131578Y-82134881D01*
X177131578Y-82134881D02*
X177179197Y-82087262D01*
X177607769Y-81182500D02*
X177607769Y-82182500D01*
X177607769Y-82182500D02*
X177988721Y-82182500D01*
X177988721Y-82182500D02*
X178083959Y-82134881D01*
X178083959Y-82134881D02*
X178131578Y-82087262D01*
X178131578Y-82087262D02*
X178179197Y-81992024D01*
X178179197Y-81992024D02*
X178179197Y-81849167D01*
X178179197Y-81849167D02*
X178131578Y-81753929D01*
X178131578Y-81753929D02*
X178083959Y-81706310D01*
X178083959Y-81706310D02*
X177988721Y-81658691D01*
X177988721Y-81658691D02*
X177607769Y-81658691D01*
X179941102Y-81277739D02*
X179893483Y-81230120D01*
X179893483Y-81230120D02*
X179750626Y-81182500D01*
X179750626Y-81182500D02*
X179655388Y-81182500D01*
X179655388Y-81182500D02*
X179512531Y-81230120D01*
X179512531Y-81230120D02*
X179417293Y-81325358D01*
X179417293Y-81325358D02*
X179369674Y-81420596D01*
X179369674Y-81420596D02*
X179322055Y-81611072D01*
X179322055Y-81611072D02*
X179322055Y-81753929D01*
X179322055Y-81753929D02*
X179369674Y-81944405D01*
X179369674Y-81944405D02*
X179417293Y-82039643D01*
X179417293Y-82039643D02*
X179512531Y-82134881D01*
X179512531Y-82134881D02*
X179655388Y-82182500D01*
X179655388Y-82182500D02*
X179750626Y-82182500D01*
X179750626Y-82182500D02*
X179893483Y-82134881D01*
X179893483Y-82134881D02*
X179941102Y-82087262D01*
X180322055Y-81230120D02*
X180464912Y-81182500D01*
X180464912Y-81182500D02*
X180703007Y-81182500D01*
X180703007Y-81182500D02*
X180798245Y-81230120D01*
X180798245Y-81230120D02*
X180845864Y-81277739D01*
X180845864Y-81277739D02*
X180893483Y-81372977D01*
X180893483Y-81372977D02*
X180893483Y-81468215D01*
X180893483Y-81468215D02*
X180845864Y-81563453D01*
X180845864Y-81563453D02*
X180798245Y-81611072D01*
X180798245Y-81611072D02*
X180703007Y-81658691D01*
X180703007Y-81658691D02*
X180512531Y-81706310D01*
X180512531Y-81706310D02*
X180417293Y-81753929D01*
X180417293Y-81753929D02*
X180369674Y-81801548D01*
X180369674Y-81801548D02*
X180322055Y-81896786D01*
X180322055Y-81896786D02*
X180322055Y-81992024D01*
X180322055Y-81992024D02*
X180369674Y-82087262D01*
X180369674Y-82087262D02*
X180417293Y-82134881D01*
X180417293Y-82134881D02*
X180512531Y-82182500D01*
X180512531Y-82182500D02*
X180750626Y-82182500D01*
X180750626Y-82182500D02*
X180893483Y-82134881D01*
X168369673Y-79572556D02*
X168369673Y-80572556D01*
X168369673Y-80572556D02*
X168607768Y-80572556D01*
X168607768Y-80572556D02*
X168750625Y-80524937D01*
X168750625Y-80524937D02*
X168845863Y-80429699D01*
X168845863Y-80429699D02*
X168893482Y-80334461D01*
X168893482Y-80334461D02*
X168941101Y-80143985D01*
X168941101Y-80143985D02*
X168941101Y-80001128D01*
X168941101Y-80001128D02*
X168893482Y-79810652D01*
X168893482Y-79810652D02*
X168845863Y-79715414D01*
X168845863Y-79715414D02*
X168750625Y-79620176D01*
X168750625Y-79620176D02*
X168607768Y-79572556D01*
X168607768Y-79572556D02*
X168369673Y-79572556D01*
X169274435Y-80572556D02*
X169893482Y-80572556D01*
X169893482Y-80572556D02*
X169560149Y-80191604D01*
X169560149Y-80191604D02*
X169703006Y-80191604D01*
X169703006Y-80191604D02*
X169798244Y-80143985D01*
X169798244Y-80143985D02*
X169845863Y-80096366D01*
X169845863Y-80096366D02*
X169893482Y-80001128D01*
X169893482Y-80001128D02*
X169893482Y-79763033D01*
X169893482Y-79763033D02*
X169845863Y-79667795D01*
X169845863Y-79667795D02*
X169798244Y-79620176D01*
X169798244Y-79620176D02*
X169703006Y-79572556D01*
X169703006Y-79572556D02*
X169417292Y-79572556D01*
X169417292Y-79572556D02*
X169322054Y-79620176D01*
X169322054Y-79620176D02*
X169274435Y-79667795D01*
X172607769Y-79953509D02*
X173369674Y-79953509D01*
X173845864Y-79953509D02*
X174607769Y-79953509D01*
X175703007Y-80572556D02*
X176274435Y-80572556D01*
X175988721Y-79572556D02*
X175988721Y-80572556D01*
X177179197Y-79667795D02*
X177131578Y-79620176D01*
X177131578Y-79620176D02*
X176988721Y-79572556D01*
X176988721Y-79572556D02*
X176893483Y-79572556D01*
X176893483Y-79572556D02*
X176750626Y-79620176D01*
X176750626Y-79620176D02*
X176655388Y-79715414D01*
X176655388Y-79715414D02*
X176607769Y-79810652D01*
X176607769Y-79810652D02*
X176560150Y-80001128D01*
X176560150Y-80001128D02*
X176560150Y-80143985D01*
X176560150Y-80143985D02*
X176607769Y-80334461D01*
X176607769Y-80334461D02*
X176655388Y-80429699D01*
X176655388Y-80429699D02*
X176750626Y-80524937D01*
X176750626Y-80524937D02*
X176893483Y-80572556D01*
X176893483Y-80572556D02*
X176988721Y-80572556D01*
X176988721Y-80572556D02*
X177131578Y-80524937D01*
X177131578Y-80524937D02*
X177179197Y-80477318D01*
X177607769Y-79572556D02*
X177607769Y-80572556D01*
X177607769Y-80572556D02*
X177988721Y-80572556D01*
X177988721Y-80572556D02*
X178083959Y-80524937D01*
X178083959Y-80524937D02*
X178131578Y-80477318D01*
X178131578Y-80477318D02*
X178179197Y-80382080D01*
X178179197Y-80382080D02*
X178179197Y-80239223D01*
X178179197Y-80239223D02*
X178131578Y-80143985D01*
X178131578Y-80143985D02*
X178083959Y-80096366D01*
X178083959Y-80096366D02*
X177988721Y-80048747D01*
X177988721Y-80048747D02*
X177607769Y-80048747D01*
X179941102Y-79572556D02*
X179607769Y-80048747D01*
X179369674Y-79572556D02*
X179369674Y-80572556D01*
X179369674Y-80572556D02*
X179750626Y-80572556D01*
X179750626Y-80572556D02*
X179845864Y-80524937D01*
X179845864Y-80524937D02*
X179893483Y-80477318D01*
X179893483Y-80477318D02*
X179941102Y-80382080D01*
X179941102Y-80382080D02*
X179941102Y-80239223D01*
X179941102Y-80239223D02*
X179893483Y-80143985D01*
X179893483Y-80143985D02*
X179845864Y-80096366D01*
X179845864Y-80096366D02*
X179750626Y-80048747D01*
X179750626Y-80048747D02*
X179369674Y-80048747D01*
X180322055Y-79620176D02*
X180464912Y-79572556D01*
X180464912Y-79572556D02*
X180703007Y-79572556D01*
X180703007Y-79572556D02*
X180798245Y-79620176D01*
X180798245Y-79620176D02*
X180845864Y-79667795D01*
X180845864Y-79667795D02*
X180893483Y-79763033D01*
X180893483Y-79763033D02*
X180893483Y-79858271D01*
X180893483Y-79858271D02*
X180845864Y-79953509D01*
X180845864Y-79953509D02*
X180798245Y-80001128D01*
X180798245Y-80001128D02*
X180703007Y-80048747D01*
X180703007Y-80048747D02*
X180512531Y-80096366D01*
X180512531Y-80096366D02*
X180417293Y-80143985D01*
X180417293Y-80143985D02*
X180369674Y-80191604D01*
X180369674Y-80191604D02*
X180322055Y-80286842D01*
X180322055Y-80286842D02*
X180322055Y-80382080D01*
X180322055Y-80382080D02*
X180369674Y-80477318D01*
X180369674Y-80477318D02*
X180417293Y-80524937D01*
X180417293Y-80524937D02*
X180512531Y-80572556D01*
X180512531Y-80572556D02*
X180750626Y-80572556D01*
X180750626Y-80572556D02*
X180893483Y-80524937D01*
X181179198Y-80572556D02*
X181750626Y-80572556D01*
X181464912Y-79572556D02*
X181464912Y-80572556D01*
X168369673Y-77962612D02*
X168369673Y-78962612D01*
X168369673Y-78962612D02*
X168607768Y-78962612D01*
X168607768Y-78962612D02*
X168750625Y-78914993D01*
X168750625Y-78914993D02*
X168845863Y-78819755D01*
X168845863Y-78819755D02*
X168893482Y-78724517D01*
X168893482Y-78724517D02*
X168941101Y-78534041D01*
X168941101Y-78534041D02*
X168941101Y-78391184D01*
X168941101Y-78391184D02*
X168893482Y-78200708D01*
X168893482Y-78200708D02*
X168845863Y-78105470D01*
X168845863Y-78105470D02*
X168750625Y-78010232D01*
X168750625Y-78010232D02*
X168607768Y-77962612D01*
X168607768Y-77962612D02*
X168369673Y-77962612D01*
X169845863Y-78962612D02*
X169369673Y-78962612D01*
X169369673Y-78962612D02*
X169322054Y-78486422D01*
X169322054Y-78486422D02*
X169369673Y-78534041D01*
X169369673Y-78534041D02*
X169464911Y-78581660D01*
X169464911Y-78581660D02*
X169703006Y-78581660D01*
X169703006Y-78581660D02*
X169798244Y-78534041D01*
X169798244Y-78534041D02*
X169845863Y-78486422D01*
X169845863Y-78486422D02*
X169893482Y-78391184D01*
X169893482Y-78391184D02*
X169893482Y-78153089D01*
X169893482Y-78153089D02*
X169845863Y-78057851D01*
X169845863Y-78057851D02*
X169798244Y-78010232D01*
X169798244Y-78010232D02*
X169703006Y-77962612D01*
X169703006Y-77962612D02*
X169464911Y-77962612D01*
X169464911Y-77962612D02*
X169369673Y-78010232D01*
X169369673Y-78010232D02*
X169322054Y-78057851D01*
X172607769Y-78343565D02*
X173369674Y-78343565D01*
X173845864Y-78343565D02*
X174607769Y-78343565D01*
X175703007Y-78962612D02*
X176274435Y-78962612D01*
X175988721Y-77962612D02*
X175988721Y-78962612D01*
X177179197Y-78057851D02*
X177131578Y-78010232D01*
X177131578Y-78010232D02*
X176988721Y-77962612D01*
X176988721Y-77962612D02*
X176893483Y-77962612D01*
X176893483Y-77962612D02*
X176750626Y-78010232D01*
X176750626Y-78010232D02*
X176655388Y-78105470D01*
X176655388Y-78105470D02*
X176607769Y-78200708D01*
X176607769Y-78200708D02*
X176560150Y-78391184D01*
X176560150Y-78391184D02*
X176560150Y-78534041D01*
X176560150Y-78534041D02*
X176607769Y-78724517D01*
X176607769Y-78724517D02*
X176655388Y-78819755D01*
X176655388Y-78819755D02*
X176750626Y-78914993D01*
X176750626Y-78914993D02*
X176893483Y-78962612D01*
X176893483Y-78962612D02*
X176988721Y-78962612D01*
X176988721Y-78962612D02*
X177131578Y-78914993D01*
X177131578Y-78914993D02*
X177179197Y-78867374D01*
X177607769Y-77962612D02*
X177607769Y-78962612D01*
X177607769Y-78962612D02*
X177988721Y-78962612D01*
X177988721Y-78962612D02*
X178083959Y-78914993D01*
X178083959Y-78914993D02*
X178131578Y-78867374D01*
X178131578Y-78867374D02*
X178179197Y-78772136D01*
X178179197Y-78772136D02*
X178179197Y-78629279D01*
X178179197Y-78629279D02*
X178131578Y-78534041D01*
X178131578Y-78534041D02*
X178083959Y-78486422D01*
X178083959Y-78486422D02*
X177988721Y-78438803D01*
X177988721Y-78438803D02*
X177607769Y-78438803D01*
X179845864Y-77962612D02*
X179369674Y-77962612D01*
X179369674Y-77962612D02*
X179369674Y-78962612D01*
X180179198Y-78486422D02*
X180512531Y-78486422D01*
X180655388Y-77962612D02*
X180179198Y-77962612D01*
X180179198Y-77962612D02*
X180179198Y-78962612D01*
X180179198Y-78962612D02*
X180655388Y-78962612D01*
X181083960Y-77962612D02*
X181083960Y-78962612D01*
X181083960Y-78962612D02*
X181322055Y-78962612D01*
X181322055Y-78962612D02*
X181464912Y-78914993D01*
X181464912Y-78914993D02*
X181560150Y-78819755D01*
X181560150Y-78819755D02*
X181607769Y-78724517D01*
X181607769Y-78724517D02*
X181655388Y-78534041D01*
X181655388Y-78534041D02*
X181655388Y-78391184D01*
X181655388Y-78391184D02*
X181607769Y-78200708D01*
X181607769Y-78200708D02*
X181560150Y-78105470D01*
X181560150Y-78105470D02*
X181464912Y-78010232D01*
X181464912Y-78010232D02*
X181322055Y-77962612D01*
X181322055Y-77962612D02*
X181083960Y-77962612D01*
X168369673Y-76352668D02*
X168369673Y-77352668D01*
X168369673Y-77352668D02*
X168703006Y-76638383D01*
X168703006Y-76638383D02*
X169036339Y-77352668D01*
X169036339Y-77352668D02*
X169036339Y-76352668D01*
X169512530Y-76352668D02*
X169512530Y-77352668D01*
X169941101Y-76400288D02*
X170083958Y-76352668D01*
X170083958Y-76352668D02*
X170322053Y-76352668D01*
X170322053Y-76352668D02*
X170417291Y-76400288D01*
X170417291Y-76400288D02*
X170464910Y-76447907D01*
X170464910Y-76447907D02*
X170512529Y-76543145D01*
X170512529Y-76543145D02*
X170512529Y-76638383D01*
X170512529Y-76638383D02*
X170464910Y-76733621D01*
X170464910Y-76733621D02*
X170417291Y-76781240D01*
X170417291Y-76781240D02*
X170322053Y-76828859D01*
X170322053Y-76828859D02*
X170131577Y-76876478D01*
X170131577Y-76876478D02*
X170036339Y-76924097D01*
X170036339Y-76924097D02*
X169988720Y-76971716D01*
X169988720Y-76971716D02*
X169941101Y-77066954D01*
X169941101Y-77066954D02*
X169941101Y-77162192D01*
X169941101Y-77162192D02*
X169988720Y-77257430D01*
X169988720Y-77257430D02*
X170036339Y-77305049D01*
X170036339Y-77305049D02*
X170131577Y-77352668D01*
X170131577Y-77352668D02*
X170369672Y-77352668D01*
X170369672Y-77352668D02*
X170512529Y-77305049D01*
X171131577Y-77352668D02*
X171322053Y-77352668D01*
X171322053Y-77352668D02*
X171417291Y-77305049D01*
X171417291Y-77305049D02*
X171512529Y-77209811D01*
X171512529Y-77209811D02*
X171560148Y-77019335D01*
X171560148Y-77019335D02*
X171560148Y-76686002D01*
X171560148Y-76686002D02*
X171512529Y-76495526D01*
X171512529Y-76495526D02*
X171417291Y-76400288D01*
X171417291Y-76400288D02*
X171322053Y-76352668D01*
X171322053Y-76352668D02*
X171131577Y-76352668D01*
X171131577Y-76352668D02*
X171036339Y-76400288D01*
X171036339Y-76400288D02*
X170941101Y-76495526D01*
X170941101Y-76495526D02*
X170893482Y-76686002D01*
X170893482Y-76686002D02*
X170893482Y-77019335D01*
X170893482Y-77019335D02*
X170941101Y-77209811D01*
X170941101Y-77209811D02*
X171036339Y-77305049D01*
X171036339Y-77305049D02*
X171131577Y-77352668D01*
X172750625Y-76733621D02*
X173512530Y-76733621D01*
X173988720Y-76733621D02*
X174750625Y-76733621D01*
X175845863Y-77352668D02*
X176417291Y-77352668D01*
X176131577Y-76352668D02*
X176131577Y-77352668D01*
X177322053Y-76447907D02*
X177274434Y-76400288D01*
X177274434Y-76400288D02*
X177131577Y-76352668D01*
X177131577Y-76352668D02*
X177036339Y-76352668D01*
X177036339Y-76352668D02*
X176893482Y-76400288D01*
X176893482Y-76400288D02*
X176798244Y-76495526D01*
X176798244Y-76495526D02*
X176750625Y-76590764D01*
X176750625Y-76590764D02*
X176703006Y-76781240D01*
X176703006Y-76781240D02*
X176703006Y-76924097D01*
X176703006Y-76924097D02*
X176750625Y-77114573D01*
X176750625Y-77114573D02*
X176798244Y-77209811D01*
X176798244Y-77209811D02*
X176893482Y-77305049D01*
X176893482Y-77305049D02*
X177036339Y-77352668D01*
X177036339Y-77352668D02*
X177131577Y-77352668D01*
X177131577Y-77352668D02*
X177274434Y-77305049D01*
X177274434Y-77305049D02*
X177322053Y-77257430D01*
X177750625Y-76352668D02*
X177750625Y-77352668D01*
X177750625Y-77352668D02*
X178131577Y-77352668D01*
X178131577Y-77352668D02*
X178226815Y-77305049D01*
X178226815Y-77305049D02*
X178274434Y-77257430D01*
X178274434Y-77257430D02*
X178322053Y-77162192D01*
X178322053Y-77162192D02*
X178322053Y-77019335D01*
X178322053Y-77019335D02*
X178274434Y-76924097D01*
X178274434Y-76924097D02*
X178226815Y-76876478D01*
X178226815Y-76876478D02*
X178131577Y-76828859D01*
X178131577Y-76828859D02*
X177750625Y-76828859D01*
X179512530Y-76352668D02*
X179512530Y-77352668D01*
X179512530Y-77352668D02*
X179845863Y-76638383D01*
X179845863Y-76638383D02*
X180179196Y-77352668D01*
X180179196Y-77352668D02*
X180179196Y-76352668D01*
X180655387Y-76352668D02*
X180655387Y-77352668D01*
X181083958Y-76400288D02*
X181226815Y-76352668D01*
X181226815Y-76352668D02*
X181464910Y-76352668D01*
X181464910Y-76352668D02*
X181560148Y-76400288D01*
X181560148Y-76400288D02*
X181607767Y-76447907D01*
X181607767Y-76447907D02*
X181655386Y-76543145D01*
X181655386Y-76543145D02*
X181655386Y-76638383D01*
X181655386Y-76638383D02*
X181607767Y-76733621D01*
X181607767Y-76733621D02*
X181560148Y-76781240D01*
X181560148Y-76781240D02*
X181464910Y-76828859D01*
X181464910Y-76828859D02*
X181274434Y-76876478D01*
X181274434Y-76876478D02*
X181179196Y-76924097D01*
X181179196Y-76924097D02*
X181131577Y-76971716D01*
X181131577Y-76971716D02*
X181083958Y-77066954D01*
X181083958Y-77066954D02*
X181083958Y-77162192D01*
X181083958Y-77162192D02*
X181131577Y-77257430D01*
X181131577Y-77257430D02*
X181179196Y-77305049D01*
X181179196Y-77305049D02*
X181274434Y-77352668D01*
X181274434Y-77352668D02*
X181512529Y-77352668D01*
X181512529Y-77352668D02*
X181655386Y-77305049D01*
X182274434Y-77352668D02*
X182464910Y-77352668D01*
X182464910Y-77352668D02*
X182560148Y-77305049D01*
X182560148Y-77305049D02*
X182655386Y-77209811D01*
X182655386Y-77209811D02*
X182703005Y-77019335D01*
X182703005Y-77019335D02*
X182703005Y-76686002D01*
X182703005Y-76686002D02*
X182655386Y-76495526D01*
X182655386Y-76495526D02*
X182560148Y-76400288D01*
X182560148Y-76400288D02*
X182464910Y-76352668D01*
X182464910Y-76352668D02*
X182274434Y-76352668D01*
X182274434Y-76352668D02*
X182179196Y-76400288D01*
X182179196Y-76400288D02*
X182083958Y-76495526D01*
X182083958Y-76495526D02*
X182036339Y-76686002D01*
X182036339Y-76686002D02*
X182036339Y-77019335D01*
X182036339Y-77019335D02*
X182083958Y-77209811D01*
X182083958Y-77209811D02*
X182179196Y-77305049D01*
X182179196Y-77305049D02*
X182274434Y-77352668D01*
X168369673Y-74742724D02*
X168369673Y-75742724D01*
X168369673Y-75742724D02*
X168703006Y-75028439D01*
X168703006Y-75028439D02*
X169036339Y-75742724D01*
X169036339Y-75742724D02*
X169036339Y-74742724D01*
X169703006Y-75742724D02*
X169893482Y-75742724D01*
X169893482Y-75742724D02*
X169988720Y-75695105D01*
X169988720Y-75695105D02*
X170083958Y-75599867D01*
X170083958Y-75599867D02*
X170131577Y-75409391D01*
X170131577Y-75409391D02*
X170131577Y-75076058D01*
X170131577Y-75076058D02*
X170083958Y-74885582D01*
X170083958Y-74885582D02*
X169988720Y-74790344D01*
X169988720Y-74790344D02*
X169893482Y-74742724D01*
X169893482Y-74742724D02*
X169703006Y-74742724D01*
X169703006Y-74742724D02*
X169607768Y-74790344D01*
X169607768Y-74790344D02*
X169512530Y-74885582D01*
X169512530Y-74885582D02*
X169464911Y-75076058D01*
X169464911Y-75076058D02*
X169464911Y-75409391D01*
X169464911Y-75409391D02*
X169512530Y-75599867D01*
X169512530Y-75599867D02*
X169607768Y-75695105D01*
X169607768Y-75695105D02*
X169703006Y-75742724D01*
X170512530Y-74790344D02*
X170655387Y-74742724D01*
X170655387Y-74742724D02*
X170893482Y-74742724D01*
X170893482Y-74742724D02*
X170988720Y-74790344D01*
X170988720Y-74790344D02*
X171036339Y-74837963D01*
X171036339Y-74837963D02*
X171083958Y-74933201D01*
X171083958Y-74933201D02*
X171083958Y-75028439D01*
X171083958Y-75028439D02*
X171036339Y-75123677D01*
X171036339Y-75123677D02*
X170988720Y-75171296D01*
X170988720Y-75171296D02*
X170893482Y-75218915D01*
X170893482Y-75218915D02*
X170703006Y-75266534D01*
X170703006Y-75266534D02*
X170607768Y-75314153D01*
X170607768Y-75314153D02*
X170560149Y-75361772D01*
X170560149Y-75361772D02*
X170512530Y-75457010D01*
X170512530Y-75457010D02*
X170512530Y-75552248D01*
X170512530Y-75552248D02*
X170560149Y-75647486D01*
X170560149Y-75647486D02*
X170607768Y-75695105D01*
X170607768Y-75695105D02*
X170703006Y-75742724D01*
X170703006Y-75742724D02*
X170941101Y-75742724D01*
X170941101Y-75742724D02*
X171083958Y-75695105D01*
X171512530Y-74742724D02*
X171512530Y-75742724D01*
X172750625Y-75123677D02*
X173512530Y-75123677D01*
X173988720Y-75123677D02*
X174750625Y-75123677D01*
X175845863Y-75742724D02*
X176417291Y-75742724D01*
X176131577Y-74742724D02*
X176131577Y-75742724D01*
X177322053Y-74837963D02*
X177274434Y-74790344D01*
X177274434Y-74790344D02*
X177131577Y-74742724D01*
X177131577Y-74742724D02*
X177036339Y-74742724D01*
X177036339Y-74742724D02*
X176893482Y-74790344D01*
X176893482Y-74790344D02*
X176798244Y-74885582D01*
X176798244Y-74885582D02*
X176750625Y-74980820D01*
X176750625Y-74980820D02*
X176703006Y-75171296D01*
X176703006Y-75171296D02*
X176703006Y-75314153D01*
X176703006Y-75314153D02*
X176750625Y-75504629D01*
X176750625Y-75504629D02*
X176798244Y-75599867D01*
X176798244Y-75599867D02*
X176893482Y-75695105D01*
X176893482Y-75695105D02*
X177036339Y-75742724D01*
X177036339Y-75742724D02*
X177131577Y-75742724D01*
X177131577Y-75742724D02*
X177274434Y-75695105D01*
X177274434Y-75695105D02*
X177322053Y-75647486D01*
X177750625Y-74742724D02*
X177750625Y-75742724D01*
X177750625Y-75742724D02*
X178131577Y-75742724D01*
X178131577Y-75742724D02*
X178226815Y-75695105D01*
X178226815Y-75695105D02*
X178274434Y-75647486D01*
X178274434Y-75647486D02*
X178322053Y-75552248D01*
X178322053Y-75552248D02*
X178322053Y-75409391D01*
X178322053Y-75409391D02*
X178274434Y-75314153D01*
X178274434Y-75314153D02*
X178226815Y-75266534D01*
X178226815Y-75266534D02*
X178131577Y-75218915D01*
X178131577Y-75218915D02*
X177750625Y-75218915D01*
X179512530Y-74742724D02*
X179512530Y-75742724D01*
X179512530Y-75742724D02*
X179845863Y-75028439D01*
X179845863Y-75028439D02*
X180179196Y-75742724D01*
X180179196Y-75742724D02*
X180179196Y-74742724D01*
X180845863Y-75742724D02*
X181036339Y-75742724D01*
X181036339Y-75742724D02*
X181131577Y-75695105D01*
X181131577Y-75695105D02*
X181226815Y-75599867D01*
X181226815Y-75599867D02*
X181274434Y-75409391D01*
X181274434Y-75409391D02*
X181274434Y-75076058D01*
X181274434Y-75076058D02*
X181226815Y-74885582D01*
X181226815Y-74885582D02*
X181131577Y-74790344D01*
X181131577Y-74790344D02*
X181036339Y-74742724D01*
X181036339Y-74742724D02*
X180845863Y-74742724D01*
X180845863Y-74742724D02*
X180750625Y-74790344D01*
X180750625Y-74790344D02*
X180655387Y-74885582D01*
X180655387Y-74885582D02*
X180607768Y-75076058D01*
X180607768Y-75076058D02*
X180607768Y-75409391D01*
X180607768Y-75409391D02*
X180655387Y-75599867D01*
X180655387Y-75599867D02*
X180750625Y-75695105D01*
X180750625Y-75695105D02*
X180845863Y-75742724D01*
X181655387Y-74790344D02*
X181798244Y-74742724D01*
X181798244Y-74742724D02*
X182036339Y-74742724D01*
X182036339Y-74742724D02*
X182131577Y-74790344D01*
X182131577Y-74790344D02*
X182179196Y-74837963D01*
X182179196Y-74837963D02*
X182226815Y-74933201D01*
X182226815Y-74933201D02*
X182226815Y-75028439D01*
X182226815Y-75028439D02*
X182179196Y-75123677D01*
X182179196Y-75123677D02*
X182131577Y-75171296D01*
X182131577Y-75171296D02*
X182036339Y-75218915D01*
X182036339Y-75218915D02*
X181845863Y-75266534D01*
X181845863Y-75266534D02*
X181750625Y-75314153D01*
X181750625Y-75314153D02*
X181703006Y-75361772D01*
X181703006Y-75361772D02*
X181655387Y-75457010D01*
X181655387Y-75457010D02*
X181655387Y-75552248D01*
X181655387Y-75552248D02*
X181703006Y-75647486D01*
X181703006Y-75647486D02*
X181750625Y-75695105D01*
X181750625Y-75695105D02*
X181845863Y-75742724D01*
X181845863Y-75742724D02*
X182083958Y-75742724D01*
X182083958Y-75742724D02*
X182226815Y-75695105D01*
X182655387Y-74742724D02*
X182655387Y-75742724D01*
X168322054Y-73180400D02*
X168464911Y-73132780D01*
X168464911Y-73132780D02*
X168703006Y-73132780D01*
X168703006Y-73132780D02*
X168798244Y-73180400D01*
X168798244Y-73180400D02*
X168845863Y-73228019D01*
X168845863Y-73228019D02*
X168893482Y-73323257D01*
X168893482Y-73323257D02*
X168893482Y-73418495D01*
X168893482Y-73418495D02*
X168845863Y-73513733D01*
X168845863Y-73513733D02*
X168798244Y-73561352D01*
X168798244Y-73561352D02*
X168703006Y-73608971D01*
X168703006Y-73608971D02*
X168512530Y-73656590D01*
X168512530Y-73656590D02*
X168417292Y-73704209D01*
X168417292Y-73704209D02*
X168369673Y-73751828D01*
X168369673Y-73751828D02*
X168322054Y-73847066D01*
X168322054Y-73847066D02*
X168322054Y-73942304D01*
X168322054Y-73942304D02*
X168369673Y-74037542D01*
X168369673Y-74037542D02*
X168417292Y-74085161D01*
X168417292Y-74085161D02*
X168512530Y-74132780D01*
X168512530Y-74132780D02*
X168750625Y-74132780D01*
X168750625Y-74132780D02*
X168893482Y-74085161D01*
X169893482Y-73228019D02*
X169845863Y-73180400D01*
X169845863Y-73180400D02*
X169703006Y-73132780D01*
X169703006Y-73132780D02*
X169607768Y-73132780D01*
X169607768Y-73132780D02*
X169464911Y-73180400D01*
X169464911Y-73180400D02*
X169369673Y-73275638D01*
X169369673Y-73275638D02*
X169322054Y-73370876D01*
X169322054Y-73370876D02*
X169274435Y-73561352D01*
X169274435Y-73561352D02*
X169274435Y-73704209D01*
X169274435Y-73704209D02*
X169322054Y-73894685D01*
X169322054Y-73894685D02*
X169369673Y-73989923D01*
X169369673Y-73989923D02*
X169464911Y-74085161D01*
X169464911Y-74085161D02*
X169607768Y-74132780D01*
X169607768Y-74132780D02*
X169703006Y-74132780D01*
X169703006Y-74132780D02*
X169845863Y-74085161D01*
X169845863Y-74085161D02*
X169893482Y-74037542D01*
X170798244Y-73132780D02*
X170322054Y-73132780D01*
X170322054Y-73132780D02*
X170322054Y-74132780D01*
X171131578Y-73132780D02*
X171131578Y-74132780D01*
X171703006Y-73132780D02*
X171274435Y-73704209D01*
X171703006Y-74132780D02*
X171131578Y-73561352D01*
X172893483Y-73513733D02*
X173655388Y-73513733D01*
X174131578Y-73513733D02*
X174893483Y-73513733D01*
X175988721Y-74132780D02*
X176560149Y-74132780D01*
X176274435Y-73132780D02*
X176274435Y-74132780D01*
X177464911Y-73228019D02*
X177417292Y-73180400D01*
X177417292Y-73180400D02*
X177274435Y-73132780D01*
X177274435Y-73132780D02*
X177179197Y-73132780D01*
X177179197Y-73132780D02*
X177036340Y-73180400D01*
X177036340Y-73180400D02*
X176941102Y-73275638D01*
X176941102Y-73275638D02*
X176893483Y-73370876D01*
X176893483Y-73370876D02*
X176845864Y-73561352D01*
X176845864Y-73561352D02*
X176845864Y-73704209D01*
X176845864Y-73704209D02*
X176893483Y-73894685D01*
X176893483Y-73894685D02*
X176941102Y-73989923D01*
X176941102Y-73989923D02*
X177036340Y-74085161D01*
X177036340Y-74085161D02*
X177179197Y-74132780D01*
X177179197Y-74132780D02*
X177274435Y-74132780D01*
X177274435Y-74132780D02*
X177417292Y-74085161D01*
X177417292Y-74085161D02*
X177464911Y-74037542D01*
X177893483Y-73132780D02*
X177893483Y-74132780D01*
X177893483Y-74132780D02*
X178274435Y-74132780D01*
X178274435Y-74132780D02*
X178369673Y-74085161D01*
X178369673Y-74085161D02*
X178417292Y-74037542D01*
X178417292Y-74037542D02*
X178464911Y-73942304D01*
X178464911Y-73942304D02*
X178464911Y-73799447D01*
X178464911Y-73799447D02*
X178417292Y-73704209D01*
X178417292Y-73704209D02*
X178369673Y-73656590D01*
X178369673Y-73656590D02*
X178274435Y-73608971D01*
X178274435Y-73608971D02*
X177893483Y-73608971D01*
X179607769Y-73180400D02*
X179750626Y-73132780D01*
X179750626Y-73132780D02*
X179988721Y-73132780D01*
X179988721Y-73132780D02*
X180083959Y-73180400D01*
X180083959Y-73180400D02*
X180131578Y-73228019D01*
X180131578Y-73228019D02*
X180179197Y-73323257D01*
X180179197Y-73323257D02*
X180179197Y-73418495D01*
X180179197Y-73418495D02*
X180131578Y-73513733D01*
X180131578Y-73513733D02*
X180083959Y-73561352D01*
X180083959Y-73561352D02*
X179988721Y-73608971D01*
X179988721Y-73608971D02*
X179798245Y-73656590D01*
X179798245Y-73656590D02*
X179703007Y-73704209D01*
X179703007Y-73704209D02*
X179655388Y-73751828D01*
X179655388Y-73751828D02*
X179607769Y-73847066D01*
X179607769Y-73847066D02*
X179607769Y-73942304D01*
X179607769Y-73942304D02*
X179655388Y-74037542D01*
X179655388Y-74037542D02*
X179703007Y-74085161D01*
X179703007Y-74085161D02*
X179798245Y-74132780D01*
X179798245Y-74132780D02*
X180036340Y-74132780D01*
X180036340Y-74132780D02*
X180179197Y-74085161D01*
X181179197Y-73228019D02*
X181131578Y-73180400D01*
X181131578Y-73180400D02*
X180988721Y-73132780D01*
X180988721Y-73132780D02*
X180893483Y-73132780D01*
X180893483Y-73132780D02*
X180750626Y-73180400D01*
X180750626Y-73180400D02*
X180655388Y-73275638D01*
X180655388Y-73275638D02*
X180607769Y-73370876D01*
X180607769Y-73370876D02*
X180560150Y-73561352D01*
X180560150Y-73561352D02*
X180560150Y-73704209D01*
X180560150Y-73704209D02*
X180607769Y-73894685D01*
X180607769Y-73894685D02*
X180655388Y-73989923D01*
X180655388Y-73989923D02*
X180750626Y-74085161D01*
X180750626Y-74085161D02*
X180893483Y-74132780D01*
X180893483Y-74132780D02*
X180988721Y-74132780D01*
X180988721Y-74132780D02*
X181131578Y-74085161D01*
X181131578Y-74085161D02*
X181179197Y-74037542D01*
X182083959Y-73132780D02*
X181607769Y-73132780D01*
X181607769Y-73132780D02*
X181607769Y-74132780D01*
X182417293Y-73132780D02*
X182417293Y-74132780D01*
X182988721Y-73132780D02*
X182560150Y-73704209D01*
X182988721Y-74132780D02*
X182417293Y-73561352D01*
D10*
X85336779Y-67740124D02*
X85336779Y-68740124D01*
X85336779Y-68740124D02*
X85574874Y-68740124D01*
X85574874Y-68740124D02*
X85717731Y-68692505D01*
X85717731Y-68692505D02*
X85812969Y-68597267D01*
X85812969Y-68597267D02*
X85860588Y-68502029D01*
X85860588Y-68502029D02*
X85908207Y-68311553D01*
X85908207Y-68311553D02*
X85908207Y-68168696D01*
X85908207Y-68168696D02*
X85860588Y-67978220D01*
X85860588Y-67978220D02*
X85812969Y-67882982D01*
X85812969Y-67882982D02*
X85717731Y-67787744D01*
X85717731Y-67787744D02*
X85574874Y-67740124D01*
X85574874Y-67740124D02*
X85336779Y-67740124D01*
X86527255Y-68740124D02*
X86622493Y-68740124D01*
X86622493Y-68740124D02*
X86717731Y-68692505D01*
X86717731Y-68692505D02*
X86765350Y-68644886D01*
X86765350Y-68644886D02*
X86812969Y-68549648D01*
X86812969Y-68549648D02*
X86860588Y-68359172D01*
X86860588Y-68359172D02*
X86860588Y-68121077D01*
X86860588Y-68121077D02*
X86812969Y-67930601D01*
X86812969Y-67930601D02*
X86765350Y-67835363D01*
X86765350Y-67835363D02*
X86717731Y-67787744D01*
X86717731Y-67787744D02*
X86622493Y-67740124D01*
X86622493Y-67740124D02*
X86527255Y-67740124D01*
X86527255Y-67740124D02*
X86432017Y-67787744D01*
X86432017Y-67787744D02*
X86384398Y-67835363D01*
X86384398Y-67835363D02*
X86336779Y-67930601D01*
X86336779Y-67930601D02*
X86289160Y-68121077D01*
X86289160Y-68121077D02*
X86289160Y-68359172D01*
X86289160Y-68359172D02*
X86336779Y-68549648D01*
X86336779Y-68549648D02*
X86384398Y-68644886D01*
X86384398Y-68644886D02*
X86432017Y-68692505D01*
X86432017Y-68692505D02*
X86527255Y-68740124D01*
X88051065Y-68121077D02*
X88812970Y-68121077D01*
X89289160Y-68121077D02*
X90051065Y-68121077D01*
X91860588Y-67740124D02*
X91527255Y-68216315D01*
X91289160Y-67740124D02*
X91289160Y-68740124D01*
X91289160Y-68740124D02*
X91670112Y-68740124D01*
X91670112Y-68740124D02*
X91765350Y-68692505D01*
X91765350Y-68692505D02*
X91812969Y-68644886D01*
X91812969Y-68644886D02*
X91860588Y-68549648D01*
X91860588Y-68549648D02*
X91860588Y-68406791D01*
X91860588Y-68406791D02*
X91812969Y-68311553D01*
X91812969Y-68311553D02*
X91765350Y-68263934D01*
X91765350Y-68263934D02*
X91670112Y-68216315D01*
X91670112Y-68216315D02*
X91289160Y-68216315D01*
X92146303Y-68740124D02*
X92717731Y-68740124D01*
X92432017Y-67740124D02*
X92432017Y-68740124D01*
X93051065Y-68740124D02*
X93051065Y-67930601D01*
X93051065Y-67930601D02*
X93098684Y-67835363D01*
X93098684Y-67835363D02*
X93146303Y-67787744D01*
X93146303Y-67787744D02*
X93241541Y-67740124D01*
X93241541Y-67740124D02*
X93432017Y-67740124D01*
X93432017Y-67740124D02*
X93527255Y-67787744D01*
X93527255Y-67787744D02*
X93574874Y-67835363D01*
X93574874Y-67835363D02*
X93622493Y-67930601D01*
X93622493Y-67930601D02*
X93622493Y-68740124D01*
X95432017Y-67835363D02*
X95384398Y-67787744D01*
X95384398Y-67787744D02*
X95241541Y-67740124D01*
X95241541Y-67740124D02*
X95146303Y-67740124D01*
X95146303Y-67740124D02*
X95003446Y-67787744D01*
X95003446Y-67787744D02*
X94908208Y-67882982D01*
X94908208Y-67882982D02*
X94860589Y-67978220D01*
X94860589Y-67978220D02*
X94812970Y-68168696D01*
X94812970Y-68168696D02*
X94812970Y-68311553D01*
X94812970Y-68311553D02*
X94860589Y-68502029D01*
X94860589Y-68502029D02*
X94908208Y-68597267D01*
X94908208Y-68597267D02*
X95003446Y-68692505D01*
X95003446Y-68692505D02*
X95146303Y-68740124D01*
X95146303Y-68740124D02*
X95241541Y-68740124D01*
X95241541Y-68740124D02*
X95384398Y-68692505D01*
X95384398Y-68692505D02*
X95432017Y-68644886D01*
X96003446Y-67740124D02*
X95908208Y-67787744D01*
X95908208Y-67787744D02*
X95860589Y-67835363D01*
X95860589Y-67835363D02*
X95812970Y-67930601D01*
X95812970Y-67930601D02*
X95812970Y-68216315D01*
X95812970Y-68216315D02*
X95860589Y-68311553D01*
X95860589Y-68311553D02*
X95908208Y-68359172D01*
X95908208Y-68359172D02*
X96003446Y-68406791D01*
X96003446Y-68406791D02*
X96146303Y-68406791D01*
X96146303Y-68406791D02*
X96241541Y-68359172D01*
X96241541Y-68359172D02*
X96289160Y-68311553D01*
X96289160Y-68311553D02*
X96336779Y-68216315D01*
X96336779Y-68216315D02*
X96336779Y-67930601D01*
X96336779Y-67930601D02*
X96289160Y-67835363D01*
X96289160Y-67835363D02*
X96241541Y-67787744D01*
X96241541Y-67787744D02*
X96146303Y-67740124D01*
X96146303Y-67740124D02*
X96003446Y-67740124D01*
X96765351Y-68406791D02*
X96765351Y-67740124D01*
X96765351Y-68311553D02*
X96812970Y-68359172D01*
X96812970Y-68359172D02*
X96908208Y-68406791D01*
X96908208Y-68406791D02*
X97051065Y-68406791D01*
X97051065Y-68406791D02*
X97146303Y-68359172D01*
X97146303Y-68359172D02*
X97193922Y-68263934D01*
X97193922Y-68263934D02*
X97193922Y-67740124D01*
X85336779Y-66130180D02*
X85336779Y-67130180D01*
X85336779Y-67130180D02*
X85574874Y-67130180D01*
X85574874Y-67130180D02*
X85717731Y-67082561D01*
X85717731Y-67082561D02*
X85812969Y-66987323D01*
X85812969Y-66987323D02*
X85860588Y-66892085D01*
X85860588Y-66892085D02*
X85908207Y-66701609D01*
X85908207Y-66701609D02*
X85908207Y-66558752D01*
X85908207Y-66558752D02*
X85860588Y-66368276D01*
X85860588Y-66368276D02*
X85812969Y-66273038D01*
X85812969Y-66273038D02*
X85717731Y-66177800D01*
X85717731Y-66177800D02*
X85574874Y-66130180D01*
X85574874Y-66130180D02*
X85336779Y-66130180D01*
X86812969Y-67130180D02*
X86336779Y-67130180D01*
X86336779Y-67130180D02*
X86289160Y-66653990D01*
X86289160Y-66653990D02*
X86336779Y-66701609D01*
X86336779Y-66701609D02*
X86432017Y-66749228D01*
X86432017Y-66749228D02*
X86670112Y-66749228D01*
X86670112Y-66749228D02*
X86765350Y-66701609D01*
X86765350Y-66701609D02*
X86812969Y-66653990D01*
X86812969Y-66653990D02*
X86860588Y-66558752D01*
X86860588Y-66558752D02*
X86860588Y-66320657D01*
X86860588Y-66320657D02*
X86812969Y-66225419D01*
X86812969Y-66225419D02*
X86765350Y-66177800D01*
X86765350Y-66177800D02*
X86670112Y-66130180D01*
X86670112Y-66130180D02*
X86432017Y-66130180D01*
X86432017Y-66130180D02*
X86336779Y-66177800D01*
X86336779Y-66177800D02*
X86289160Y-66225419D01*
X88051065Y-66511133D02*
X88812970Y-66511133D01*
X89289160Y-66511133D02*
X90051065Y-66511133D01*
X91860588Y-66130180D02*
X91527255Y-66606371D01*
X91289160Y-66130180D02*
X91289160Y-67130180D01*
X91289160Y-67130180D02*
X91670112Y-67130180D01*
X91670112Y-67130180D02*
X91765350Y-67082561D01*
X91765350Y-67082561D02*
X91812969Y-67034942D01*
X91812969Y-67034942D02*
X91860588Y-66939704D01*
X91860588Y-66939704D02*
X91860588Y-66796847D01*
X91860588Y-66796847D02*
X91812969Y-66701609D01*
X91812969Y-66701609D02*
X91765350Y-66653990D01*
X91765350Y-66653990D02*
X91670112Y-66606371D01*
X91670112Y-66606371D02*
X91289160Y-66606371D01*
X92146303Y-67130180D02*
X92717731Y-67130180D01*
X92432017Y-66130180D02*
X92432017Y-67130180D01*
X93051065Y-67130180D02*
X93051065Y-66320657D01*
X93051065Y-66320657D02*
X93098684Y-66225419D01*
X93098684Y-66225419D02*
X93146303Y-66177800D01*
X93146303Y-66177800D02*
X93241541Y-66130180D01*
X93241541Y-66130180D02*
X93432017Y-66130180D01*
X93432017Y-66130180D02*
X93527255Y-66177800D01*
X93527255Y-66177800D02*
X93574874Y-66225419D01*
X93574874Y-66225419D02*
X93622493Y-66320657D01*
X93622493Y-66320657D02*
X93622493Y-67130180D01*
X95336779Y-66130180D02*
X94860589Y-66130180D01*
X94860589Y-66130180D02*
X94860589Y-67130180D01*
X96051065Y-66177800D02*
X95955827Y-66130180D01*
X95955827Y-66130180D02*
X95765351Y-66130180D01*
X95765351Y-66130180D02*
X95670113Y-66177800D01*
X95670113Y-66177800D02*
X95622494Y-66273038D01*
X95622494Y-66273038D02*
X95622494Y-66653990D01*
X95622494Y-66653990D02*
X95670113Y-66749228D01*
X95670113Y-66749228D02*
X95765351Y-66796847D01*
X95765351Y-66796847D02*
X95955827Y-66796847D01*
X95955827Y-66796847D02*
X96051065Y-66749228D01*
X96051065Y-66749228D02*
X96098684Y-66653990D01*
X96098684Y-66653990D02*
X96098684Y-66558752D01*
X96098684Y-66558752D02*
X95622494Y-66463514D01*
X96955827Y-66130180D02*
X96955827Y-67130180D01*
X96955827Y-66177800D02*
X96860589Y-66130180D01*
X96860589Y-66130180D02*
X96670113Y-66130180D01*
X96670113Y-66130180D02*
X96574875Y-66177800D01*
X96574875Y-66177800D02*
X96527256Y-66225419D01*
X96527256Y-66225419D02*
X96479637Y-66320657D01*
X96479637Y-66320657D02*
X96479637Y-66606371D01*
X96479637Y-66606371D02*
X96527256Y-66701609D01*
X96527256Y-66701609D02*
X96574875Y-66749228D01*
X96574875Y-66749228D02*
X96670113Y-66796847D01*
X96670113Y-66796847D02*
X96860589Y-66796847D01*
X96860589Y-66796847D02*
X96955827Y-66749228D01*
D13*
X114220000Y-72820000D03*
X114220000Y-75360000D03*
X114220000Y-77900000D03*
X114220000Y-80440000D03*
X114220000Y-82980000D03*
X98980000Y-77900000D03*
X98980000Y-75360000D03*
X98980000Y-72820000D03*
X92900000Y-74250000D03*
X92900000Y-76790000D03*
X84800000Y-82400000D03*
X84800000Y-77400000D03*
X84800000Y-72400000D03*
X141980000Y-70280000D03*
X141980000Y-72820000D03*
X141980000Y-75360000D03*
X141980000Y-77900000D03*
X141980000Y-80440000D03*
X141980000Y-82980000D03*
X141980000Y-85520000D03*
X157220000Y-85520000D03*
X157220000Y-82980000D03*
X157220000Y-80440000D03*
X157220000Y-77900000D03*
X157220000Y-75360000D03*
X157220000Y-72820000D03*
X157220000Y-70280000D03*
X148330000Y-69645000D03*
X150870000Y-69645000D03*
X148330000Y-72185000D03*
X150870000Y-72185000D03*
X130000000Y-71750000D03*
X130000000Y-78750000D03*
X172300000Y-88000000D03*
X174840000Y-88000000D03*
X177380000Y-88000000D03*
X179920000Y-88000000D03*
X182460000Y-88000000D03*
X185000000Y-88000000D03*
X185000000Y-67700000D03*
X182460000Y-67700000D03*
X179920000Y-67700000D03*
X177380000Y-67700000D03*
X174840000Y-67700000D03*
X172300000Y-67700000D03*
M02*
