M48
METRIC,TZ
T1C0.300
T2C0.572
T3C0.800
T4C1.000
T5C1.300
%
G90
G05
T1
X94000Y-82000
X123000Y-79000
X131000Y-67000
X135000Y-86000
X137000Y-72000
X145000Y-82000
X149000Y-66000
X152000Y-69000
X153000Y-70000
X154000Y-67000
X154000Y-77000
X155000Y-68000
X156000Y-88000
X160000Y-87000
X165000Y-77000
X167000Y-82000
X168000Y-68000
X170000Y-74000
X174000Y-84000
T2
X148330Y-69645
X148330Y-72185
X150870Y-69645
X150870Y-72185
T3
X92900Y-74250
X92900Y-76790
T4
X98980Y-72820
X98980Y-75360
X98980Y-77900
X114220Y-72820
X114220Y-75360
X114220Y-77900
X114220Y-80440
X114220Y-82980
X141980Y-70280
X141980Y-72820
X141980Y-75360
X141980Y-77900
X141980Y-80440
X141980Y-82980
X141980Y-85520
X157220Y-70280
X157220Y-72820
X157220Y-75360
X157220Y-77900
X157220Y-80440
X157220Y-82980
X157220Y-85520
X172300Y-67700
X172300Y-88000
X174840Y-67700
X174840Y-88000
X177380Y-67700
X177380Y-88000
X179920Y-67700
X179920Y-88000
X182460Y-67700
X182460Y-88000
X185000Y-67700
X185000Y-88000
T5
X84800Y-72400
X84800Y-77400
X84800Y-82400
M30
